<?xml version="1.0" encoding="utf-8"?>
<!-- Generator: Adobe Illustrator 19.0.0, SVG Export Plug-In . SVG Version: 6.00 Build 0)  -->
<svg version="1.1" id="图层_1" xmlns="http://www.w3.org/2000/svg" xmlns:xlink="http://www.w3.org/1999/xlink" x="0px" y="0px"
	 viewBox="-333 350.8 356 69.2" style="enable-background:new -333 350.8 356 69.2;" xml:space="preserve">
<style type="text/css">
	.st0{fill:#404040;}
	.st1{fill:#808080;}
</style>
<g id="XMLID_164_">
	<path id="XMLID_103_" class="st0" d="M-237.4,351.2h6v0.5h-0.3c-0.2,0-0.5,0.1-1,0.3c-0.4,0.2-0.8,0.5-1.2,0.8
		c-0.3,0.4-0.8,1-1.3,1.8l-4.2,6.5v4.3c0,1.1,0.1,1.7,0.4,2c0.3,0.4,0.8,0.5,1.5,0.5h0.6v0.5h-7.3v-0.5h0.6c0.7,0,1.2-0.2,1.5-0.7
		c0.2-0.3,0.3-0.9,0.3-1.9v-4.1l-4.7-7.2c-0.5-0.7-0.9-1.2-1.1-1.4c-0.2-0.2-0.6-0.5-1.2-0.8c-0.2-0.1-0.4-0.1-0.7-0.1v-0.5h7.4v0.5
		h-0.4c-0.4,0-0.8,0.1-1.1,0.3c-0.4,0.1-0.6,0.4-0.6,0.8c0,0.3,0.3,0.9,0.8,1.7l3.6,5.5l3.4-5.3c0.5-0.8,0.8-1.4,0.8-1.8
		c0-0.2-0.1-0.4-0.2-0.6c-0.2-0.2-0.3-0.4-0.6-0.5c-0.3-0.1-0.6-0.2-1-0.2V351.2z"/>
	<path id="XMLID_105_" class="st0" d="M-216.3,350.8c2.2,0,4.2,0.8,5.8,2.5s2.5,3.8,2.5,6.4s-0.8,4.8-2.5,6.5
		c-1.7,1.7-3.6,2.6-6,2.6s-4.4-0.8-6-2.5s-2.4-3.9-2.4-6.5c0-2.7,0.9-5,2.8-6.7C-220.5,351.5-218.5,350.8-216.3,350.8z
		 M-216.5,351.7c-1.5,0-2.8,0.6-3.7,1.7c-1.2,1.4-1.7,3.5-1.7,6.2c0,2.8,0.6,5,1.8,6.5c0.9,1.2,2.1,1.7,3.7,1.7s3-0.6,4-1.9
		c1.1-1.3,1.6-3.2,1.6-6c0-2.9-0.6-5.1-1.7-6.6C-213.6,352.3-214.9,351.7-216.5,351.7z"/>
	<path id="XMLID_108_" class="st0" d="M-189.4,351.7v-0.5h6.1v0.5h-0.7c-0.7,0-1.2,0.3-1.6,0.9c-0.2,0.3-0.3,0.9-0.3,1.8v7
		c0,1.7-0.2,3.1-0.5,4s-1,1.8-2,2.5c-1,0.7-2.4,1-4.1,1c-1.9,0-3.3-0.3-4.3-1c-1-0.7-1.7-1.5-2.1-2.6c-0.3-0.8-0.4-2.2-0.4-4.2v-6.9
		c0-1.1-0.1-1.8-0.4-2.1c-0.3-0.3-0.8-0.5-1.4-0.5h-0.6v-0.4h7.4v0.5h-0.7c-0.7,0-1.2,0.2-1.5,0.7c-0.2,0.3-0.3,0.9-0.3,1.9v7.5
		c0,0.7,0.1,1.4,0.2,2.3c0.1,0.9,0.3,1.5,0.7,2c0.3,0.5,0.8,0.9,1.4,1.2c0.6,0.3,1.3,0.5,2.2,0.5c1.1,0,2.1-0.2,3-0.7
		s1.5-1.1,1.8-1.9c0.3-0.8,0.5-2.1,0.5-3.9v-7c0-1.1-0.1-1.7-0.4-2c-0.3-0.4-0.8-0.6-1.5-0.6H-189.4z"/>
	<path id="XMLID_110_" class="st0" d="M-160.3,368.4h-4.6l-5.8-8c-0.4,0-0.8,0-1.1,0c-0.1,0-0.2,0-0.4,0c-0.1,0-0.3,0-0.4,0v5
		c0,1.1,0.1,1.8,0.4,2c0.3,0.4,0.8,0.6,1.4,0.6h0.7v0.5h-7.4V368h0.6c0.7,0,1.2-0.2,1.6-0.7c0.2-0.3,0.3-0.9,0.3-1.9v-11.2
		c0-1.1-0.1-1.8-0.4-2c-0.3-0.4-0.8-0.6-1.5-0.6h-0.6v-0.4h6.3c1.8,0,3.2,0.1,4,0.4c0.9,0.3,1.6,0.8,2.2,1.5
		c0.6,0.7,0.9,1.6,0.9,2.6c0,1.1-0.3,2-1,2.8c-0.7,0.8-1.8,1.3-3.2,1.7l3.6,4.9c0.8,1.1,1.5,1.9,2.1,2.3s1.3,0.6,2.3,0.7
		L-160.3,368.4L-160.3,368.4z M-172.5,359.6c0.2,0,0.3,0,0.4,0c0.1,0,0.2,0,0.3,0c1.6,0,2.9-0.4,3.7-1.1c0.8-0.7,1.2-1.6,1.2-2.7
		s-0.3-1.9-1-2.6c-0.7-0.7-1.6-1-2.7-1c-0.5,0-1.2,0.1-2,0.2v7.2H-172.5z"/>
	<path id="XMLID_125_" class="st0" d="M-138.3,360.3v5c0,1.1,0.1,1.8,0.4,2c0.3,0.4,0.8,0.6,1.5,0.6h0.7v0.5h-7.4v-0.5h0.6
		c0.7,0,1.2-0.2,1.6-0.7c0.2-0.3,0.3-0.9,0.3-1.9v-11.1c0-1.1-0.1-1.8-0.3-2c-0.3-0.4-0.8-0.6-1.5-0.6h-0.6v-0.4h6.3
		c1.5,0,2.8,0.2,3.6,0.5c0.8,0.3,1.6,0.9,2.2,1.6s0.9,1.6,0.9,2.7c0,1.4-0.5,2.5-1.4,3.4s-2.2,1.3-3.9,1.3c-0.4,0-0.9,0-1.3-0.1
		C-137.2,360.6-137.7,360.5-138.3,360.3z M-138.3,359.6c0.4,0.1,0.8,0.1,1.2,0.2c0.3,0,0.6,0.1,0.9,0.1c0.9,0,1.6-0.3,2.3-1
		c0.6-0.7,1-1.6,1-2.6c0-0.7-0.2-1.4-0.5-2.1c-0.3-0.7-0.7-1.1-1.3-1.4s-1.2-0.5-1.9-0.5c-0.4,0-1,0.1-1.7,0.2V359.6z"/>
	<path id="XMLID_128_" class="st0" d="M-109,363.6l0.4,0.1l-1.5,4.7h-13.3v-0.5h0.6c0.7,0,1.2-0.2,1.6-0.7c0.2-0.3,0.3-0.9,0.3-1.9
		v-11.1c0-1.1-0.1-1.7-0.4-2c-0.3-0.4-0.8-0.6-1.5-0.6h-0.6v-0.4h7.8v0.5c-0.9,0-1.6,0.1-1.9,0.3c-0.3,0.2-0.6,0.4-0.8,0.7
		c-0.1,0.3-0.2,0.9-0.2,1.9v10.8c0,0.7,0.1,1.2,0.2,1.4c0.1,0.2,0.3,0.3,0.5,0.4s0.9,0.1,2,0.1h1.3c1.3,0,2.2-0.1,2.8-0.3
		c0.5-0.2,1-0.5,1.5-1C-109.9,365.5-109.5,364.7-109,363.6z"/>
	<path id="XMLID_130_" class="st0" d="M-91,362.6h-6.7l-1.2,2.7c-0.3,0.7-0.4,1.2-0.4,1.5s0.1,0.5,0.4,0.7c0.2,0.2,0.8,0.3,1.6,0.4
		v0.5h-5.4v-0.5c0.7-0.1,1.2-0.3,1.4-0.5c0.4-0.4,0.9-1.2,1.4-2.5l6.1-14.1h0.4l6,14.3c0.5,1.2,0.9,1.9,1.3,2.2s0.9,0.5,1.6,0.6v0.5
		h-6.8v-0.5c0.7,0,1.1-0.1,1.4-0.3c0.2-0.2,0.4-0.4,0.4-0.7c0-0.4-0.2-1-0.5-1.8L-91,362.6z M-91.3,361.7l-2.9-7l-3,7H-91.3z"/>
	<path id="XMLID_133_" class="st0" d="M-79.2,351.2h4.7l10.5,12.9v-9.9c0-1.1-0.1-1.7-0.4-2c-0.3-0.4-0.8-0.5-1.5-0.5h-0.6v-0.5h6
		v0.5h-0.6c-0.7,0-1.2,0.2-1.5,0.7c-0.2,0.3-0.3,0.9-0.3,1.9v14.5h-0.5l-11.3-14v10.6c0,1.1,0.1,1.7,0.3,2c0.3,0.4,0.8,0.5,1.5,0.5
		h0.6v0.5h-6v-0.5h0.6c0.7,0,1.3-0.2,1.6-0.7c0.2-0.3,0.3-0.9,0.3-1.9v-12c-0.5-0.6-0.9-1-1.1-1.2c-0.3-0.2-0.6-0.4-1.1-0.5
		c-0.2-0.1-0.6-0.1-1.1-0.1L-79.2,351.2L-79.2,351.2z"/>
</g>
<g id="XMLID_29_">
	<path id="XMLID_33_" class="st0" d="M-259,408.2l-1.8,6.2c0.8-1.2,1.4-1.9,1.8-2.3c0.4-0.4,0.8-0.6,1.2-0.6c0.2,0,0.4,0.1,0.5,0.2
		c0.1,0.1,0.2,0.3,0.2,0.6s-0.1,0.6-0.2,1l-0.8,2.7c-0.1,0.3-0.1,0.5-0.1,0.5c0,0.1,0,0.1,0.1,0.1l0.1,0.1c0.1,0,0.1,0,0.2-0.1
		c0.2-0.2,0.5-0.4,0.7-0.8l0.2,0.1c-0.1,0.2-0.3,0.5-0.6,0.7c-0.3,0.3-0.5,0.5-0.7,0.6c-0.2,0.1-0.3,0.2-0.5,0.2
		c-0.2,0-0.3,0-0.4-0.1c-0.1-0.1-0.1-0.2-0.1-0.4c0-0.2,0.1-0.5,0.2-1l0.7-2.5c0.1-0.3,0.1-0.6,0.1-0.7s0-0.2-0.1-0.2
		s-0.1-0.1-0.2-0.1c-0.1,0-0.3,0-0.4,0.1c-0.3,0.2-0.6,0.5-1,1c-0.1,0.1-0.4,0.7-1,1.6c-0.2,0.3-0.3,0.6-0.4,1l-0.4,1.3h-1l2.1-7.3
		l0.2-0.8c0-0.1,0-0.2-0.1-0.3s-0.2-0.1-0.3-0.1s-0.2,0-0.3,0h-0.1v-0.2L-259,408.2z"/>
	<path id="XMLID_35_" class="st0" d="M-249,413.5c0,0.6-0.2,1.3-0.5,1.9s-0.8,1.1-1.4,1.5c-0.6,0.4-1.2,0.5-1.8,0.5
		c-0.6,0-1.1-0.2-1.4-0.6c-0.4-0.4-0.5-0.8-0.5-1.4s0.2-1.2,0.5-1.9c0.4-0.6,0.8-1.1,1.4-1.5c0.6-0.4,1.2-0.5,1.7-0.5s1,0.2,1.4,0.6
		C-249.2,412.4-249,412.9-249,413.5z M-250,413c0-0.4-0.1-0.7-0.3-0.9c-0.2-0.2-0.5-0.3-0.8-0.3c-0.6,0-1.2,0.4-1.7,1.3
		c-0.5,0.9-0.8,1.8-0.8,2.7c0,0.4,0.1,0.7,0.3,0.9c0.2,0.2,0.5,0.3,0.8,0.3c0.6,0,1.2-0.4,1.7-1.3S-250,413.9-250,413z"/>
	<path id="XMLID_38_" class="st0" d="M-241.8,411.5l0.4,4.8c0.7-0.9,1.3-1.7,1.8-2.4c0.3-0.4,0.4-0.8,0.4-1c0-0.1,0-0.2-0.1-0.2
		c0,0-0.1-0.1-0.2-0.2c-0.1-0.1-0.2-0.2-0.2-0.2c0-0.1-0.1-0.2-0.1-0.3c0-0.1,0-0.2,0.1-0.3c0.1-0.1,0.2-0.1,0.4-0.1
		s0.3,0.1,0.4,0.2c0.1,0.1,0.2,0.3,0.2,0.5s0,0.4-0.1,0.6c-0.1,0.4-0.4,0.8-0.7,1.4c-0.4,0.7-0.9,1.3-1.4,1.9s-0.8,1-1.1,1.2h-0.2
		l-0.4-4.4l-2.6,4.4h-0.3c0-1.8-0.1-3.2-0.3-4.3c-0.1-0.4-0.2-0.7-0.3-0.9c-0.1-0.1-0.3-0.1-0.5-0.1c-0.1,0-0.3,0-0.5,0v-0.2
		l1.8-0.4c0.3,0.7,0.4,1.8,0.5,3.3c0,0.6,0,0.9,0.1,1l2.6-4.3H-241.8z"/>
	<path id="XMLID_40_" class="st0" d="M-234.4,411.5l-0.8,2.9c0.4-0.7,0.7-1.2,0.9-1.5c0.4-0.5,0.8-0.9,1.2-1.1
		c0.2-0.1,0.5-0.2,0.7-0.2s0.4,0.1,0.5,0.2c0.1,0.1,0.2,0.3,0.2,0.5s0,0.5-0.1,0.8l-0.5,1.6c0.7-1.3,1.3-2.2,2-2.7
		c0.3-0.3,0.7-0.4,1-0.4c0.2,0,0.4,0.1,0.5,0.2c0.1,0.1,0.2,0.3,0.2,0.6c0,0.2,0,0.5-0.1,0.8l-0.7,2.5c-0.2,0.5-0.2,0.8-0.2,0.9
		c0,0.1,0,0.1,0.1,0.2h0.1c0,0,0.1,0,0.2-0.1c0.2-0.2,0.5-0.4,0.7-0.7l0.2,0.1c-0.1,0.2-0.3,0.4-0.6,0.7s-0.5,0.5-0.7,0.6
		c-0.2,0.1-0.4,0.2-0.5,0.2c-0.1,0-0.3-0.1-0.4-0.2c-0.1-0.1-0.1-0.2-0.1-0.4c0-0.2,0.1-0.6,0.3-1.2l0.6-2c0.1-0.5,0.2-0.7,0.2-0.8
		c0-0.1,0-0.2,0-0.2c0-0.1,0-0.2-0.1-0.2c-0.1-0.1-0.1-0.1-0.2-0.1c-0.2,0-0.4,0.1-0.6,0.3c-0.6,0.5-1.1,1.3-1.6,2.3
		c-0.3,0.6-0.6,1.5-0.9,2.5h-1l1.1-3.8c0.1-0.4,0.2-0.7,0.2-0.8c0-0.1,0-0.2-0.1-0.3c0-0.1-0.1-0.1-0.2-0.1c-0.1,0-0.3,0.1-0.4,0.2
		c-0.3,0.2-0.6,0.5-1,1.1c-0.4,0.5-0.7,1.1-0.9,1.6c-0.1,0.2-0.4,1-0.8,2.2h-0.9l1.2-4.1l0.2-0.5c0-0.1,0-0.1,0-0.2s0-0.2-0.1-0.2
		c-0.1-0.1-0.2-0.1-0.3-0.1s-0.2,0-0.5,0.1l-0.1-0.2L-234.4,411.5z"/>
	<path id="XMLID_42_" class="st0" d="M-220.4,411.6l-1.1,3.8c-0.2,0.6-0.2,0.9-0.2,1.1c0,0.1,0,0.1,0,0.2l0.1,0.1
		c0.1,0,0.2,0,0.2-0.1c0.1-0.1,0.3-0.3,0.7-0.8l0.2,0.1c-0.3,0.5-0.7,0.9-1,1.2c-0.2,0.2-0.5,0.2-0.7,0.2s-0.3,0-0.4-0.1
		c-0.1-0.1-0.1-0.2-0.1-0.4c0-0.1,0-0.3,0.1-0.6c0.1-0.3,0.3-1,0.6-2c-0.7,1.2-1.3,2-1.8,2.4s-0.9,0.7-1.3,0.7
		c-0.2,0-0.4-0.1-0.5-0.2c-0.1-0.1-0.2-0.3-0.2-0.5c0-0.3,0.1-0.8,0.3-1.5l0.6-2c0.1-0.5,0.2-0.8,0.2-0.9c0-0.1,0-0.1-0.1-0.1
		l-0.1-0.1c-0.1,0-0.2,0-0.3,0.1s-0.3,0.3-0.6,0.7l-0.2-0.1c0.3-0.5,0.7-0.9,1-1.1c0.3-0.2,0.5-0.3,0.7-0.3s0.3,0,0.4,0.1
		c0.1,0.1,0.1,0.2,0.1,0.4c0,0.2-0.1,0.6-0.3,1.2l-0.6,2.1c-0.2,0.6-0.2,0.9-0.2,1.1c0,0.1,0,0.1,0.1,0.2c0.1,0.1,0.1,0.1,0.2,0.1
		c0.1,0,0.3-0.1,0.5-0.2c0.2-0.1,0.5-0.4,0.9-0.9c0.4-0.5,0.7-0.9,0.9-1.4c0.2-0.4,0.5-1.1,0.8-2l0.1-0.5H-220.4L-220.4,411.6z"/>
	<path id="XMLID_44_" class="st0" d="M-213.8,415.8c-0.4,0.5-0.9,0.9-1.3,1.2c-0.4,0.2-0.9,0.4-1.4,0.4c-0.6,0-1.1-0.2-1.4-0.5
		c-0.3-0.3-0.5-0.8-0.5-1.4c0-0.6,0.2-1.3,0.5-1.9c0.4-0.6,0.8-1.1,1.5-1.5c0.6-0.4,1.2-0.6,1.8-0.6c0.5,0,0.8,0.1,1,0.3
		s0.3,0.4,0.3,0.7c0,0.3-0.1,0.5-0.2,0.7c-0.1,0.1-0.3,0.2-0.4,0.2c-0.1,0-0.2,0-0.3-0.1s-0.1-0.2-0.1-0.3c0-0.1,0-0.2,0-0.2
		c0-0.1,0.1-0.1,0.2-0.2c0.1-0.1,0.2-0.2,0.2-0.2v-0.1c0-0.1,0-0.2-0.1-0.2c-0.1-0.1-0.3-0.1-0.5-0.1c-0.4,0-0.8,0.1-1.2,0.4
		c-0.4,0.3-0.8,0.7-1,1.2c-0.3,0.7-0.5,1.3-0.5,2c0,0.4,0.1,0.8,0.4,1c0.2,0.3,0.6,0.4,1,0.4c0.3,0,0.6-0.1,1-0.2
		c0.3-0.2,0.7-0.5,1.1-0.9L-213.8,415.8z"/>
	<path id="XMLID_46_" class="st0" d="M-207.8,408.2l-1.8,6.2c0.8-1.2,1.4-1.9,1.8-2.3c0.4-0.4,0.8-0.6,1.2-0.6
		c0.2,0,0.4,0.1,0.5,0.2c0.1,0.1,0.2,0.3,0.2,0.6s-0.1,0.6-0.2,1l-0.8,2.7c-0.1,0.3-0.1,0.5-0.1,0.5c0,0.1,0,0.1,0.1,0.1l0.1,0.1
		c0.1,0,0.1,0,0.2-0.1c0.2-0.2,0.5-0.4,0.7-0.8l0.2,0.1c-0.1,0.2-0.3,0.5-0.6,0.7c-0.3,0.3-0.5,0.5-0.7,0.6s-0.3,0.2-0.5,0.2
		s-0.3,0-0.4-0.1c-0.1-0.1-0.1-0.2-0.1-0.4c0-0.2,0.1-0.5,0.2-1l0.7-2.5c0.1-0.3,0.1-0.6,0.1-0.7s0-0.2-0.1-0.2
		c-0.1,0-0.1-0.1-0.2-0.1c-0.1,0-0.3,0-0.4,0.1c-0.3,0.2-0.6,0.5-1,1c-0.1,0.1-0.4,0.7-1,1.6c-0.2,0.3-0.3,0.6-0.4,1l-0.4,1.3h-1
		l2.1-7.3l0.2-0.8c0-0.1,0-0.2-0.1-0.3c-0.1-0.1-0.2-0.1-0.3-0.1c-0.1,0-0.2,0-0.3,0h-0.1v-0.2L-207.8,408.2z"/>
	<path id="XMLID_48_" class="st0" d="M-192.5,412.7h2.6v0.2c-0.4,0.1-0.7,0.2-0.9,0.3c-0.2,0.2-0.5,0.5-0.8,0.9
		c-0.4,0.6-0.8,1.1-1,1.5c0.5,0.9,1,1.3,1.6,1.3c0.4,0,0.7-0.2,1-0.5h0.3c-0.3,0.3-0.5,0.6-0.8,0.8c-0.3,0.2-0.6,0.2-1,0.2
		s-0.8-0.1-1.1-0.2c-0.3-0.2-0.6-0.4-0.9-0.8c-0.5,0.4-0.9,0.6-1.3,0.8c-0.4,0.2-0.9,0.2-1.4,0.2c-0.8,0-1.4-0.2-1.8-0.6
		c-0.4-0.4-0.6-0.9-0.6-1.6c0-0.8,0.3-1.4,1-2c0.4-0.4,1.3-0.8,2.6-1.2c0-0.2,0-0.3,0-0.5c0-0.1,0-0.3,0-0.4c0-0.9,0.2-1.5,0.7-2
		s1-0.7,1.6-0.7c0.4,0,0.8,0.1,1,0.4c0.3,0.2,0.4,0.5,0.4,0.9c0,0.5-0.2,0.9-0.5,1.3c-0.4,0.4-1,0.8-2,1.1c0.3,1.3,0.7,2.3,1.1,3.2
		c0.7-0.8,1-1.4,1-1.9c0-0.1,0-0.2-0.1-0.3c-0.1-0.1-0.2-0.1-0.4-0.1v-0.3H-192.5z M-195.1,412.4c-0.8,0.3-1.4,0.7-1.8,1.1
		c-0.4,0.4-0.5,0.9-0.5,1.4s0.2,1,0.5,1.3c0.3,0.3,0.8,0.5,1.3,0.5c0.3,0,0.6,0,0.8-0.1c0.2-0.1,0.6-0.3,1-0.6
		c-0.3-0.4-0.5-1-0.8-1.7S-195,413.1-195.1,412.4z M-194.1,411.6c0.6-0.3,1.1-0.5,1.3-0.8c0.3-0.3,0.5-0.7,0.5-1.1
		c0-0.3-0.1-0.5-0.2-0.6c-0.1-0.2-0.3-0.2-0.6-0.2s-0.6,0.1-0.8,0.4s-0.3,0.7-0.3,1.3c0,0.1,0,0.3,0,0.5
		C-194.2,411.2-194.1,411.4-194.1,411.6z"/>
	<path id="XMLID_52_" class="st0" d="M-179.5,408.2l-1.8,6.2c0.8-1.2,1.4-1.9,1.8-2.3c0.4-0.4,0.8-0.6,1.2-0.6
		c0.2,0,0.4,0.1,0.5,0.2s0.2,0.3,0.2,0.6s-0.1,0.6-0.2,1l-0.8,2.7c-0.1,0.3-0.1,0.5-0.1,0.5c0,0.1,0,0.1,0.1,0.1l0.1,0.1
		c0.1,0,0.1,0,0.2-0.1c0.2-0.2,0.5-0.4,0.7-0.8l0.2,0.1c-0.1,0.2-0.3,0.5-0.6,0.7c-0.3,0.3-0.5,0.5-0.7,0.6s-0.3,0.2-0.5,0.2
		s-0.3,0-0.4-0.1c-0.1-0.1-0.1-0.2-0.1-0.4c0-0.2,0.1-0.5,0.2-1l0.7-2.5c0.1-0.3,0.1-0.6,0.1-0.7s0-0.2-0.1-0.2
		c-0.1-0.1-0.1-0.1-0.2-0.1c-0.1,0-0.3,0-0.4,0.1c-0.3,0.2-0.6,0.5-1,1c-0.1,0.1-0.4,0.7-1,1.6c-0.2,0.3-0.3,0.6-0.4,1l-0.4,1.3h-1
		l2.1-7.3l0.2-0.8c0-0.1,0-0.2-0.1-0.3c-0.1-0.1-0.2-0.1-0.3-0.1s-0.2,0-0.3,0h-0.1v-0.2L-179.5,408.2z"/>
	<path id="XMLID_54_" class="st0" d="M-169.5,413.5c0,0.6-0.2,1.3-0.5,1.9s-0.8,1.1-1.4,1.5c-0.6,0.4-1.2,0.5-1.8,0.5
		s-1.1-0.2-1.4-0.6c-0.4-0.4-0.5-0.8-0.5-1.4s0.2-1.2,0.5-1.9c0.3-0.7,0.8-1.1,1.4-1.5c0.6-0.4,1.2-0.5,1.7-0.5s1,0.2,1.4,0.6
		C-169.7,412.4-169.5,412.9-169.5,413.5z M-170.6,413c0-0.4-0.1-0.7-0.3-0.9c-0.2-0.2-0.4-0.3-0.7-0.3c-0.6,0-1.2,0.4-1.7,1.3
		c-0.5,0.9-0.8,1.8-0.8,2.7c0,0.4,0.1,0.7,0.3,0.9c0.2,0.2,0.5,0.3,0.8,0.3c0.6,0,1.2-0.4,1.7-1.3
		C-170.9,414.8-170.6,413.9-170.6,413z"/>
	<path id="XMLID_57_" class="st0" d="M-162.3,411.5l0.4,4.8c0.7-0.9,1.3-1.7,1.8-2.4c0.3-0.4,0.4-0.8,0.4-1c0-0.1,0-0.2-0.1-0.2
		c0,0-0.1-0.1-0.2-0.2c-0.1-0.1-0.2-0.2-0.2-0.2c0-0.1-0.1-0.2-0.1-0.3c0-0.1,0-0.2,0.1-0.3s0.2-0.1,0.4-0.1s0.3,0.1,0.4,0.2
		c0.1,0.1,0.2,0.3,0.2,0.5s0,0.4-0.1,0.6c-0.1,0.4-0.4,0.8-0.7,1.4c-0.4,0.7-0.9,1.3-1.4,1.9s-0.8,1-1.1,1.2h-0.2l-0.4-4.4l-2.6,4.4
		h-0.3c0-1.8-0.1-3.2-0.3-4.3c-0.1-0.4-0.2-0.7-0.3-0.9c-0.1-0.1-0.3-0.1-0.5-0.1c-0.1,0-0.3,0-0.5,0v-0.2l1.8-0.4
		c0.3,0.7,0.4,1.8,0.5,3.3c0,0.6,0,0.9,0.1,1l2.6-4.3H-162.3z"/>
	<path id="XMLID_59_" class="st0" d="M-149.4,408.2l-2.2,7.6c-0.1,0.4-0.2,0.6-0.2,0.7c0,0.1,0,0.1,0.1,0.2l0.1,0.1
		c0.1,0,0.2,0,0.3-0.1c0.2-0.2,0.5-0.4,0.7-0.8l0.2,0.2c-0.4,0.6-0.8,1-1.1,1.2c-0.2,0.2-0.5,0.2-0.7,0.2s-0.3-0.1-0.4-0.2
		c-0.1-0.1-0.2-0.2-0.2-0.4c0-0.2,0.1-0.5,0.2-0.9l1.7-6c0.1-0.5,0.2-0.8,0.2-0.8c0-0.1,0-0.2-0.1-0.2c-0.1-0.1-0.2-0.1-0.4-0.1
		c-0.1,0-0.2,0-0.4,0v-0.2L-149.4,408.2z"/>
	<path id="XMLID_61_" class="st0" d="M-142.3,413.5c0,0.6-0.2,1.3-0.5,1.9s-0.8,1.1-1.4,1.5c-0.6,0.4-1.2,0.5-1.8,0.5
		s-1.1-0.2-1.4-0.6c-0.4-0.4-0.5-0.8-0.5-1.4s0.2-1.2,0.5-1.9c0.4-0.6,0.8-1.1,1.4-1.5c0.6-0.4,1.2-0.5,1.7-0.5s1,0.2,1.4,0.6
		C-142.5,412.4-142.3,412.9-142.3,413.5z M-143.4,413c0-0.4-0.1-0.7-0.3-0.9c-0.2-0.2-0.4-0.3-0.7-0.3c-0.6,0-1.2,0.4-1.7,1.3
		c-0.5,0.9-0.8,1.8-0.8,2.7c0,0.4,0.1,0.7,0.3,0.9c0.2,0.2,0.5,0.3,0.8,0.3c0.6,0,1.2-0.4,1.7-1.3S-143.4,413.9-143.4,413z"/>
	<path id="XMLID_64_" class="st0" d="M-137.7,411.5l-0.8,2.9c0.8-1.2,1.4-2,1.8-2.3c0.4-0.3,0.8-0.6,1.2-0.6c0.2,0,0.4,0.1,0.5,0.2
		s0.2,0.3,0.2,0.5c0,0.3-0.1,0.6-0.2,1l-0.8,2.7c-0.1,0.3-0.1,0.5-0.1,0.6c0,0.1,0,0.1,0.1,0.2l0.1,0.1c0.1,0,0.1,0,0.2-0.1
		c0.2-0.2,0.5-0.4,0.7-0.8l0.2,0.1c-0.4,0.6-0.8,1-1.1,1.2c-0.2,0.2-0.5,0.2-0.7,0.2s-0.3,0-0.4-0.1c-0.1-0.1-0.1-0.2-0.1-0.4
		c0-0.2,0.1-0.6,0.2-1l0.7-2.6c0.1-0.3,0.1-0.6,0.1-0.7s0-0.2-0.1-0.2c-0.1-0.1-0.1-0.1-0.2-0.1c-0.1,0-0.3,0.1-0.4,0.2
		c-0.3,0.2-0.6,0.5-1,0.9c-0.3,0.4-0.7,1-1.1,1.7c-0.2,0.4-0.4,0.8-0.5,1.2l-0.3,1h-1l1.2-4c0.1-0.5,0.2-0.8,0.2-0.9
		c0-0.1,0-0.2-0.1-0.2c-0.1-0.1-0.2-0.1-0.3-0.1s-0.1,0-0.3,0h-0.2v-0.2L-137.7,411.5z"/>
	<path id="XMLID_66_" class="st0" d="M-125.9,411.9l-0.2,0.7h-1.1c0.1,0.2,0.1,0.4,0.1,0.6c0,0.6-0.2,1.1-0.7,1.5s-1.1,0.7-2,0.7
		c-0.4,0.1-0.8,0.3-1,0.5c-0.1,0.1-0.1,0.1-0.1,0.2c0,0.1,0,0.2,0.1,0.2s0.3,0.1,0.6,0.2l1.2,0.3c0.7,0.2,1.1,0.4,1.4,0.6
		c0.2,0.2,0.3,0.5,0.3,0.8s-0.1,0.7-0.4,1c-0.3,0.3-0.6,0.5-1.1,0.7c-0.5,0.2-1,0.2-1.6,0.2c-0.5,0-1-0.1-1.4-0.2
		c-0.4-0.1-0.7-0.3-0.9-0.5c-0.2-0.2-0.3-0.4-0.3-0.7c0-0.2,0.1-0.4,0.2-0.6c0.1-0.2,0.3-0.4,0.5-0.5c0.1-0.1,0.4-0.3,1-0.6
		c-0.2-0.2-0.3-0.3-0.3-0.5c0-0.2,0.1-0.3,0.3-0.5c0.2-0.2,0.5-0.4,1.1-0.6c-0.5-0.1-0.8-0.3-1.1-0.6s-0.4-0.6-0.4-1
		c0-0.6,0.3-1.1,0.8-1.6s1.2-0.7,2.1-0.7c0.3,0,0.6,0,0.8,0.1c0.2,0.1,0.4,0.2,0.6,0.3H-125.9z M-131.2,417.2
		c-0.3,0.2-0.6,0.4-0.8,0.6s-0.3,0.5-0.3,0.7c0,0.3,0.1,0.5,0.4,0.7c0.4,0.3,0.9,0.4,1.6,0.4c0.6,0,1.1-0.1,1.6-0.3
		c0.4-0.2,0.6-0.5,0.6-0.8c0-0.2-0.1-0.3-0.2-0.5c-0.2-0.1-0.5-0.3-0.9-0.4C-129.5,417.6-130.1,417.5-131.2,417.2z M-128.1,412.9
		c0-0.3-0.1-0.6-0.3-0.8c-0.2-0.2-0.4-0.3-0.7-0.3c-0.5,0-0.9,0.2-1.2,0.7s-0.5,1-0.5,1.5c0,0.3,0.1,0.6,0.3,0.8s0.4,0.3,0.7,0.3
		c0.2,0,0.4-0.1,0.7-0.2c0.2-0.1,0.4-0.3,0.5-0.5s0.3-0.5,0.3-0.8C-128.2,413.2-128.1,413-128.1,412.9z"/>
	<path id="XMLID_70_" class="st0" d="M-118.3,411.5c0.1,0.2,0.2,0.5,0.3,0.7c0.1,0.2,0.1,0.6,0.2,1.3l0.3,3.1
		c0.3-0.3,0.6-0.8,1.1-1.4c0.2-0.3,0.5-0.8,0.9-1.3c0.2-0.3,0.3-0.6,0.4-0.7c0-0.1,0-0.1,0-0.2v-0.1c0,0-0.1-0.1-0.2-0.1
		c-0.1,0-0.2-0.1-0.3-0.2c-0.1-0.1-0.1-0.2-0.1-0.4c0-0.2,0.1-0.3,0.2-0.4c0.1-0.1,0.2-0.2,0.4-0.2s0.3,0.1,0.5,0.2
		c0.1,0.2,0.2,0.4,0.2,0.6c0,0.3-0.1,0.7-0.3,1.1c-0.2,0.4-0.7,1.1-1.3,2c-0.7,0.9-1.4,1.9-2.4,2.9c-0.6,0.7-1.1,1.2-1.4,1.4
		c-0.3,0.2-0.6,0.3-0.8,0.3c-0.1,0-0.2-0.1-0.3-0.2s-0.1-0.2-0.1-0.3c0-0.2,0.1-0.3,0.2-0.5c0.1-0.1,0.3-0.2,0.4-0.2
		c0.1,0,0.2,0,0.2,0.1c0,0,0.1,0.1,0.1,0.2s0.1,0.2,0.1,0.2s0,0,0.1,0c0,0,0.1,0,0.1-0.1c0.2-0.1,0.5-0.4,0.8-0.7
		c0.4-0.4,0.7-0.8,0.9-1l-0.4-4c-0.1-0.7-0.1-1.1-0.3-1.2c-0.1-0.1-0.3-0.2-0.6-0.2c-0.1,0-0.2,0-0.5,0l-0.1-0.2L-118.3,411.5z"/>
	<path id="XMLID_72_" class="st0" d="M-107.3,413.5c0,0.6-0.2,1.3-0.5,1.9s-0.8,1.1-1.4,1.5c-0.6,0.4-1.2,0.5-1.8,0.5
		s-1.1-0.2-1.4-0.6c-0.4-0.4-0.5-0.8-0.5-1.4s0.2-1.2,0.5-1.9c0.3-0.7,0.8-1.1,1.4-1.5c0.6-0.4,1.2-0.5,1.7-0.5s1,0.2,1.4,0.6
		C-107.5,412.4-107.3,412.9-107.3,413.5z M-108.3,413c0-0.4-0.1-0.7-0.3-0.9c-0.2-0.2-0.4-0.3-0.7-0.3c-0.6,0-1.2,0.4-1.7,1.3
		c-0.5,0.9-0.8,1.8-0.8,2.7c0,0.4,0.1,0.7,0.3,0.9c0.2,0.2,0.5,0.3,0.8,0.3c0.6,0,1.2-0.4,1.7-1.3
		C-108.6,414.8-108.3,413.9-108.3,413z"/>
	<path id="XMLID_75_" class="st0" d="M-99.4,411.6l-1.1,3.8c-0.2,0.6-0.2,0.9-0.2,1.1c0,0.1,0,0.1,0,0.2l0.1,0.1
		c0.1,0,0.2,0,0.2-0.1c0.1-0.1,0.3-0.3,0.7-0.8l0.2,0.1c-0.3,0.5-0.7,0.9-1,1.2c-0.2,0.2-0.5,0.2-0.7,0.2s-0.3,0-0.4-0.1
		c-0.1-0.1-0.1-0.2-0.1-0.4c0-0.1,0-0.3,0.1-0.6c0.1-0.3,0.3-1,0.6-2c-0.7,1.2-1.3,2-1.8,2.4s-0.9,0.7-1.3,0.7
		c-0.2,0-0.4-0.1-0.5-0.2s-0.2-0.3-0.2-0.5c0-0.3,0.1-0.8,0.3-1.5l0.6-2c0.1-0.5,0.2-0.8,0.2-0.9c0-0.1,0-0.1-0.1-0.1l-0.1-0.1
		c-0.1,0-0.2,0-0.3,0.1s-0.3,0.3-0.6,0.7l-0.2-0.1c0.3-0.5,0.7-0.9,1-1.1c0.3-0.2,0.5-0.3,0.7-0.3s0.3,0,0.4,0.1
		c0.1,0.1,0.1,0.2,0.1,0.4c0,0.2-0.1,0.6-0.3,1.2l-0.6,2.1c-0.2,0.6-0.2,0.9-0.2,1.1c0,0.1,0,0.1,0.1,0.2s0.1,0.1,0.2,0.1
		c0.1,0,0.3-0.1,0.5-0.2c0.2-0.1,0.5-0.4,0.9-0.9s0.7-0.9,0.9-1.4c0.2-0.4,0.5-1.1,0.8-2l0.1-0.5H-99.4L-99.4,411.6z"/>
	<path id="XMLID_77_" class="st0" d="M-87.7,411.5l0.4,4.8c0.7-0.9,1.3-1.7,1.8-2.4c0.3-0.4,0.4-0.8,0.4-1c0-0.1,0-0.2-0.1-0.2
		c0,0-0.1-0.1-0.2-0.2c-0.1-0.1-0.2-0.2-0.2-0.2c0-0.1-0.1-0.2-0.1-0.3c0-0.1,0-0.2,0.1-0.3s0.2-0.1,0.4-0.1s0.3,0.1,0.4,0.2
		c0.1,0.1,0.2,0.3,0.2,0.5s0,0.4-0.1,0.6c-0.1,0.4-0.4,0.8-0.7,1.4c-0.4,0.7-0.9,1.3-1.4,1.9s-0.8,1-1.1,1.2h-0.2l-0.4-4.4l-2.6,4.4
		h-0.3c0-1.8-0.1-3.2-0.3-4.3c-0.1-0.4-0.2-0.7-0.3-0.9c-0.1-0.1-0.3-0.1-0.5-0.1c-0.1,0-0.3,0-0.5,0v-0.2l1.8-0.4
		c0.3,0.7,0.4,1.8,0.5,3.3c0,0.6,0,0.9,0.1,1l2.6-4.3H-87.7z"/>
	<path id="XMLID_79_" class="st0" d="M-77.1,411.5l-1.2,4.3l-0.1,0.6c0,0.1,0,0.1,0,0.1c0,0.1,0,0.1,0.1,0.2l0.1,0.1
		c0.1,0,0.1,0,0.2-0.1c0.2-0.1,0.4-0.4,0.7-0.8l0.2,0.2c-0.3,0.4-0.6,0.8-0.9,1c-0.3,0.2-0.6,0.3-0.9,0.3c-0.2,0-0.3,0-0.4-0.1
		c-0.1-0.1-0.1-0.2-0.1-0.4c0-0.2,0-0.5,0.1-0.8l0.1-0.5c-0.6,0.7-1.1,1.2-1.5,1.5c-0.3,0.2-0.7,0.3-1,0.3s-0.6-0.1-0.8-0.4
		c-0.2-0.3-0.3-0.6-0.3-1.1c0-0.7,0.2-1.4,0.6-2.1c0.4-0.7,0.9-1.3,1.5-1.8c0.5-0.4,0.9-0.5,1.4-0.5c0.3,0,0.5,0.1,0.6,0.2
		c0.2,0.1,0.3,0.4,0.4,0.7l0.2-0.7L-77.1,411.5z M-79.3,411.8c-0.3,0-0.6,0.1-0.9,0.4c-0.4,0.4-0.8,0.9-1.2,1.6
		c-0.3,0.7-0.5,1.3-0.5,1.9c0,0.3,0.1,0.5,0.2,0.7c0.1,0.2,0.3,0.2,0.5,0.2c0.5,0,1-0.3,1.5-1c0.7-0.9,1.1-1.8,1.1-2.8
		c0-0.4-0.1-0.6-0.2-0.8C-78.9,411.8-79.1,411.8-79.3,411.8z"/>
	<path id="XMLID_82_" class="st0" d="M-72.6,411.5l-0.8,2.9c0.8-1.2,1.4-2,1.8-2.3c0.4-0.4,0.8-0.6,1.2-0.6c0.2,0,0.4,0.1,0.5,0.2
		s0.2,0.3,0.2,0.5c0,0.3-0.1,0.6-0.2,1l-0.8,2.7c-0.1,0.3-0.1,0.5-0.1,0.6c0,0.1,0,0.1,0.1,0.2l0.1,0.1c0.1,0,0.1,0,0.2-0.1
		c0.2-0.2,0.5-0.4,0.7-0.8l0.2,0.1c-0.4,0.6-0.8,1-1.1,1.2c-0.2,0.2-0.5,0.2-0.7,0.2s-0.3,0-0.4-0.1c-0.1-0.1-0.1-0.2-0.1-0.4
		c0-0.2,0.1-0.6,0.2-1l0.7-2.6c0.1-0.3,0.1-0.6,0.1-0.7s0-0.2-0.1-0.2c-0.1-0.1-0.1-0.1-0.2-0.1s-0.3,0.1-0.4,0.2
		c-0.3,0.2-0.6,0.5-1,0.9c-0.3,0.4-0.7,1-1.1,1.7c-0.2,0.4-0.4,0.8-0.5,1.2l-0.3,1h-1l1.2-4c0.1-0.5,0.2-0.8,0.2-0.9
		c0-0.1,0-0.2-0.1-0.2c-0.1-0.1-0.2-0.1-0.3-0.1c-0.1,0-0.1,0-0.3,0h-0.2v-0.2L-72.6,411.5z"/>
	<path id="XMLID_84_" class="st0" d="M-64.2,409.9l-0.5,1.7h1l-0.1,0.4h-1l-1.1,3.7c-0.1,0.4-0.2,0.7-0.2,0.8c0,0.1,0,0.1,0.1,0.2
		l0.1,0.1c0.1,0,0.2-0.1,0.4-0.2c0.1-0.1,0.3-0.3,0.7-0.8l0.2,0.2c-0.4,0.6-0.8,1-1.1,1.2c-0.2,0.2-0.5,0.2-0.7,0.2
		s-0.3-0.1-0.5-0.2c-0.1-0.1-0.2-0.3-0.2-0.4c0-0.2,0.1-0.6,0.2-1l1.1-3.7h-1l0.1-0.2c0.5-0.1,0.9-0.3,1.2-0.6
		c0.3-0.3,0.7-0.7,1-1.3L-64.2,409.9L-64.2,409.9z"/>
	<path id="XMLID_86_" class="st0" d="M-54.7,409.9l-0.5,1.7h1l-0.1,0.4h-1l-1.1,3.7c-0.1,0.4-0.2,0.7-0.2,0.8c0,0.1,0,0.1,0.1,0.2
		l0.1,0.1c0.1,0,0.2-0.1,0.4-0.2c0.1-0.1,0.3-0.3,0.7-0.8l0.2,0.2c-0.4,0.6-0.8,1-1.1,1.2c-0.2,0.2-0.5,0.2-0.7,0.2
		s-0.3-0.1-0.5-0.2c-0.1-0.1-0.2-0.3-0.2-0.4c0-0.2,0.1-0.6,0.2-1l1.1-3.7h-1l0.1-0.2c0.5-0.1,0.9-0.3,1.2-0.6
		c0.3-0.3,0.7-0.7,1-1.3L-54.7,409.9L-54.7,409.9z"/>
	<path id="XMLID_88_" class="st0" d="M-47.2,413.5c0,0.6-0.2,1.3-0.5,1.9s-0.8,1.1-1.4,1.5s-1.2,0.5-1.8,0.5c-0.6,0-1.1-0.2-1.4-0.6
		c-0.4-0.4-0.5-0.8-0.5-1.4s0.2-1.2,0.5-1.9c0.3-0.7,0.8-1.1,1.4-1.5c0.6-0.4,1.2-0.5,1.7-0.5s1,0.2,1.4,0.6
		C-47.5,412.4-47.2,412.9-47.2,413.5z M-48.2,413c0-0.4-0.1-0.7-0.3-0.9c-0.2-0.2-0.4-0.3-0.7-0.3c-0.6,0-1.2,0.4-1.7,1.3
		c-0.5,0.9-0.8,1.8-0.8,2.7c0,0.4,0.1,0.7,0.3,0.9c0.2,0.2,0.5,0.3,0.8,0.3c0.6,0,1.2-0.4,1.7-1.3C-48.6,414.8-48.2,413.9-48.2,413z
		"/>
</g>
<g id="XMLID_166_">
	<rect id="XMLID_32_" x="-333" y="385.2" class="st1" width="356" height="1"/>
</g>
</svg>
