<?xml version="1.0" encoding="utf-8"?>
<!-- Generator: Adobe Illustrator 19.0.0, SVG Export Plug-In . SVG Version: 6.00 Build 0)  -->
<svg version="1.1" id="图层_1" xmlns="http://www.w3.org/2000/svg" xmlns:xlink="http://www.w3.org/1999/xlink" x="0px" y="0px"
	 viewBox="0 0 924 52" style="enable-background:new 0 0 924 52;" xml:space="preserve">
<style type="text/css">
	.st0{fill:#404040;}
</style>
<g id="XMLID_399_">
	<path id="XMLID_229_" class="st0" d="M76.2,19.6l0.2,0l-0.8,2.4h-7v-0.2H69c0.4,0,0.7-0.1,0.8-0.4c0.1-0.1,0.1-0.5,0.1-1v-5.8
		c0-0.6-0.1-0.9-0.2-1.1c-0.2-0.2-0.4-0.3-0.8-0.3h-0.3v-0.2h4.1v0.2c-0.5,0-0.8,0-1,0.1c-0.2,0.1-0.3,0.2-0.4,0.4
		c-0.1,0.1-0.1,0.5-0.1,1v5.6c0,0.4,0,0.6,0.1,0.8c0.1,0.1,0.1,0.2,0.2,0.2c0.1,0,0.5,0.1,1,0.1h0.7c0.7,0,1.2,0,1.5-0.2
		c0.3-0.1,0.5-0.3,0.8-0.5C75.7,20.5,75.9,20.1,76.2,19.6z"/>
	<path id="XMLID_231_" class="st0" d="M84.3,12.9c1.2,0,2.2,0.4,3,1.3c0.9,0.9,1.3,2,1.3,3.3c0,1.4-0.4,2.5-1.3,3.4
		c-0.9,0.9-1.9,1.4-3.1,1.4c-1.2,0-2.3-0.4-3.1-1.3c-0.8-0.9-1.3-2-1.3-3.4c0-1.4,0.5-2.6,1.5-3.5C82.2,13.3,83.2,12.9,84.3,12.9z
		 M84.2,13.3c-0.8,0-1.4,0.3-1.9,0.9c-0.6,0.7-0.9,1.8-0.9,3.3c0,1.5,0.3,2.6,0.9,3.4c0.5,0.6,1.1,0.9,1.9,0.9c0.8,0,1.5-0.3,2.1-1
		c0.5-0.7,0.8-1.7,0.8-3.1c0-1.5-0.3-2.7-0.9-3.4C85.7,13.7,85.1,13.3,84.2,13.3z"/>
	<path id="XMLID_234_" class="st0" d="M100.2,12.9l0.2,2.8h-0.2c-0.2-0.7-0.5-1.2-0.9-1.6c-0.5-0.5-1.2-0.8-2.1-0.8
		c-1.1,0-2,0.5-2.6,1.4c-0.5,0.8-0.7,1.7-0.7,2.7c0,0.9,0.2,1.6,0.5,2.3s0.8,1.2,1.3,1.6c0.5,0.3,1.1,0.5,1.7,0.5c0.3,0,0.7,0,1-0.1
		c0.3-0.1,0.6-0.2,0.9-0.4v-2.6c0-0.5,0-0.7-0.1-0.9c-0.1-0.1-0.2-0.2-0.3-0.3s-0.4-0.1-0.8-0.1v-0.3h3.5v0.3h-0.2
		c-0.3,0-0.6,0.1-0.7,0.3c-0.1,0.2-0.1,0.5-0.1,1v2.7c-0.5,0.3-1,0.5-1.5,0.6c-0.5,0.1-1,0.2-1.6,0.2c-1.7,0-3.1-0.6-4-1.7
		c-0.7-0.8-1-1.8-1-2.9c0-0.8,0.2-1.5,0.6-2.3c0.5-0.9,1.1-1.5,1.9-2c0.7-0.4,1.4-0.6,2.3-0.6c0.3,0,0.6,0,0.9,0.1
		c0.3,0.1,0.6,0.2,1.1,0.4c0.2,0.1,0.4,0.1,0.5,0.1s0.2,0,0.2-0.1s0.1-0.2,0.1-0.5H100.2z"/>
	<path id="XMLID_236_" class="st0" d="M109.4,12.9c1.2,0,2.2,0.4,3,1.3c0.9,0.9,1.3,2,1.3,3.3c0,1.4-0.4,2.5-1.3,3.4
		c-0.9,0.9-1.9,1.4-3.1,1.4c-1.2,0-2.3-0.4-3.1-1.3c-0.8-0.9-1.3-2-1.3-3.4c0-1.4,0.5-2.6,1.5-3.5C107.2,13.3,108.2,12.9,109.4,12.9
		z M109.2,13.3c-0.8,0-1.4,0.3-1.9,0.9c-0.6,0.7-0.9,1.8-0.9,3.3c0,1.5,0.3,2.6,0.9,3.4c0.5,0.6,1.1,0.9,1.9,0.9
		c0.8,0,1.5-0.3,2.1-1c0.5-0.7,0.8-1.7,0.8-3.1c0-1.5-0.3-2.7-0.9-3.4C110.8,13.7,110.1,13.3,109.2,13.3z"/>
	<path id="XMLID_239_" class="st0" d="M59.9,38.3v-0.2h0.3c0.4,0,0.6-0.1,0.8-0.4c0.1-0.1,0.1-0.5,0.1-1v-5.8c0-0.6-0.1-0.9-0.2-1.1
		c-0.2-0.2-0.4-0.3-0.8-0.3h-0.3v-0.2h3.7c1.3,0,2.4,0.2,3.1,0.5s1.3,0.8,1.7,1.5s0.6,1.5,0.6,2.5c0,1.2-0.4,2.3-1.1,3.1
		c-0.9,0.9-2.2,1.4-3.9,1.4H59.9z M62.4,37.7c0.6,0.1,1,0.2,1.4,0.2c1,0,1.9-0.4,2.5-1.1c0.7-0.7,1-1.7,1-2.9c0-1.2-0.3-2.2-1-2.9
		s-1.5-1.1-2.6-1.1c-0.4,0-0.9,0.1-1.4,0.2V37.7z"/>
	<path id="XMLID_242_" class="st0" d="M75,29.8v3.5h2c0.5,0,0.9-0.1,1-0.2c0.2-0.2,0.4-0.6,0.4-1.1h0.2v3.1h-0.2
		c-0.1-0.4-0.1-0.7-0.2-0.8c-0.1-0.2-0.2-0.3-0.4-0.4s-0.5-0.1-0.8-0.1h-2v3c0,0.4,0,0.6,0.1,0.7s0.1,0.2,0.2,0.2s0.3,0.1,0.5,0.1
		h1.5c0.5,0,0.9,0,1.1-0.1s0.5-0.2,0.7-0.4c0.3-0.3,0.6-0.7,0.8-1.2h0.3l-0.8,2.3h-6.9v-0.2h0.3c0.2,0,0.4-0.1,0.6-0.2
		c0.1-0.1,0.2-0.2,0.3-0.3c0.1-0.1,0.1-0.4,0.1-0.9v-5.8c0-0.6-0.1-0.9-0.2-1.1c-0.2-0.2-0.4-0.3-0.8-0.3h-0.3v-0.2h6.9l0.1,2h-0.3
		c-0.1-0.5-0.2-0.8-0.3-1c-0.1-0.2-0.3-0.3-0.5-0.4c-0.2-0.1-0.5-0.1-0.9-0.1H75z"/>
	<path id="XMLID_244_" class="st0" d="M89.4,29.1v3.1h-0.2c-0.1-0.6-0.2-1.1-0.4-1.4c-0.2-0.4-0.5-0.6-0.9-0.8s-0.8-0.3-1.2-0.3
		c-0.5,0-0.8,0.1-1.1,0.4c-0.3,0.3-0.5,0.6-0.5,1c0,0.3,0.1,0.5,0.3,0.7c0.3,0.3,0.9,0.8,2,1.3c0.8,0.5,1.4,0.8,1.7,1
		c0.3,0.2,0.5,0.5,0.7,0.9c0.2,0.3,0.2,0.7,0.2,1c0,0.7-0.3,1.3-0.8,1.8s-1.2,0.7-2,0.7c-0.3,0-0.5,0-0.7-0.1
		c-0.1,0-0.4-0.1-0.9-0.2S84.8,38,84.7,38c-0.1,0-0.2,0-0.3,0.1s-0.1,0.2-0.1,0.4h-0.2v-3.1h0.2c0.1,0.6,0.3,1.1,0.5,1.4
		s0.5,0.6,0.9,0.8c0.4,0.2,0.8,0.3,1.3,0.3c0.6,0,1-0.1,1.3-0.4s0.5-0.6,0.5-1c0-0.2-0.1-0.4-0.2-0.7c-0.1-0.2-0.3-0.4-0.6-0.6
		c-0.2-0.1-0.6-0.4-1.4-0.8c-0.8-0.4-1.3-0.8-1.6-1c-0.3-0.3-0.6-0.5-0.7-0.8c-0.2-0.3-0.3-0.6-0.3-1c0-0.6,0.2-1.2,0.7-1.7
		c0.5-0.5,1.1-0.7,1.9-0.7c0.5,0,1,0.1,1.5,0.4c0.2,0.1,0.4,0.2,0.5,0.2c0.1,0,0.2,0,0.3-0.1s0.1-0.2,0.2-0.4H89.4z"/>
	<path id="XMLID_246_" class="st0" d="M97.6,38.1v0.2h-3.8v-0.2h0.3c0.4,0,0.6-0.1,0.8-0.3c0.1-0.1,0.2-0.5,0.2-1v-5.8
		c0-0.5,0-0.8-0.1-0.9c0-0.1-0.1-0.2-0.3-0.3c-0.2-0.1-0.4-0.2-0.6-0.2h-0.3v-0.2h3.8v0.2h-0.3c-0.4,0-0.6,0.1-0.8,0.3
		c-0.1,0.1-0.2,0.5-0.2,1v5.8c0,0.5,0,0.8,0.1,0.9c0,0.1,0.1,0.2,0.3,0.3c0.2,0.1,0.4,0.2,0.6,0.2H97.6z"/>
	<path id="XMLID_248_" class="st0" d="M109,29.1l0.2,2.8H109c-0.2-0.7-0.5-1.2-0.9-1.6c-0.5-0.5-1.2-0.8-2.1-0.8
		c-1.1,0-2,0.5-2.6,1.4c-0.5,0.8-0.7,1.7-0.7,2.7c0,0.9,0.2,1.6,0.5,2.3s0.8,1.2,1.3,1.6c0.5,0.3,1.1,0.5,1.7,0.5c0.3,0,0.7,0,1-0.1
		c0.3-0.1,0.6-0.2,0.9-0.4V35c0-0.5,0-0.7-0.1-0.9c-0.1-0.1-0.2-0.2-0.3-0.3s-0.4-0.1-0.8-0.1v-0.3h3.5v0.3h-0.2
		c-0.3,0-0.6,0.1-0.7,0.3c-0.1,0.2-0.1,0.5-0.1,1v2.7c-0.5,0.3-1,0.5-1.5,0.6c-0.5,0.1-1,0.2-1.6,0.2c-1.7,0-3.1-0.6-4-1.7
		c-0.7-0.8-1-1.8-1-2.9c0-0.8,0.2-1.5,0.6-2.3c0.5-0.9,1.1-1.5,1.9-2c0.7-0.4,1.4-0.6,2.3-0.6c0.3,0,0.6,0,0.9,0.1
		c0.3,0.1,0.6,0.2,1.1,0.4c0.2,0.1,0.4,0.1,0.5,0.1s0.2,0,0.2-0.1s0.1-0.2,0.1-0.5H109z"/>
	<path id="XMLID_250_" class="st0" d="M113,29.3h2.4l5.5,6.7v-5.2c0-0.6-0.1-0.9-0.2-1c-0.2-0.2-0.4-0.3-0.8-0.3h-0.3v-0.2h3.1v0.2
		h-0.3c-0.4,0-0.6,0.1-0.8,0.3c-0.1,0.1-0.1,0.5-0.1,1v7.6h-0.2l-5.9-7.2v5.5c0,0.6,0.1,0.9,0.2,1c0.2,0.2,0.4,0.3,0.8,0.3h0.3v0.2
		h-3.1v-0.2h0.3c0.4,0,0.7-0.1,0.8-0.3c0.1-0.1,0.1-0.5,0.1-1v-6.2c-0.3-0.3-0.5-0.5-0.6-0.6c-0.1-0.1-0.3-0.2-0.6-0.3
		c-0.1,0-0.3-0.1-0.6-0.1V29.3z"/>
</g>
<g id="XMLID_48_">
	<path id="XMLID_206_" class="st0" d="M257,13.6v3.5h1.6c0.4,0,0.6-0.1,0.8-0.2c0.2-0.2,0.3-0.5,0.3-1h0.2v3h-0.2
		c0-0.3,0-0.6-0.1-0.8s-0.2-0.3-0.4-0.4c-0.2-0.1-0.4-0.1-0.7-0.1H257v2.8c0,0.5,0,0.8,0.1,0.9c0,0.1,0.1,0.2,0.3,0.3
		c0.2,0.1,0.4,0.2,0.6,0.2h0.3v0.2h-3.9v-0.2h0.3c0.4,0,0.6-0.1,0.8-0.3c0.1-0.1,0.2-0.5,0.2-1v-5.8c0-0.5,0-0.8-0.1-0.9
		c0-0.1-0.1-0.2-0.3-0.3c-0.2-0.1-0.4-0.2-0.6-0.2h-0.3v-0.2h6.7l0.1,2H261c-0.1-0.4-0.2-0.7-0.4-0.9c-0.2-0.2-0.3-0.3-0.6-0.4
		c-0.2-0.1-0.6-0.1-1-0.1H257z"/>
	<path id="XMLID_208_" class="st0" d="M269.5,12.9c1.2,0,2.2,0.4,3,1.3c0.9,0.9,1.3,2,1.3,3.3c0,1.4-0.4,2.5-1.3,3.4
		c-0.9,0.9-1.9,1.4-3.1,1.4c-1.2,0-2.3-0.4-3.1-1.3c-0.8-0.9-1.3-2-1.3-3.4c0-1.4,0.5-2.6,1.5-3.5C267.3,13.3,268.3,12.9,269.5,12.9
		z M269.4,13.3c-0.8,0-1.4,0.3-1.9,0.9c-0.6,0.7-0.9,1.8-0.9,3.3c0,1.5,0.3,2.6,0.9,3.4c0.5,0.6,1.1,0.9,1.9,0.9
		c0.8,0,1.5-0.3,2.1-1c0.5-0.7,0.8-1.7,0.8-3.1c0-1.5-0.3-2.7-0.9-3.4C270.9,13.7,270.2,13.3,269.4,13.3z"/>
	<path id="XMLID_212_" class="st0" d="M276.9,13.1h2.4l5.5,6.7v-5.2c0-0.6-0.1-0.9-0.2-1c-0.2-0.2-0.4-0.3-0.8-0.3h-0.3v-0.2h3.1
		v0.2h-0.3c-0.4,0-0.6,0.1-0.8,0.3c-0.1,0.1-0.1,0.5-0.1,1v7.6h-0.2l-5.9-7.2v5.5c0,0.6,0.1,0.9,0.2,1c0.2,0.2,0.4,0.3,0.8,0.3h0.3
		v0.2h-3.1v-0.2h0.3c0.4,0,0.7-0.1,0.8-0.3c0.1-0.1,0.1-0.5,0.1-1v-6.2c-0.3-0.3-0.5-0.5-0.6-0.6c-0.1-0.1-0.3-0.2-0.6-0.3
		c-0.1,0-0.3-0.1-0.6-0.1V13.1z"/>
	<path id="XMLID_214_" class="st0" d="M297.4,13.1l0.1,2.1h-0.3c0-0.4-0.1-0.6-0.2-0.8c-0.1-0.3-0.3-0.4-0.5-0.6
		c-0.2-0.1-0.5-0.2-0.9-0.2h-1.3v6.9c0,0.6,0.1,0.9,0.2,1c0.2,0.2,0.4,0.3,0.8,0.3h0.3v0.2h-3.8v-0.2h0.3c0.4,0,0.6-0.1,0.8-0.3
		c0.1-0.1,0.1-0.5,0.1-1v-6.9H292c-0.4,0-0.7,0-0.9,0.1c-0.2,0.1-0.4,0.2-0.6,0.5c-0.2,0.2-0.3,0.6-0.3,1H290l0.1-2.1H297.4z"/>
	<path id="XMLID_216_" class="st0" d="M244.5,38.3v-0.2h0.3c0.4,0,0.6-0.1,0.8-0.4c0.1-0.1,0.1-0.5,0.1-1v-5.8
		c0-0.6-0.1-0.9-0.2-1.1c-0.2-0.2-0.4-0.3-0.8-0.3h-0.3v-0.2h3.7c1.3,0,2.4,0.2,3.1,0.5s1.3,0.8,1.7,1.5s0.6,1.5,0.6,2.5
		c0,1.2-0.4,2.3-1.1,3.1c-0.9,0.9-2.2,1.4-3.9,1.4H244.5z M247.1,37.7c0.6,0.1,1,0.2,1.4,0.2c1,0,1.9-0.4,2.5-1.1s1-1.7,1-2.9
		c0-1.2-0.3-2.2-1-2.9c-0.7-0.7-1.5-1.1-2.6-1.1c-0.4,0-0.9,0.1-1.4,0.2V37.7z"/>
	<path id="XMLID_219_" class="st0" d="M259.6,29.8v3.6h2c0.5,0,0.9-0.1,1-0.2c0.2-0.2,0.4-0.6,0.4-1.1h0.2v3.1H263
		c-0.1-0.4-0.1-0.7-0.2-0.8c-0.1-0.2-0.2-0.3-0.4-0.4c-0.2-0.1-0.5-0.1-0.8-0.1h-2v3c0,0.4,0,0.6,0.1,0.7s0.1,0.2,0.2,0.2
		s0.3,0.1,0.5,0.1h1.5c0.5,0,0.9,0,1.1-0.1s0.5-0.2,0.7-0.4c0.3-0.3,0.6-0.7,0.8-1.2h0.3l-0.8,2.3h-6.9v-0.2h0.3
		c0.2,0,0.4-0.1,0.6-0.2c0.1-0.1,0.2-0.2,0.3-0.3s0.1-0.4,0.1-0.9v-5.8c0-0.6-0.1-0.9-0.2-1.1c-0.2-0.2-0.4-0.3-0.8-0.3h-0.3v-0.2
		h6.9l0.1,2h-0.3c-0.1-0.5-0.2-0.8-0.3-1c-0.1-0.2-0.3-0.3-0.5-0.4c-0.2-0.1-0.5-0.1-0.9-0.1H259.6z"/>
	<path id="XMLID_221_" class="st0" d="M274,29.1v3.1h-0.2c-0.1-0.6-0.2-1.1-0.4-1.4c-0.2-0.4-0.5-0.6-0.9-0.8
		c-0.4-0.2-0.8-0.3-1.2-0.3c-0.5,0-0.8,0.1-1.1,0.4c-0.3,0.3-0.5,0.6-0.5,1c0,0.3,0.1,0.5,0.3,0.7c0.3,0.3,0.9,0.8,2,1.3
		c0.8,0.5,1.4,0.8,1.7,1c0.3,0.2,0.5,0.5,0.7,0.9c0.2,0.3,0.2,0.7,0.2,1c0,0.7-0.3,1.3-0.8,1.8s-1.2,0.7-2,0.7c-0.3,0-0.5,0-0.7-0.1
		c-0.1,0-0.4-0.1-0.9-0.2c-0.4-0.1-0.7-0.2-0.8-0.2c-0.1,0-0.2,0-0.3,0.1s-0.1,0.2-0.1,0.4h-0.2v-3.1h0.2c0.1,0.6,0.3,1.1,0.5,1.4
		s0.5,0.6,0.9,0.8c0.4,0.2,0.8,0.3,1.3,0.3c0.6,0,1-0.1,1.3-0.4c0.3-0.3,0.5-0.6,0.5-1c0-0.2-0.1-0.4-0.2-0.7
		c-0.1-0.2-0.3-0.4-0.6-0.6c-0.2-0.1-0.6-0.4-1.4-0.8c-0.8-0.4-1.3-0.8-1.6-1c-0.3-0.3-0.6-0.5-0.7-0.8c-0.2-0.3-0.3-0.6-0.3-1
		c0-0.6,0.2-1.2,0.7-1.7c0.5-0.5,1.1-0.7,1.9-0.7c0.5,0,1,0.1,1.5,0.4c0.2,0.1,0.4,0.2,0.5,0.2c0.1,0,0.2,0,0.3-0.1s0.1-0.2,0.2-0.4
		H274z"/>
	<path id="XMLID_223_" class="st0" d="M282.2,38.1v0.2h-3.8v-0.2h0.3c0.4,0,0.6-0.1,0.8-0.3c0.1-0.1,0.2-0.5,0.2-1v-5.8
		c0-0.5,0-0.8-0.1-0.9c0-0.1-0.1-0.2-0.3-0.3c-0.2-0.1-0.4-0.2-0.6-0.2h-0.3v-0.2h3.8v0.2h-0.3c-0.4,0-0.6,0.1-0.8,0.3
		c-0.1,0.1-0.2,0.5-0.2,1v5.8c0,0.5,0,0.8,0.1,0.9c0,0.1,0.1,0.2,0.3,0.3c0.2,0.1,0.4,0.2,0.6,0.2H282.2z"/>
	<path id="XMLID_225_" class="st0" d="M293.6,29.1l0.2,2.8h-0.2c-0.2-0.7-0.5-1.2-0.9-1.6c-0.5-0.5-1.2-0.8-2.1-0.8
		c-1.1,0-2,0.5-2.6,1.4c-0.5,0.8-0.7,1.7-0.7,2.7c0,0.9,0.2,1.6,0.5,2.3c0.3,0.7,0.8,1.2,1.3,1.6c0.5,0.3,1.1,0.5,1.7,0.5
		c0.3,0,0.7,0,1-0.1c0.3-0.1,0.6-0.2,0.9-0.4V35c0-0.5,0-0.7-0.1-0.9c-0.1-0.1-0.2-0.2-0.3-0.3s-0.4-0.1-0.8-0.1v-0.3h3.5v0.3h-0.2
		c-0.3,0-0.6,0.1-0.7,0.3c-0.1,0.2-0.1,0.5-0.1,1v2.7c-0.5,0.3-1,0.5-1.5,0.6c-0.5,0.1-1,0.2-1.6,0.2c-1.7,0-3.1-0.6-4-1.7
		c-0.7-0.8-1-1.8-1-2.9c0-0.8,0.2-1.5,0.6-2.3c0.5-0.9,1.1-1.5,1.9-2c0.7-0.4,1.4-0.6,2.3-0.6c0.3,0,0.6,0,0.9,0.1
		c0.3,0.1,0.6,0.2,1.1,0.4c0.2,0.1,0.4,0.1,0.5,0.1s0.2,0,0.2-0.1s0.1-0.2,0.1-0.5H293.6z"/>
	<path id="XMLID_227_" class="st0" d="M297.6,29.3h2.4l5.5,6.7v-5.2c0-0.6-0.1-0.9-0.2-1c-0.2-0.2-0.4-0.3-0.8-0.3h-0.3v-0.2h3.1
		v0.2h-0.3c-0.4,0-0.6,0.1-0.8,0.3c-0.1,0.1-0.1,0.5-0.1,1v7.6h-0.2l-5.9-7.2v5.5c0,0.6,0.1,0.9,0.2,1c0.2,0.2,0.4,0.3,0.8,0.3h0.3
		v0.2h-3.1v-0.2h0.3c0.4,0,0.7-0.1,0.8-0.3c0.1-0.1,0.1-0.5,0.1-1v-6.2c-0.3-0.3-0.5-0.5-0.6-0.6c-0.1-0.1-0.3-0.2-0.6-0.3
		c-0.1,0-0.3-0.1-0.6-0.1V29.3z"/>
</g>
<g id="XMLID_47_">
	<path id="XMLID_169_" class="st0" d="M440.3,12.9l0.2,3.1h-0.2c-0.3-0.9-0.7-1.6-1.2-2c-0.5-0.4-1.1-0.6-1.8-0.6
		c-0.6,0-1.1,0.2-1.6,0.5c-0.5,0.3-0.9,0.8-1.1,1.4s-0.4,1.5-0.4,2.5c0,0.8,0.1,1.5,0.4,2.1c0.3,0.6,0.7,1.1,1.2,1.4
		c0.5,0.3,1.1,0.5,1.8,0.5c0.6,0,1.1-0.1,1.5-0.4c0.4-0.2,0.9-0.7,1.5-1.5l0.2,0.1c-0.5,0.8-1,1.4-1.6,1.8s-1.3,0.6-2.1,0.6
		c-1.5,0-2.6-0.6-3.5-1.7c-0.6-0.8-0.9-1.8-0.9-2.9c0-0.9,0.2-1.7,0.6-2.5c0.4-0.8,1-1.3,1.7-1.7c0.7-0.4,1.5-0.6,2.3-0.6
		c0.7,0,1.3,0.2,1.9,0.5c0.2,0.1,0.3,0.1,0.4,0.1c0.1,0,0.2,0,0.3-0.1c0.1-0.1,0.2-0.3,0.2-0.5H440.3z"/>
	<path id="XMLID_183_" class="st0" d="M448.9,12.9c1.2,0,2.2,0.4,3,1.3c0.9,0.9,1.3,2,1.3,3.3c0,1.4-0.4,2.5-1.3,3.4
		s-1.9,1.4-3.1,1.4c-1.2,0-2.3-0.4-3.1-1.3c-0.8-0.9-1.3-2-1.3-3.4c0-1.4,0.5-2.6,1.5-3.5C446.7,13.3,447.7,12.9,448.9,12.9z
		 M448.7,13.3c-0.8,0-1.4,0.3-1.9,0.9c-0.6,0.7-0.9,1.8-0.9,3.3c0,1.5,0.3,2.6,0.9,3.4c0.5,0.6,1.1,0.9,1.9,0.9c0.8,0,1.5-0.3,2.1-1
		c0.5-0.7,0.8-1.7,0.8-3.1c0-1.5-0.3-2.7-0.9-3.4C450.3,13.7,449.6,13.3,448.7,13.3z"/>
	<path id="XMLID_186_" class="st0" d="M464.2,19.6l0.2,0l-0.8,2.4h-7v-0.2h0.3c0.4,0,0.7-0.1,0.8-0.4c0.1-0.1,0.1-0.5,0.1-1v-5.8
		c0-0.6-0.1-0.9-0.2-1.1c-0.2-0.2-0.4-0.3-0.8-0.3h-0.3v-0.2h4.1v0.2c-0.5,0-0.8,0-1,0.1c-0.2,0.1-0.3,0.2-0.4,0.4
		c-0.1,0.1-0.1,0.5-0.1,1v5.6c0,0.4,0,0.6,0.1,0.8c0.1,0.1,0.1,0.2,0.2,0.2c0.1,0,0.5,0.1,1,0.1h0.7c0.7,0,1.2-0.1,1.5-0.2
		c0.3-0.1,0.5-0.3,0.8-0.5C463.7,20.5,464,20.1,464.2,19.6z"/>
	<path id="XMLID_188_" class="st0" d="M472.4,12.9c1.2,0,2.2,0.4,3,1.3c0.9,0.9,1.3,2,1.3,3.3c0,1.4-0.4,2.5-1.3,3.4
		s-1.9,1.4-3.1,1.4c-1.2,0-2.3-0.4-3.1-1.3c-0.8-0.9-1.3-2-1.3-3.4c0-1.4,0.5-2.6,1.5-3.5C470.2,13.3,471.2,12.9,472.4,12.9z
		 M472.2,13.3c-0.8,0-1.4,0.3-1.9,0.9c-0.6,0.7-0.9,1.8-0.9,3.3c0,1.5,0.3,2.6,0.9,3.4c0.5,0.6,1.1,0.9,1.9,0.9c0.8,0,1.5-0.3,2.1-1
		c0.5-0.7,0.8-1.7,0.8-3.1c0-1.5-0.3-2.7-0.9-3.4C473.8,13.7,473.1,13.3,472.2,13.3z"/>
	<path id="XMLID_191_" class="st0" d="M489.1,22.1h-2.4l-3-4.2c-0.2,0-0.4,0-0.5,0c-0.1,0-0.1,0-0.2,0c-0.1,0-0.1,0-0.2,0v2.6
		c0,0.6,0.1,0.9,0.2,1.1c0.2,0.2,0.4,0.3,0.8,0.3h0.4v0.2h-3.8v-0.2h0.3c0.4,0,0.7-0.1,0.8-0.4c0.1-0.1,0.1-0.5,0.1-1v-5.8
		c0-0.6-0.1-0.9-0.2-1.1c-0.2-0.2-0.4-0.3-0.8-0.3h-0.3v-0.2h3.3c1,0,1.7,0.1,2.1,0.2c0.5,0.1,0.8,0.4,1.2,0.8
		c0.3,0.4,0.5,0.8,0.5,1.3c0,0.6-0.2,1-0.5,1.4s-0.9,0.7-1.7,0.9l1.9,2.6c0.4,0.6,0.8,1,1.1,1.2c0.3,0.2,0.7,0.3,1.2,0.4V22.1z
		 M482.7,17.4c0.1,0,0.2,0,0.2,0c0.1,0,0.1,0,0.2,0c0.9,0,1.5-0.2,1.9-0.6c0.4-0.4,0.7-0.8,0.7-1.4c0-0.6-0.2-1-0.5-1.4
		c-0.4-0.4-0.8-0.5-1.4-0.5c-0.3,0-0.6,0-1,0.1V17.4z"/>
	<path id="XMLID_194_" class="st0" d="M433.2,29.1v3.1H433c-0.1-0.6-0.2-1.1-0.4-1.4s-0.5-0.6-0.9-0.8c-0.4-0.2-0.8-0.3-1.2-0.3
		c-0.5,0-0.8,0.1-1.1,0.4c-0.3,0.3-0.5,0.6-0.5,1c0,0.3,0.1,0.5,0.3,0.7c0.3,0.3,0.9,0.8,2,1.3c0.8,0.5,1.4,0.8,1.7,1
		c0.3,0.2,0.5,0.5,0.7,0.9c0.2,0.3,0.2,0.7,0.2,1c0,0.7-0.3,1.3-0.8,1.8s-1.2,0.7-2,0.7c-0.3,0-0.5,0-0.7-0.1
		c-0.1,0-0.4-0.1-0.9-0.2c-0.4-0.1-0.7-0.2-0.8-0.2c-0.1,0-0.2,0-0.3,0.1c-0.1,0.1-0.1,0.2-0.1,0.4H428v-3.1h0.2
		c0.1,0.6,0.3,1.1,0.5,1.4c0.2,0.3,0.5,0.6,0.9,0.8c0.4,0.2,0.8,0.3,1.3,0.3c0.6,0,1-0.1,1.3-0.4c0.3-0.3,0.5-0.6,0.5-1
		c0-0.2-0.1-0.4-0.2-0.7c-0.1-0.2-0.3-0.4-0.6-0.6c-0.2-0.1-0.6-0.4-1.4-0.8c-0.8-0.4-1.3-0.8-1.6-1s-0.6-0.5-0.7-0.8
		c-0.2-0.3-0.3-0.6-0.3-1c0-0.6,0.2-1.2,0.7-1.7c0.5-0.5,1.1-0.7,1.9-0.7c0.5,0,1,0.1,1.5,0.4c0.2,0.1,0.4,0.2,0.5,0.2
		c0.1,0,0.2,0,0.3-0.1c0.1-0.1,0.1-0.2,0.2-0.4H433.2z"/>
	<path id="XMLID_196_" class="st0" d="M443.7,29.3h3.1v0.2h-0.2c-0.1,0-0.3,0.1-0.5,0.2s-0.4,0.2-0.6,0.4s-0.4,0.5-0.7,0.9l-2.2,3.4
		v2.3c0,0.6,0.1,0.9,0.2,1c0.2,0.2,0.4,0.3,0.8,0.3h0.3v0.2h-3.8v-0.2h0.3c0.4,0,0.6-0.1,0.8-0.3c0.1-0.1,0.1-0.5,0.1-1v-2.1
		l-2.5-3.8c-0.3-0.4-0.5-0.7-0.6-0.8s-0.3-0.2-0.6-0.4c-0.1,0-0.2-0.1-0.4-0.1v-0.2h3.8v0.2H441c-0.2,0-0.4,0-0.6,0.1
		c-0.2,0.1-0.3,0.2-0.3,0.4c0,0.2,0.1,0.4,0.4,0.9l1.9,2.9l1.8-2.8c0.3-0.4,0.4-0.7,0.4-0.9c0-0.1,0-0.2-0.1-0.3
		c-0.1-0.1-0.2-0.2-0.3-0.2c-0.1-0.1-0.3-0.1-0.5-0.1V29.3z"/>
	<path id="XMLID_198_" class="st0" d="M456,29.1v3.1h-0.2c-0.1-0.6-0.2-1.1-0.4-1.4s-0.5-0.6-0.9-0.8c-0.4-0.2-0.8-0.3-1.2-0.3
		c-0.5,0-0.8,0.1-1.1,0.4c-0.3,0.3-0.5,0.6-0.5,1c0,0.3,0.1,0.5,0.3,0.7c0.3,0.3,0.9,0.8,2,1.3c0.8,0.5,1.4,0.8,1.7,1
		c0.3,0.2,0.5,0.5,0.7,0.9c0.2,0.3,0.2,0.7,0.2,1c0,0.7-0.3,1.3-0.8,1.8s-1.2,0.7-2,0.7c-0.3,0-0.5,0-0.7-0.1
		c-0.1,0-0.4-0.1-0.9-0.2c-0.4-0.1-0.7-0.2-0.8-0.2c-0.1,0-0.2,0-0.3,0.1c-0.1,0.1-0.1,0.2-0.1,0.4h-0.2v-3.1h0.2
		c0.1,0.6,0.3,1.1,0.5,1.4c0.2,0.3,0.5,0.6,0.9,0.8c0.4,0.2,0.8,0.3,1.3,0.3c0.6,0,1-0.1,1.3-0.4c0.3-0.3,0.5-0.6,0.5-1
		c0-0.2-0.1-0.4-0.2-0.7c-0.1-0.2-0.3-0.4-0.6-0.6c-0.2-0.1-0.6-0.4-1.4-0.8c-0.8-0.4-1.3-0.8-1.6-1s-0.6-0.5-0.7-0.8
		c-0.2-0.3-0.3-0.6-0.3-1c0-0.6,0.2-1.2,0.7-1.7c0.5-0.5,1.1-0.7,1.9-0.7c0.5,0,1,0.1,1.5,0.4c0.2,0.1,0.4,0.2,0.5,0.2
		c0.1,0,0.2,0,0.3-0.1c0.1-0.1,0.1-0.2,0.2-0.4H456z"/>
	<path id="XMLID_200_" class="st0" d="M467.9,29.3l0.1,2.1h-0.3c0-0.4-0.1-0.6-0.2-0.8c-0.1-0.3-0.3-0.4-0.5-0.6
		c-0.2-0.1-0.5-0.2-0.9-0.2h-1.3v6.9c0,0.6,0.1,0.9,0.2,1c0.2,0.2,0.4,0.3,0.8,0.3h0.3v0.2h-3.8v-0.2h0.3c0.4,0,0.6-0.1,0.8-0.3
		c0.1-0.1,0.1-0.5,0.1-1v-6.9h-1.1c-0.4,0-0.7,0-0.9,0.1c-0.2,0.1-0.4,0.2-0.6,0.5c-0.2,0.2-0.3,0.6-0.3,1h-0.3l0.1-2.1H467.9z"/>
	<path id="XMLID_202_" class="st0" d="M473.9,29.8v3.6h2c0.5,0,0.9-0.1,1-0.2c0.2-0.2,0.4-0.6,0.4-1.1h0.2v3.1h-0.2
		c-0.1-0.4-0.1-0.7-0.2-0.8c-0.1-0.2-0.2-0.3-0.4-0.4c-0.2-0.1-0.5-0.1-0.8-0.1h-2v3c0,0.4,0,0.6,0.1,0.7s0.1,0.2,0.2,0.2
		c0.1,0.1,0.3,0.1,0.5,0.1h1.5c0.5,0,0.9,0,1.1-0.1c0.2-0.1,0.5-0.2,0.7-0.4c0.3-0.3,0.6-0.7,0.8-1.2h0.3l-0.8,2.3h-6.9v-0.2h0.3
		c0.2,0,0.4-0.1,0.6-0.2c0.1-0.1,0.2-0.2,0.3-0.3s0.1-0.4,0.1-0.9v-5.8c0-0.6-0.1-0.9-0.2-1.1c-0.2-0.2-0.4-0.3-0.8-0.3h-0.3v-0.2
		h6.9l0.1,2h-0.3c-0.1-0.5-0.2-0.8-0.3-1c-0.1-0.2-0.3-0.3-0.5-0.4c-0.2-0.1-0.5-0.1-0.9-0.1H473.9z"/>
	<path id="XMLID_204_" class="st0" d="M487.6,38.3l-3.5-7.6v6c0,0.6,0.1,0.9,0.2,1c0.2,0.2,0.4,0.3,0.8,0.3h0.3v0.2h-3.1v-0.2h0.3
		c0.4,0,0.6-0.1,0.8-0.3c0.1-0.1,0.1-0.5,0.1-1v-5.9c0-0.4,0-0.7-0.1-0.9c-0.1-0.1-0.2-0.2-0.3-0.3c-0.2-0.1-0.4-0.1-0.8-0.1v-0.2
		h2.5l3.3,7l3.2-7h2.5v0.2h-0.3c-0.4,0-0.7,0.1-0.8,0.3c-0.1,0.1-0.1,0.5-0.1,1v5.9c0,0.6,0.1,0.9,0.2,1c0.2,0.2,0.4,0.3,0.8,0.3
		h0.3v0.2H490v-0.2h0.3c0.4,0,0.7-0.1,0.8-0.3c0.1-0.1,0.1-0.5,0.1-1v-6l-3.5,7.6H487.6z"/>
</g>
<g id="XMLID_46_">
	<path id="XMLID_108_" class="st0" d="M634,19h-3.5l-0.6,1.4c-0.1,0.3-0.2,0.6-0.2,0.8c0,0.1,0.1,0.3,0.2,0.4
		c0.1,0.1,0.4,0.2,0.8,0.2v0.2h-2.8v-0.2c0.4-0.1,0.6-0.2,0.7-0.3c0.2-0.2,0.5-0.6,0.7-1.3l3.2-7.4h0.2l3.1,7.5
		c0.3,0.6,0.5,1,0.7,1.2c0.2,0.2,0.5,0.3,0.9,0.3v0.2h-3.5v-0.2c0.4,0,0.6-0.1,0.7-0.2s0.2-0.2,0.2-0.4c0-0.2-0.1-0.5-0.3-0.9
		L634,19z M633.8,18.6l-1.5-3.6l-1.6,3.6H633.8z"/>
	<path id="XMLID_123_" class="st0" d="M646.8,13.3v-0.2h3.2v0.2h-0.3c-0.4,0-0.6,0.1-0.8,0.4c-0.1,0.1-0.1,0.5-0.1,1v3.6
		c0,0.9-0.1,1.6-0.3,2.1c-0.2,0.5-0.5,0.9-1.1,1.3s-1.2,0.5-2.1,0.5c-1,0-1.7-0.2-2.2-0.5s-0.9-0.8-1.1-1.4
		c-0.1-0.4-0.2-1.1-0.2-2.2v-3.5c0-0.6-0.1-0.9-0.2-1.1s-0.4-0.3-0.7-0.3h-0.3v-0.2h3.9v0.2h-0.3c-0.4,0-0.6,0.1-0.8,0.4
		c-0.1,0.2-0.2,0.5-0.2,1v3.9c0,0.3,0,0.7,0.1,1.2c0.1,0.5,0.2,0.8,0.3,1.1c0.2,0.3,0.4,0.5,0.7,0.6s0.7,0.2,1.2,0.2
		c0.6,0,1.1-0.1,1.6-0.4c0.5-0.3,0.8-0.6,1-1c0.2-0.4,0.3-1.1,0.3-2v-3.6c0-0.6-0.1-0.9-0.2-1.1c-0.2-0.2-0.4-0.3-0.8-0.3H646.8z"/>
	<path id="XMLID_125_" class="st0" d="M658.3,17.1l1.9,2.9c0.5,0.8,0.9,1.3,1.2,1.5c0.3,0.2,0.6,0.3,1,0.3v0.2h-3.9v-0.2
		c0.3,0,0.4,0,0.6-0.1c0.1,0,0.2-0.1,0.2-0.2c0.1-0.1,0.1-0.2,0.1-0.2c0-0.1,0-0.2-0.1-0.3c0-0.1-0.2-0.3-0.4-0.6l-1.5-2.3l-1.9,2.4
		c-0.2,0.3-0.3,0.4-0.4,0.5c0,0.1-0.1,0.2-0.1,0.3c0,0.1,0.1,0.3,0.2,0.4c0.1,0.1,0.3,0.1,0.7,0.2v0.2h-3.2v-0.2
		c0.2,0,0.4-0.1,0.6-0.1c0.3-0.1,0.5-0.3,0.8-0.5s0.5-0.5,0.8-0.9l2.1-2.7l-1.8-2.6c-0.5-0.7-0.9-1.2-1.2-1.4
		c-0.3-0.2-0.7-0.3-1.2-0.3v-0.2h4.2v0.2c-0.4,0-0.6,0.1-0.7,0.2c-0.1,0.1-0.2,0.2-0.2,0.3c0,0.2,0.1,0.4,0.3,0.7l1.4,2.1l1.6-2
		c0.2-0.2,0.3-0.4,0.3-0.5s0.1-0.2,0.1-0.3s0-0.2-0.1-0.2c-0.1-0.1-0.2-0.2-0.3-0.2c-0.1,0-0.3-0.1-0.6-0.1v-0.2h3.2v0.2
		c-0.3,0-0.5,0.1-0.6,0.1c-0.2,0.1-0.5,0.2-0.7,0.4c-0.2,0.2-0.5,0.5-0.8,1L658.3,17.1z"/>
	<path id="XMLID_127_" class="st0" d="M615.6,29.1l0.2,2.8h-0.2c-0.2-0.7-0.5-1.2-0.9-1.6c-0.5-0.5-1.2-0.8-2.1-0.8
		c-1.1,0-2,0.5-2.6,1.4c-0.5,0.8-0.7,1.7-0.7,2.7c0,0.9,0.2,1.6,0.5,2.3c0.3,0.7,0.8,1.2,1.3,1.6c0.5,0.3,1.1,0.5,1.7,0.5
		c0.3,0,0.7,0,1-0.1c0.3-0.1,0.6-0.2,0.9-0.4V35c0-0.5,0-0.7-0.1-0.9c-0.1-0.1-0.2-0.2-0.3-0.3s-0.4-0.1-0.8-0.1v-0.3h3.5v0.3h-0.2
		c-0.3,0-0.6,0.1-0.7,0.3c-0.1,0.2-0.1,0.5-0.1,1v2.7c-0.5,0.3-1,0.5-1.5,0.6c-0.5,0.1-1,0.2-1.6,0.2c-1.7,0-3.1-0.6-4-1.7
		c-0.7-0.8-1-1.8-1-2.9c0-0.8,0.2-1.5,0.6-2.3c0.5-0.9,1.1-1.5,1.9-2c0.7-0.4,1.4-0.6,2.3-0.6c0.3,0,0.6,0,0.9,0.1
		c0.3,0.1,0.6,0.2,1.1,0.4c0.2,0.1,0.4,0.1,0.5,0.1s0.2,0,0.2-0.1c0.1-0.1,0.1-0.2,0.1-0.5H615.6z"/>
	<path id="XMLID_129_" class="st0" d="M629,38.3h-2.4l-3-4.2c-0.2,0-0.4,0-0.5,0c-0.1,0-0.1,0-0.2,0c-0.1,0-0.1,0-0.2,0v2.6
		c0,0.6,0.1,0.9,0.2,1.1c0.2,0.2,0.4,0.3,0.8,0.3h0.4v0.2H620v-0.2h0.3c0.4,0,0.7-0.1,0.8-0.4c0.1-0.1,0.1-0.5,0.1-1v-5.8
		c0-0.6-0.1-0.9-0.2-1.1c-0.2-0.2-0.4-0.3-0.8-0.3H620v-0.2h3.3c1,0,1.7,0.1,2.1,0.2c0.5,0.1,0.8,0.4,1.2,0.8s0.5,0.8,0.5,1.3
		c0,0.6-0.2,1-0.5,1.4c-0.4,0.4-0.9,0.7-1.7,0.9l1.9,2.6c0.4,0.6,0.8,1,1.1,1.2c0.3,0.2,0.7,0.3,1.2,0.4V38.3z M622.6,33.7
		c0.1,0,0.2,0,0.2,0c0.1,0,0.1,0,0.2,0c0.9,0,1.5-0.2,1.9-0.6s0.7-0.8,0.7-1.4c0-0.6-0.2-1-0.5-1.4c-0.4-0.4-0.8-0.5-1.4-0.5
		c-0.3,0-0.6,0-1,0.1V33.7z"/>
	<path id="XMLID_132_" class="st0" d="M637.8,35.3h-3.5l-0.6,1.4c-0.1,0.3-0.2,0.6-0.2,0.8c0,0.1,0.1,0.3,0.2,0.4
		c0.1,0.1,0.4,0.2,0.8,0.2v0.2h-2.8v-0.2c0.4-0.1,0.6-0.2,0.7-0.3c0.2-0.2,0.5-0.6,0.7-1.3l3.2-7.4h0.2l3.1,7.5
		c0.3,0.6,0.5,1,0.7,1.2c0.2,0.2,0.5,0.3,0.9,0.3v0.2h-3.5v-0.2c0.4,0,0.6-0.1,0.7-0.2s0.2-0.2,0.2-0.4c0-0.2-0.1-0.5-0.3-0.9
		L637.8,35.3z M637.6,34.8l-1.5-3.6l-1.6,3.6H637.6z"/>
	<path id="XMLID_160_" class="st0" d="M646.8,34.1v2.6c0,0.6,0.1,0.9,0.2,1.1c0.2,0.2,0.4,0.3,0.8,0.3h0.3v0.2h-3.8v-0.2h0.3
		c0.4,0,0.7-0.1,0.8-0.4c0.1-0.1,0.1-0.5,0.1-1v-5.8c0-0.6-0.1-0.9-0.2-1.1c-0.2-0.2-0.4-0.3-0.8-0.3h-0.3v-0.2h3.3
		c0.8,0,1.4,0.1,1.9,0.2c0.5,0.2,0.9,0.4,1.2,0.8c0.3,0.4,0.5,0.9,0.5,1.4c0,0.7-0.2,1.3-0.7,1.8s-1.2,0.7-2,0.7c-0.2,0-0.5,0-0.7,0
		S647.1,34.2,646.8,34.1z M646.8,33.7c0.2,0,0.4,0.1,0.6,0.1c0.2,0,0.3,0,0.5,0c0.5,0,0.9-0.2,1.2-0.5c0.3-0.4,0.5-0.8,0.5-1.4
		c0-0.4-0.1-0.7-0.2-1.1c-0.2-0.3-0.4-0.6-0.7-0.7c-0.3-0.2-0.6-0.2-1-0.2c-0.2,0-0.5,0-0.9,0.1V33.7z"/>
	<path id="XMLID_163_" class="st0" d="M657.1,33.5h4.2v-2.6c0-0.5,0-0.8-0.1-0.9c0-0.1-0.1-0.2-0.3-0.3c-0.2-0.1-0.4-0.2-0.6-0.2
		H660v-0.2h3.8v0.2h-0.3c-0.2,0-0.4,0.1-0.6,0.2c-0.1,0.1-0.2,0.2-0.3,0.3s-0.1,0.4-0.1,0.9v5.8c0,0.5,0,0.8,0.1,0.9
		c0,0.1,0.1,0.2,0.3,0.3c0.2,0.1,0.4,0.2,0.6,0.2h0.3v0.2H660v-0.2h0.3c0.4,0,0.6-0.1,0.8-0.3c0.1-0.1,0.2-0.5,0.2-1V34h-4.2v2.7
		c0,0.5,0,0.8,0.1,0.9c0,0.1,0.1,0.2,0.3,0.3c0.2,0.1,0.4,0.2,0.6,0.2h0.3v0.2h-3.8v-0.2h0.3c0.4,0,0.6-0.1,0.8-0.3
		c0.1-0.1,0.2-0.5,0.2-1v-5.8c0-0.5,0-0.8-0.1-0.9c0-0.1-0.1-0.2-0.3-0.3c-0.2-0.1-0.4-0.2-0.6-0.2h-0.3v-0.2h3.8v0.2h-0.3
		c-0.2,0-0.4,0.1-0.6,0.2c-0.1,0.1-0.2,0.2-0.3,0.3c-0.1,0.1-0.1,0.4-0.1,0.9V33.5z"/>
	<path id="XMLID_165_" class="st0" d="M671,38.1v0.2h-3.8v-0.2h0.3c0.4,0,0.6-0.1,0.8-0.3c0.1-0.1,0.2-0.5,0.2-1v-5.8
		c0-0.5,0-0.8-0.1-0.9c0-0.1-0.1-0.2-0.3-0.3c-0.2-0.1-0.4-0.2-0.6-0.2h-0.3v-0.2h3.8v0.2h-0.3c-0.4,0-0.6,0.1-0.8,0.3
		c-0.1,0.1-0.2,0.5-0.2,1v5.8c0,0.5,0,0.8,0.1,0.9c0,0.1,0.1,0.2,0.3,0.3c0.2,0.1,0.4,0.2,0.6,0.2H671z"/>
	<path id="XMLID_167_" class="st0" d="M682.2,29.1l0.2,3.1h-0.2c-0.3-0.9-0.7-1.6-1.2-2c-0.5-0.4-1.1-0.6-1.8-0.6
		c-0.6,0-1.1,0.2-1.6,0.5s-0.9,0.8-1.1,1.4c-0.3,0.7-0.4,1.5-0.4,2.5c0,0.8,0.1,1.5,0.4,2.1c0.3,0.6,0.7,1.1,1.2,1.4
		c0.5,0.3,1.1,0.5,1.8,0.5c0.6,0,1.1-0.1,1.5-0.4c0.4-0.2,0.9-0.7,1.5-1.5l0.2,0.1c-0.5,0.8-1,1.4-1.6,1.8s-1.3,0.6-2.1,0.6
		c-1.5,0-2.6-0.6-3.5-1.7c-0.6-0.8-0.9-1.8-0.9-2.9c0-0.9,0.2-1.7,0.6-2.5c0.4-0.8,1-1.3,1.7-1.7c0.7-0.4,1.5-0.6,2.3-0.6
		c0.6,0,1.3,0.2,1.9,0.5c0.2,0.1,0.3,0.1,0.4,0.1c0.1,0,0.2,0,0.3-0.1c0.1-0.1,0.2-0.3,0.2-0.5H682.2z"/>
</g>
<g id="XMLID_45_">
	<path id="XMLID_68_" class="st0" d="M791.1,19h-3.5l-0.6,1.4c-0.1,0.3-0.2,0.6-0.2,0.8c0,0.1,0.1,0.3,0.2,0.4
		c0.1,0.1,0.4,0.2,0.8,0.2v0.2H785v-0.2c0.4-0.1,0.6-0.2,0.7-0.3c0.2-0.2,0.5-0.6,0.7-1.3l3.2-7.4h0.2l3.1,7.5
		c0.3,0.6,0.5,1,0.7,1.2c0.2,0.2,0.5,0.3,0.9,0.3v0.2H791v-0.2c0.4,0,0.6-0.1,0.7-0.2s0.2-0.2,0.2-0.4c0-0.2-0.1-0.5-0.3-0.9
		L791.1,19z M790.9,18.6l-1.5-3.6l-1.6,3.6H790.9z"/>
	<path id="XMLID_71_" class="st0" d="M803.6,12.9V16h-0.2c-0.1-0.6-0.2-1.1-0.4-1.4s-0.5-0.6-0.9-0.8c-0.4-0.2-0.8-0.3-1.2-0.3
		c-0.5,0-0.8,0.1-1.1,0.4c-0.3,0.3-0.5,0.6-0.5,1c0,0.3,0.1,0.5,0.3,0.7c0.3,0.3,0.9,0.8,2,1.3c0.8,0.5,1.4,0.8,1.7,1
		c0.3,0.2,0.5,0.5,0.7,0.9c0.2,0.3,0.2,0.7,0.2,1c0,0.7-0.3,1.3-0.8,1.8c-0.5,0.5-1.2,0.7-2,0.7c-0.3,0-0.5,0-0.7-0.1
		c-0.1,0-0.4-0.1-0.9-0.2c-0.4-0.1-0.7-0.2-0.8-0.2c-0.1,0-0.2,0-0.3,0.1s-0.1,0.2-0.1,0.4h-0.2v-3.1h0.2c0.1,0.6,0.3,1.1,0.5,1.4
		s0.5,0.6,0.9,0.8s0.8,0.3,1.3,0.3c0.6,0,1-0.1,1.3-0.4c0.3-0.3,0.5-0.6,0.5-1c0-0.2-0.1-0.4-0.2-0.7c-0.1-0.2-0.3-0.4-0.6-0.6
		c-0.2-0.1-0.6-0.4-1.4-0.8c-0.8-0.4-1.3-0.8-1.6-1s-0.6-0.5-0.7-0.8s-0.3-0.6-0.3-1c0-0.6,0.2-1.2,0.7-1.7c0.5-0.5,1.1-0.7,1.9-0.7
		c0.5,0,1,0.1,1.5,0.4c0.2,0.1,0.4,0.2,0.5,0.2c0.1,0,0.2,0,0.3-0.1s0.1-0.2,0.2-0.4H803.6z"/>
	<path id="XMLID_73_" class="st0" d="M813.9,12.9V16h-0.2c-0.1-0.6-0.2-1.1-0.4-1.4s-0.5-0.6-0.9-0.8c-0.4-0.2-0.8-0.3-1.2-0.3
		c-0.5,0-0.8,0.1-1.1,0.4c-0.3,0.3-0.5,0.6-0.5,1c0,0.3,0.1,0.5,0.3,0.7c0.3,0.3,0.9,0.8,2,1.3c0.8,0.5,1.4,0.8,1.7,1
		c0.3,0.2,0.5,0.5,0.7,0.9c0.2,0.3,0.2,0.7,0.2,1c0,0.7-0.3,1.3-0.8,1.8c-0.5,0.5-1.2,0.7-2,0.7c-0.3,0-0.5,0-0.7-0.1
		c-0.1,0-0.4-0.1-0.9-0.2c-0.4-0.1-0.7-0.2-0.8-0.2c-0.1,0-0.2,0-0.3,0.1s-0.1,0.2-0.1,0.4h-0.2v-3.1h0.2c0.1,0.6,0.3,1.1,0.5,1.4
		s0.5,0.6,0.9,0.8s0.8,0.3,1.3,0.3c0.6,0,1-0.1,1.3-0.4c0.3-0.3,0.5-0.6,0.5-1c0-0.2-0.1-0.4-0.2-0.7c-0.1-0.2-0.3-0.4-0.6-0.6
		c-0.2-0.1-0.6-0.4-1.4-0.8c-0.8-0.4-1.3-0.8-1.6-1s-0.6-0.5-0.7-0.8s-0.3-0.6-0.3-1c0-0.6,0.2-1.2,0.7-1.7c0.5-0.5,1.1-0.7,1.9-0.7
		c0.5,0,1,0.1,1.5,0.4c0.2,0.1,0.4,0.2,0.5,0.2c0.1,0,0.2,0,0.3-0.1s0.1-0.2,0.2-0.4H813.9z"/>
	<path id="XMLID_75_" class="st0" d="M820.8,13.6v3.6h2c0.5,0,0.9-0.1,1-0.2c0.2-0.2,0.4-0.6,0.4-1.1h0.2v3.1h-0.2
		c-0.1-0.4-0.1-0.7-0.2-0.8c-0.1-0.2-0.2-0.3-0.4-0.4c-0.2-0.1-0.5-0.1-0.8-0.1h-2v3c0,0.4,0,0.6,0.1,0.7s0.1,0.2,0.2,0.2
		c0.1,0.1,0.3,0.1,0.5,0.1h1.5c0.5,0,0.9,0,1.1-0.1s0.5-0.2,0.7-0.4c0.3-0.3,0.6-0.7,0.8-1.2h0.3l-0.8,2.3h-6.9v-0.2h0.3
		c0.2,0,0.4-0.1,0.6-0.2c0.1-0.1,0.2-0.2,0.3-0.3s0.1-0.4,0.1-0.9v-5.8c0-0.6-0.1-0.9-0.2-1.1c-0.2-0.2-0.4-0.3-0.8-0.3h-0.3v-0.2
		h6.9l0.1,2H825c-0.1-0.5-0.2-0.8-0.3-1c-0.1-0.2-0.3-0.3-0.5-0.4c-0.2-0.1-0.5-0.1-0.9-0.1H820.8z"/>
	<path id="XMLID_77_" class="st0" d="M834.5,22.1l-3.5-7.6v6c0,0.6,0.1,0.9,0.2,1c0.2,0.2,0.4,0.3,0.8,0.3h0.3v0.2h-3.1v-0.2h0.3
		c0.4,0,0.6-0.1,0.8-0.3c0.1-0.1,0.1-0.5,0.1-1v-5.9c0-0.4,0-0.7-0.1-0.9c-0.1-0.1-0.2-0.2-0.3-0.3c-0.2-0.1-0.4-0.1-0.8-0.1v-0.2
		h2.5l3.3,7l3.2-7h2.5v0.2h-0.3c-0.4,0-0.7,0.1-0.8,0.3c-0.1,0.1-0.1,0.5-0.1,1v5.9c0,0.6,0.1,0.9,0.2,1c0.2,0.2,0.4,0.3,0.8,0.3
		h0.3v0.2h-3.8v-0.2h0.3c0.4,0,0.7-0.1,0.8-0.3c0.1-0.1,0.1-0.5,0.1-1v-6l-3.5,7.6H834.5z"/>
	<path id="XMLID_79_" class="st0" d="M850,17.5c0.6,0.1,1.1,0.3,1.4,0.6c0.4,0.4,0.6,0.9,0.6,1.5c0,0.4-0.1,0.9-0.4,1.3
		c-0.3,0.4-0.7,0.7-1.2,0.9c-0.5,0.2-1.2,0.3-2.3,0.3h-4.2v-0.2h0.3c0.4,0,0.6-0.1,0.8-0.4c0.1-0.2,0.2-0.5,0.2-1v-5.8
		c0-0.6-0.1-0.9-0.2-1.1c-0.2-0.2-0.4-0.3-0.8-0.3h-0.3v-0.2h3.9c0.7,0,1.3,0.1,1.7,0.2c0.7,0.2,1.2,0.4,1.5,0.8s0.5,0.9,0.5,1.4
		c0,0.5-0.1,0.9-0.4,1.2C850.9,17,850.5,17.3,850,17.5z M846.5,17.1c0.2,0,0.3,0.1,0.6,0.1s0.4,0,0.7,0c0.6,0,1.1-0.1,1.5-0.2
		c0.3-0.1,0.6-0.4,0.7-0.6c0.2-0.3,0.3-0.6,0.3-0.9c0-0.5-0.2-1-0.6-1.3c-0.4-0.4-1.1-0.6-1.9-0.6c-0.4,0-0.8,0-1.2,0.1V17.1z
		 M846.5,21.4c0.5,0.1,1,0.2,1.5,0.2c0.8,0,1.4-0.2,1.8-0.5c0.4-0.4,0.6-0.8,0.6-1.3c0-0.3-0.1-0.7-0.3-1c-0.2-0.3-0.5-0.6-0.9-0.8
		c-0.4-0.2-1-0.3-1.6-0.3c-0.3,0-0.5,0-0.7,0s-0.4,0-0.5,0V21.4z"/>
	<path id="XMLID_83_" class="st0" d="M863.2,19.6l0.2,0l-0.8,2.4h-7v-0.2h0.3c0.4,0,0.7-0.1,0.8-0.4c0.1-0.1,0.1-0.5,0.1-1v-5.8
		c0-0.6-0.1-0.9-0.2-1.1c-0.2-0.2-0.4-0.3-0.8-0.3h-0.3v-0.2h4.1v0.2c-0.5,0-0.8,0-1,0.1s-0.3,0.2-0.4,0.4c-0.1,0.1-0.1,0.5-0.1,1
		v5.6c0,0.4,0,0.6,0.1,0.8c0.1,0.1,0.1,0.2,0.2,0.2s0.5,0.1,1,0.1h0.7c0.7,0,1.2-0.1,1.5-0.2s0.5-0.3,0.8-0.5
		C862.8,20.5,863,20.1,863.2,19.6z"/>
	<path id="XMLID_85_" class="st0" d="M869.3,13.6v3.6h2c0.5,0,0.9-0.1,1-0.2c0.2-0.2,0.4-0.6,0.4-1.1h0.2v3.1h-0.2
		c-0.1-0.4-0.1-0.7-0.2-0.8c-0.1-0.2-0.2-0.3-0.4-0.4c-0.2-0.1-0.5-0.1-0.8-0.1h-2v3c0,0.4,0,0.6,0.1,0.7s0.1,0.2,0.2,0.2
		c0.1,0.1,0.3,0.1,0.5,0.1h1.5c0.5,0,0.9,0,1.1-0.1s0.5-0.2,0.7-0.4c0.3-0.3,0.6-0.7,0.8-1.2h0.3l-0.8,2.3h-6.9v-0.2h0.3
		c0.2,0,0.4-0.1,0.6-0.2c0.1-0.1,0.2-0.2,0.3-0.3s0.1-0.4,0.1-0.9v-5.8c0-0.6-0.1-0.9-0.2-1.1c-0.2-0.2-0.4-0.3-0.8-0.3h-0.3v-0.2
		h6.9l0.1,2h-0.3c-0.1-0.5-0.2-0.8-0.3-1c-0.1-0.2-0.3-0.3-0.5-0.4c-0.2-0.1-0.5-0.1-0.9-0.1H869.3z"/>
	<path id="XMLID_87_" class="st0" d="M817.2,38.3h-2.4l-3-4.2c-0.2,0-0.4,0-0.5,0c-0.1,0-0.1,0-0.2,0c-0.1,0-0.1,0-0.2,0v2.6
		c0,0.6,0.1,0.9,0.2,1.1c0.2,0.2,0.4,0.3,0.8,0.3h0.4v0.2h-3.8v-0.2h0.3c0.4,0,0.7-0.1,0.8-0.4c0.1-0.1,0.1-0.5,0.1-1v-5.8
		c0-0.6-0.1-0.9-0.2-1.1c-0.2-0.2-0.4-0.3-0.8-0.3h-0.3v-0.2h3.3c1,0,1.7,0.1,2.1,0.2c0.5,0.1,0.8,0.4,1.2,0.8s0.5,0.8,0.5,1.3
		c0,0.6-0.2,1-0.5,1.4c-0.4,0.4-0.9,0.7-1.7,0.9l1.9,2.6c0.4,0.6,0.8,1,1.1,1.2c0.3,0.2,0.7,0.3,1.2,0.4V38.3z M810.8,33.7
		c0.1,0,0.2,0,0.2,0c0.1,0,0.1,0,0.2,0c0.9,0,1.5-0.2,1.9-0.6s0.7-0.8,0.7-1.4c0-0.6-0.2-1-0.5-1.4c-0.4-0.4-0.8-0.5-1.4-0.5
		c-0.3,0-0.6,0-1,0.1V33.7z"/>
	<path id="XMLID_102_" class="st0" d="M826.3,29.6v-0.2h3.2v0.2h-0.3c-0.4,0-0.6,0.1-0.8,0.4c-0.1,0.1-0.1,0.5-0.1,1v3.6
		c0,0.9-0.1,1.6-0.3,2.1c-0.2,0.5-0.5,0.9-1.1,1.3s-1.2,0.5-2.1,0.5c-1,0-1.7-0.2-2.2-0.5s-0.9-0.8-1.1-1.4
		c-0.1-0.4-0.2-1.1-0.2-2.2v-3.5c0-0.6-0.1-0.9-0.2-1.1s-0.4-0.3-0.7-0.3h-0.3v-0.2h3.9v0.2h-0.3c-0.4,0-0.6,0.1-0.8,0.4
		c-0.1,0.2-0.2,0.5-0.2,1v3.9c0,0.3,0,0.7,0.1,1.2c0.1,0.5,0.2,0.8,0.3,1.1c0.2,0.3,0.4,0.5,0.7,0.6s0.7,0.2,1.2,0.2
		c0.6,0,1.1-0.1,1.6-0.4c0.5-0.3,0.8-0.6,1-1c0.2-0.4,0.3-1.1,0.3-2v-3.6c0-0.6-0.1-0.9-0.2-1.1c-0.2-0.2-0.4-0.3-0.8-0.3H826.3z"/>
	<path id="XMLID_104_" class="st0" d="M840.1,35.8l0.2,0l-0.8,2.4h-7v-0.2h0.3c0.4,0,0.7-0.1,0.8-0.4c0.1-0.1,0.1-0.5,0.1-1v-5.8
		c0-0.6-0.1-0.9-0.2-1.1c-0.2-0.2-0.4-0.3-0.8-0.3h-0.3v-0.2h4.1v0.2c-0.5,0-0.8,0-1,0.1s-0.3,0.2-0.4,0.4c-0.1,0.1-0.1,0.5-0.1,1
		v5.6c0,0.4,0,0.6,0.1,0.8c0.1,0.1,0.1,0.2,0.2,0.2s0.5,0.1,1,0.1h0.7c0.7,0,1.2-0.1,1.5-0.2s0.5-0.3,0.8-0.5
		C839.6,36.8,839.9,36.4,840.1,35.8z"/>
	<path id="XMLID_106_" class="st0" d="M846.2,29.8v3.6h2c0.5,0,0.9-0.1,1-0.2c0.2-0.2,0.4-0.6,0.4-1.1h0.2v3.1h-0.2
		c-0.1-0.4-0.1-0.7-0.2-0.8c-0.1-0.2-0.2-0.3-0.4-0.4c-0.2-0.1-0.5-0.1-0.8-0.1h-2v3c0,0.4,0,0.6,0.1,0.7s0.1,0.2,0.2,0.2
		c0.1,0.1,0.3,0.1,0.5,0.1h1.5c0.5,0,0.9,0,1.1-0.1s0.5-0.2,0.7-0.4c0.3-0.3,0.6-0.7,0.8-1.2h0.3l-0.8,2.3h-6.9v-0.2h0.3
		c0.2,0,0.4-0.1,0.6-0.2c0.1-0.1,0.2-0.2,0.3-0.3s0.1-0.4,0.1-0.9v-5.8c0-0.6-0.1-0.9-0.2-1.1c-0.2-0.2-0.4-0.3-0.8-0.3h-0.3v-0.2
		h6.9l0.1,2h-0.3c-0.1-0.5-0.2-0.8-0.3-1c-0.1-0.2-0.3-0.3-0.5-0.4c-0.2-0.1-0.5-0.1-0.9-0.1H846.2z"/>
</g>
<g id="XMLID_44_">
	<rect id="XMLID_67_" class="st0" width="924" height="1"/>
</g>
<g id="XMLID_252_">
	<rect id="XMLID_253_" y="51" class="st0" width="924" height="1"/>
</g>
<g id="XMLID_210_">
	<rect id="XMLID_66_" x="184" y="1" class="st0" width="1" height="51"/>
</g>
<g id="XMLID_313_">
	<rect id="XMLID_65_" x="369" class="st0" width="1" height="52"/>
</g>
<g id="XMLID_314_">
	<rect id="XMLID_64_" x="555" class="st0" width="1" height="51"/>
</g>
<g id="XMLID_315_">
	<rect id="XMLID_63_" x="738" y="1" class="st0" width="1" height="51"/>
</g>
</svg>
