<?xml version="1.0" encoding="utf-8"?>
<!-- Generator: Adobe Illustrator 19.0.0, SVG Export Plug-In . SVG Version: 6.00 Build 0)  -->
<svg version="1.1" id="图层_1" xmlns="http://www.w3.org/2000/svg" xmlns:xlink="http://www.w3.org/1999/xlink" x="0px" y="0px"
	 viewBox="-419 358 185 53" style="enable-background:new -419 358 185 53;" xml:space="preserve">
<style type="text/css">
	.st0{fill:#404040;}
	.st1{fill:#808080;}
	.st2{fill:none;}
</style>
<g id="XMLID_2_">
	<path id="XMLID_6_" class="st0" d="M-348.7,371.7l0.2,3.1h-0.2c-0.3-0.9-0.7-1.6-1.2-2c-0.5-0.4-1.1-0.6-1.8-0.6
		c-0.6,0-1.1,0.2-1.6,0.5c-0.5,0.3-0.9,0.8-1.1,1.4c-0.3,0.7-0.4,1.5-0.4,2.5c0,0.8,0.1,1.5,0.4,2.1c0.3,0.6,0.7,1.1,1.2,1.4
		c0.5,0.3,1.1,0.5,1.8,0.5c0.6,0,1.1-0.1,1.5-0.4c0.4-0.2,0.9-0.7,1.5-1.5l0.2,0.1c-0.5,0.8-1,1.4-1.6,1.8c-0.6,0.4-1.3,0.6-2.1,0.6
		c-1.5,0-2.6-0.6-3.5-1.7c-0.6-0.8-0.9-1.8-0.9-2.9c0-0.9,0.2-1.7,0.6-2.5c0.4-0.8,1-1.3,1.7-1.7s1.5-0.6,2.3-0.6
		c0.6,0,1.3,0.2,1.9,0.5c0.2,0.1,0.3,0.1,0.4,0.1s0.2,0,0.3-0.1c0.1-0.1,0.2-0.3,0.2-0.5L-348.7,371.7L-348.7,371.7z"/>
	<path id="XMLID_8_" class="st0" d="M-340.1,371.7c1.2,0,2.2,0.4,3,1.3c0.8,0.9,1.3,2,1.3,3.3c0,1.4-0.4,2.5-1.3,3.4
		c-0.9,0.9-1.9,1.4-3.1,1.4c-1.2,0-2.3-0.4-3.1-1.3c-0.8-0.9-1.3-2-1.3-3.4s0.5-2.6,1.5-3.5C-342.3,372.1-341.3,371.7-340.1,371.7z
		 M-340.3,372.2c-0.8,0-1.4,0.3-1.9,0.9c-0.6,0.7-0.9,1.8-0.9,3.3s0.3,2.6,0.9,3.4c0.5,0.6,1.1,0.9,1.9,0.9c0.8,0,1.5-0.3,2.1-1
		c0.5-0.7,0.8-1.7,0.8-3.1c0-1.5-0.3-2.7-0.9-3.4C-338.7,372.5-339.4,372.2-340.3,372.2z"/>
	<path id="XMLID_11_" class="st0" d="M-324.8,378.4h0.2l-0.8,2.4h-7v-0.2h0.4c0.4,0,0.7-0.1,0.8-0.4c0.1-0.1,0.1-0.5,0.1-1v-5.8
		c0-0.6-0.1-0.9-0.2-1.1c-0.2-0.2-0.4-0.3-0.8-0.3h-0.3v-0.2h4.1v0.2c-0.5,0-0.8,0-1,0.1c-0.2,0.1-0.3,0.2-0.4,0.4
		c-0.1,0.1-0.1,0.5-0.1,1v5.6c0,0.4,0,0.6,0.1,0.8c0.1,0.1,0.1,0.2,0.2,0.2c0.1,0,0.5,0.1,1,0.1h0.7c0.7,0,1.2-0.1,1.5-0.2
		c0.3-0.1,0.5-0.3,0.8-0.5C-325.2,379.3-325,379-324.8,378.4z"/>
	<path id="XMLID_13_" class="st0" d="M-316.6,371.7c1.2,0,2.2,0.4,3,1.3c0.9,0.9,1.3,2,1.3,3.3c0,1.4-0.4,2.5-1.3,3.4
		c-0.9,0.9-1.9,1.4-3.1,1.4c-1.2,0-2.3-0.4-3.1-1.3c-0.8-0.9-1.3-2-1.3-3.4s0.5-2.6,1.5-3.5C-318.8,372.1-317.8,371.7-316.6,371.7z
		 M-316.8,372.2c-0.8,0-1.4,0.3-1.9,0.9c-0.6,0.7-0.9,1.8-0.9,3.3s0.3,2.6,0.9,3.4c0.5,0.6,1.1,0.9,1.9,0.9c0.8,0,1.5-0.3,2.1-1
		c0.5-0.7,0.8-1.7,0.8-3.1c0-1.5-0.3-2.7-0.9-3.4C-315.2,372.5-315.9,372.2-316.8,372.2z"/>
	<path id="XMLID_16_" class="st0" d="M-299.9,380.9h-2.4l-3-4.2c-0.2,0-0.4,0-0.5,0c-0.1,0-0.1,0-0.2,0s-0.1,0-0.2,0v2.6
		c0,0.6,0.1,0.9,0.2,1.1c0.2,0.2,0.4,0.3,0.8,0.3h0.4v0.2h-3.8v-0.2h0.3c0.4,0,0.7-0.1,0.8-0.4c0.1-0.1,0.1-0.5,0.1-1v-5.8
		c0-0.6-0.1-0.9-0.2-1.1c-0.2-0.2-0.4-0.3-0.8-0.3h-0.3v-0.2h3.3c1,0,1.7,0.1,2.1,0.2c0.5,0.1,0.8,0.4,1.2,0.8
		c0.3,0.4,0.5,0.8,0.5,1.3c0,0.6-0.2,1-0.5,1.4c-0.3,0.4-0.9,0.7-1.7,0.9l1.9,2.6c0.4,0.6,0.8,1,1.1,1.2c0.3,0.2,0.7,0.3,1.2,0.4
		v0.2H-299.9z M-306.3,376.3c0.1,0,0.2,0,0.2,0c0.1,0,0.1,0,0.2,0c0.9,0,1.5-0.2,1.9-0.6c0.4-0.4,0.7-0.8,0.7-1.4
		c0-0.6-0.2-1-0.5-1.4c-0.4-0.4-0.8-0.5-1.4-0.5c-0.3,0-0.6,0-1,0.1L-306.3,376.3L-306.3,376.3z"/>
	<path id="XMLID_19_" class="st0" d="M-355.8,388v3.1h-0.2c-0.1-0.6-0.2-1.1-0.4-1.4c-0.2-0.4-0.5-0.6-0.9-0.8
		c-0.4-0.2-0.8-0.3-1.2-0.3c-0.5,0-0.8,0.1-1.1,0.4c-0.3,0.3-0.5,0.6-0.5,1c0,0.3,0.1,0.5,0.3,0.7c0.3,0.3,0.9,0.8,2,1.3
		c0.8,0.5,1.4,0.8,1.7,1c0.3,0.2,0.5,0.5,0.7,0.9c0.2,0.4,0.2,0.7,0.2,1c0,0.7-0.3,1.3-0.8,1.8s-1.2,0.7-2,0.7c-0.3,0-0.5,0-0.7-0.1
		c-0.1,0-0.4-0.1-0.9-0.2c-0.4-0.1-0.7-0.2-0.8-0.2s-0.2,0-0.3,0.1c-0.1,0.1-0.1,0.2-0.1,0.4h-0.2v-3.1h0.2c0.1,0.6,0.3,1.1,0.5,1.4
		c0.2,0.3,0.5,0.6,0.9,0.8s0.8,0.3,1.3,0.3c0.6,0,1-0.1,1.3-0.4c0.3-0.3,0.5-0.6,0.5-1c0-0.2-0.1-0.4-0.2-0.7
		c-0.1-0.2-0.3-0.4-0.6-0.6c-0.2-0.1-0.6-0.4-1.4-0.8c-0.8-0.4-1.3-0.8-1.6-1c-0.3-0.3-0.6-0.5-0.7-0.8c-0.2-0.3-0.3-0.6-0.3-1
		c0-0.6,0.2-1.2,0.7-1.7s1.1-0.7,1.9-0.7c0.5,0,1,0.1,1.5,0.4c0.2,0.1,0.4,0.2,0.5,0.2s0.2,0,0.3-0.1c0.1-0.1,0.1-0.2,0.2-0.4h0.2
		V388z"/>
	<path id="XMLID_21_" class="st0" d="M-345.3,388.2h3.1v0.2h-0.2c-0.1,0-0.3,0.1-0.5,0.2c-0.2,0.1-0.4,0.2-0.6,0.4s-0.4,0.5-0.7,0.9
		l-2.2,3.4v2.3c0,0.6,0.1,0.9,0.2,1c0.2,0.2,0.4,0.3,0.8,0.3h0.4v0.2h-3.8V397h0.3c0.4,0,0.6-0.1,0.8-0.3c0.1-0.1,0.1-0.5,0.1-1
		v-2.1l-2.4-3.8c-0.3-0.4-0.5-0.7-0.6-0.8s-0.3-0.2-0.6-0.4c-0.1,0-0.2-0.1-0.4-0.1v-0.2h3.8v0.2h-0.2c-0.2,0-0.4,0-0.6,0.1
		c-0.2,0.1-0.3,0.2-0.3,0.4s0.1,0.4,0.4,0.9l1.9,2.9l1.8-2.8c0.3-0.4,0.4-0.7,0.4-0.9c0-0.1,0-0.2-0.1-0.3c-0.1-0.1-0.2-0.2-0.3-0.2
		s-0.3-0.1-0.5-0.1C-345.3,388.5-345.3,388.2-345.3,388.2z"/>
	<path id="XMLID_23_" class="st0" d="M-333,388v3.1h-0.2c-0.1-0.6-0.2-1.1-0.4-1.4c-0.2-0.4-0.5-0.6-0.9-0.8
		c-0.4-0.2-0.8-0.3-1.2-0.3c-0.5,0-0.8,0.1-1.1,0.4c-0.3,0.3-0.5,0.6-0.5,1c0,0.3,0.1,0.5,0.3,0.7c0.3,0.3,0.9,0.8,2,1.3
		c0.8,0.5,1.4,0.8,1.7,1s0.5,0.5,0.7,0.9c0.2,0.4,0.2,0.7,0.2,1c0,0.7-0.3,1.3-0.8,1.8s-1.2,0.7-2,0.7c-0.3,0-0.5,0-0.7-0.1
		c-0.1,0-0.4-0.1-0.9-0.2c-0.4-0.1-0.7-0.2-0.8-0.2s-0.2,0-0.3,0.1c-0.1,0.1-0.1,0.2-0.1,0.4h-0.2v-3.1h0.2c0.1,0.6,0.3,1.1,0.5,1.4
		c0.2,0.3,0.5,0.6,0.9,0.8s0.8,0.3,1.3,0.3c0.6,0,1-0.1,1.3-0.4c0.3-0.3,0.5-0.6,0.5-1c0-0.2-0.1-0.4-0.2-0.7
		c-0.1-0.2-0.3-0.4-0.6-0.6c-0.2-0.1-0.6-0.4-1.4-0.8c-0.8-0.4-1.3-0.8-1.6-1c-0.3-0.3-0.6-0.5-0.7-0.8c-0.2-0.3-0.3-0.6-0.3-1
		c0-0.6,0.2-1.2,0.7-1.7s1.1-0.7,1.9-0.7c0.5,0,1,0.1,1.5,0.4c0.2,0.1,0.4,0.2,0.5,0.2s0.2,0,0.3-0.1s0.1-0.2,0.2-0.4h0.2V388z"/>
	<path id="XMLID_25_" class="st0" d="M-321.1,388.2l0.1,2.1h-0.3c0-0.4-0.1-0.6-0.2-0.8c-0.1-0.3-0.3-0.4-0.5-0.6
		c-0.2-0.2-0.5-0.2-0.9-0.2h-1.3v6.9c0,0.6,0.1,0.9,0.2,1c0.2,0.2,0.4,0.3,0.8,0.3h0.3v0.2h-3.8V397h0.3c0.4,0,0.6-0.1,0.8-0.3
		c0.1-0.1,0.1-0.5,0.1-1v-6.9h-1.1c-0.4,0-0.7,0-0.9,0.1s-0.4,0.2-0.6,0.5c-0.2,0.2-0.3,0.6-0.3,1h-0.3l0.1-2.1L-321.1,388.2
		L-321.1,388.2z"/>
	<path id="XMLID_51_" class="st0" d="M-315.1,388.7v3.5h2c0.5,0,0.9-0.1,1-0.2c0.2-0.2,0.4-0.6,0.4-1.1h0.2v3.1h-0.2
		c-0.1-0.4-0.1-0.7-0.2-0.8c-0.1-0.2-0.2-0.3-0.4-0.4c-0.2-0.1-0.5-0.1-0.8-0.1h-2v3c0,0.4,0,0.6,0.1,0.7s0.1,0.2,0.2,0.2
		c0.1,0.1,0.3,0.1,0.5,0.1h1.5c0.5,0,0.9,0,1.1-0.1c0.2-0.1,0.5-0.2,0.7-0.4c0.3-0.3,0.6-0.7,0.8-1.2h0.3l-0.8,2.3h-6.9V397h0.3
		c0.2,0,0.4-0.1,0.6-0.2c0.1-0.1,0.2-0.2,0.3-0.3s0.1-0.4,0.1-0.9v-5.8c0-0.6-0.1-0.9-0.2-1.1c-0.2-0.2-0.4-0.3-0.8-0.3h-0.3v-0.2
		h6.9l0.1,2h-0.3c-0.1-0.5-0.2-0.8-0.3-1c-0.1-0.2-0.3-0.3-0.5-0.4c-0.2-0.1-0.5-0.1-0.9-0.1C-312.6,388.7-315.1,388.7-315.1,388.7z
		"/>
	<path id="XMLID_53_" class="st0" d="M-301.4,397.2l-3.5-7.6v6c0,0.6,0.1,0.9,0.2,1c0.2,0.2,0.4,0.3,0.8,0.3h0.3v0.2h-3.1V397h0.3
		c0.4,0,0.6-0.1,0.8-0.3c0.1-0.1,0.1-0.5,0.1-1v-5.9c0-0.4,0-0.7-0.1-0.9c-0.1-0.1-0.2-0.2-0.3-0.3s-0.4-0.1-0.8-0.1v-0.2h2.5l3.3,7
		l3.2-7h2.5v0.2h-0.3c-0.4,0-0.7,0.1-0.8,0.3c-0.1,0.1-0.1,0.5-0.1,1v5.9c0,0.6,0.1,0.9,0.2,1c0.2,0.2,0.4,0.3,0.8,0.3h0.3v0.2h-3.9
		V397h0.3c0.4,0,0.7-0.1,0.8-0.3c0.1-0.1,0.1-0.5,0.1-1v-6l-3.5,7.6L-301.4,397.2L-301.4,397.2z"/>
</g>
<g id="XMLID_100_">
	<polyline id="XMLID_3_" class="st1" points="-234,359 -419,359 -419,358 -234,358 	"/>
	<polyline id="XMLID_1_" class="st1" points="-234,411 -419,411 -419,410 -234,410 	"/>
</g>
<line class="st2" x1="-419" y1="359" x2="-234" y2="359"/>
</svg>
