<?xml version="1.0" encoding="utf-8"?>
<!-- Generator: Adobe Illustrator 19.0.0, SVG Export Plug-In . SVG Version: 6.00 Build 0)  -->
<svg version="1.1" id="图层_1" xmlns="http://www.w3.org/2000/svg" xmlns:xlink="http://www.w3.org/1999/xlink" x="0px" y="0px"
	 viewBox="0 0 184 53" style="enable-background:new 0 0 184 53;" xml:space="preserve">
<style type="text/css">
	.st0{fill:#404040;}
	.st1{fill:#808080;}
</style>
<g id="XMLID_7_">
	<path id="XMLID_9_" class="st0" d="M52.1,19.9h-3.5L48,21.3c-0.1,0.3-0.2,0.6-0.2,0.8c0,0.1,0.1,0.3,0.2,0.4
		c0.1,0.1,0.4,0.2,0.8,0.2v0.2H46v-0.2c0.4-0.1,0.6-0.2,0.7-0.3c0.2-0.2,0.5-0.6,0.7-1.3l3.2-7.4h0.2l3.1,7.5c0.3,0.6,0.5,1,0.7,1.2
		c0.2,0.2,0.5,0.3,0.9,0.3v0.2H52v-0.2c0.4,0,0.6-0.1,0.7-0.2s0.2-0.2,0.2-0.4c0-0.2-0.1-0.5-0.3-0.9L52.1,19.9z M51.9,19.4
		l-1.5-3.6l-1.6,3.6H51.9z"/>
	<path id="XMLID_12_" class="st0" d="M64.6,13.7v3.1h-0.2c-0.1-0.6-0.2-1.1-0.4-1.4c-0.2-0.4-0.5-0.6-0.9-0.8
		c-0.4-0.2-0.8-0.3-1.2-0.3c-0.5,0-0.8,0.1-1.1,0.4c-0.3,0.3-0.5,0.6-0.5,1c0,0.3,0.1,0.5,0.3,0.7c0.3,0.3,0.9,0.8,2,1.3
		c0.8,0.5,1.4,0.8,1.7,1s0.5,0.5,0.7,0.9c0.2,0.3,0.2,0.7,0.2,1c0,0.7-0.3,1.3-0.8,1.8c-0.5,0.5-1.2,0.7-2,0.7c-0.3,0-0.5,0-0.7-0.1
		c-0.1,0-0.4-0.1-0.9-0.2c-0.4-0.1-0.7-0.2-0.8-0.2c-0.1,0-0.2,0-0.3,0.1c-0.1,0.1-0.1,0.2-0.1,0.4h-0.2V20h0.2
		c0.1,0.6,0.3,1.1,0.5,1.4s0.5,0.6,0.9,0.8s0.8,0.3,1.3,0.3c0.6,0,1-0.1,1.3-0.4s0.5-0.6,0.5-1c0-0.2-0.1-0.4-0.2-0.7
		c-0.1-0.2-0.3-0.4-0.6-0.6c-0.2-0.1-0.6-0.4-1.4-0.8c-0.8-0.4-1.3-0.8-1.6-1c-0.3-0.3-0.6-0.5-0.7-0.8c-0.2-0.3-0.3-0.6-0.3-1
		c0-0.6,0.2-1.2,0.7-1.7c0.5-0.5,1.1-0.7,1.9-0.7c0.5,0,1,0.1,1.5,0.4c0.2,0.1,0.4,0.2,0.5,0.2c0.1,0,0.2,0,0.3-0.1s0.1-0.2,0.2-0.4
		H64.6z"/>
	<path id="XMLID_14_" class="st0" d="M74.9,13.7v3.1h-0.2c-0.1-0.6-0.2-1.1-0.4-1.4c-0.2-0.4-0.5-0.6-0.9-0.8
		c-0.4-0.2-0.8-0.3-1.2-0.3c-0.5,0-0.8,0.1-1.1,0.4c-0.3,0.3-0.5,0.6-0.5,1c0,0.3,0.1,0.5,0.3,0.7c0.3,0.3,0.9,0.8,2,1.3
		c0.8,0.5,1.4,0.8,1.7,1s0.5,0.5,0.7,0.9c0.2,0.3,0.2,0.7,0.2,1c0,0.7-0.3,1.3-0.8,1.8c-0.5,0.5-1.2,0.7-2,0.7c-0.3,0-0.5,0-0.7-0.1
		c-0.1,0-0.4-0.1-0.9-0.2c-0.4-0.1-0.7-0.2-0.8-0.2c-0.1,0-0.2,0-0.3,0.1c-0.1,0.1-0.1,0.2-0.1,0.4h-0.2V20h0.2
		c0.1,0.6,0.3,1.1,0.5,1.4s0.5,0.6,0.9,0.8s0.8,0.3,1.3,0.3c0.6,0,1-0.1,1.3-0.4s0.5-0.6,0.5-1c0-0.2-0.1-0.4-0.2-0.7
		c-0.1-0.2-0.3-0.4-0.6-0.6c-0.2-0.1-0.6-0.4-1.4-0.8c-0.8-0.4-1.3-0.8-1.6-1c-0.3-0.3-0.6-0.5-0.7-0.8c-0.2-0.3-0.3-0.6-0.3-1
		c0-0.6,0.2-1.2,0.7-1.7c0.5-0.5,1.1-0.7,1.9-0.7c0.5,0,1,0.1,1.5,0.4c0.2,0.1,0.4,0.2,0.5,0.2c0.1,0,0.2,0,0.3-0.1s0.1-0.2,0.2-0.4
		H74.9z"/>
	<path id="XMLID_16_" class="st0" d="M81.8,14.4V18h2c0.5,0,0.9-0.1,1-0.2c0.2-0.2,0.4-0.6,0.4-1.1h0.2v3.1h-0.2
		C85.1,19.4,85,19.1,85,19c-0.1-0.2-0.2-0.3-0.4-0.4c-0.2-0.1-0.5-0.1-0.8-0.1h-2v3c0,0.4,0,0.6,0.1,0.7c0,0.1,0.1,0.2,0.2,0.2
		c0.1,0.1,0.3,0.1,0.5,0.1H84c0.5,0,0.9,0,1.1-0.1c0.2-0.1,0.5-0.2,0.7-0.4c0.3-0.3,0.6-0.7,0.8-1.2h0.3l-0.8,2.3h-6.9v-0.2h0.3
		c0.2,0,0.4-0.1,0.6-0.2c0.1-0.1,0.2-0.2,0.3-0.3c0.1-0.1,0.1-0.4,0.1-0.9v-5.8c0-0.6-0.1-0.9-0.2-1.1c-0.2-0.2-0.4-0.3-0.8-0.3
		h-0.3v-0.2h6.9l0.1,2H86c-0.1-0.5-0.2-0.8-0.3-1c-0.1-0.2-0.3-0.3-0.5-0.4c-0.2-0.1-0.5-0.1-0.9-0.1H81.8z"/>
	<path id="XMLID_18_" class="st0" d="M95.5,22.9L92,15.4v6c0,0.6,0.1,0.9,0.2,1c0.2,0.2,0.4,0.3,0.8,0.3h0.3v0.2h-3.1v-0.2h0.3
		c0.4,0,0.6-0.1,0.8-0.3c0.1-0.1,0.1-0.5,0.1-1v-5.9c0-0.4,0-0.7-0.1-0.9c-0.1-0.1-0.2-0.2-0.3-0.3c-0.2-0.1-0.4-0.1-0.8-0.1v-0.2
		h2.5l3.3,7l3.2-7h2.5v0.2h-0.3c-0.4,0-0.7,0.1-0.8,0.3c-0.1,0.1-0.1,0.5-0.1,1v5.9c0,0.6,0.1,0.9,0.2,1c0.2,0.2,0.4,0.3,0.8,0.3
		h0.3v0.2h-3.8v-0.2h0.3c0.4,0,0.7-0.1,0.8-0.3c0.1-0.1,0.1-0.5,0.1-1v-6l-3.5,7.6H95.5z"/>
	<path id="XMLID_20_" class="st0" d="M111,18.3c0.6,0.1,1.1,0.3,1.4,0.6c0.4,0.4,0.6,0.9,0.6,1.5c0,0.4-0.1,0.9-0.4,1.3
		c-0.3,0.4-0.7,0.7-1.2,0.9c-0.5,0.2-1.2,0.3-2.3,0.3h-4.2v-0.2h0.3c0.4,0,0.6-0.1,0.8-0.4c0.1-0.2,0.2-0.5,0.2-1v-5.8
		c0-0.6-0.1-0.9-0.2-1.1c-0.2-0.2-0.4-0.3-0.8-0.3h-0.3v-0.2h3.9c0.7,0,1.3,0.1,1.7,0.2c0.7,0.2,1.2,0.4,1.5,0.8
		c0.3,0.4,0.5,0.9,0.5,1.4c0,0.5-0.1,0.9-0.4,1.2C111.9,17.9,111.5,18.2,111,18.3z M107.5,18c0.2,0,0.3,0.1,0.6,0.1
		c0.2,0,0.4,0,0.7,0c0.6,0,1.1-0.1,1.5-0.2c0.3-0.1,0.6-0.4,0.7-0.6c0.2-0.3,0.3-0.6,0.3-0.9c0-0.5-0.2-1-0.6-1.3
		c-0.4-0.4-1.1-0.6-1.9-0.6c-0.4,0-0.8,0-1.2,0.1V18z M107.5,22.3c0.5,0.1,1,0.2,1.5,0.2c0.8,0,1.4-0.2,1.8-0.5
		c0.4-0.4,0.6-0.8,0.6-1.3c0-0.3-0.1-0.7-0.3-1c-0.2-0.3-0.5-0.6-0.9-0.8c-0.4-0.2-1-0.3-1.6-0.3c-0.3,0-0.5,0-0.7,0s-0.4,0-0.5,0
		V22.3z"/>
	<path id="XMLID_24_" class="st0" d="M124.2,20.4l0.2,0l-0.8,2.4h-7v-0.2h0.3c0.4,0,0.7-0.1,0.8-0.4c0.1-0.1,0.1-0.5,0.1-1v-5.8
		c0-0.6-0.1-0.9-0.2-1.1c-0.2-0.2-0.4-0.3-0.8-0.3h-0.3v-0.2h4.1v0.2c-0.5,0-0.8,0-1,0.1c-0.2,0.1-0.3,0.2-0.4,0.4
		c-0.1,0.1-0.1,0.5-0.1,1v5.6c0,0.4,0,0.6,0.1,0.8c0.1,0.1,0.1,0.2,0.2,0.2s0.5,0.1,1,0.1h0.7c0.7,0,1.2-0.1,1.5-0.2
		c0.3-0.1,0.5-0.3,0.8-0.5S124,21,124.2,20.4z"/>
	<path id="XMLID_38_" class="st0" d="M130.3,14.4V18h2c0.5,0,0.9-0.1,1-0.2c0.2-0.2,0.4-0.6,0.4-1.1h0.2v3.1h-0.2
		c-0.1-0.4-0.1-0.7-0.2-0.8c-0.1-0.2-0.2-0.3-0.4-0.4c-0.2-0.1-0.5-0.1-0.8-0.1h-2v3c0,0.4,0,0.6,0.1,0.7c0,0.1,0.1,0.2,0.2,0.2
		c0.1,0.1,0.3,0.1,0.5,0.1h1.5c0.5,0,0.9,0,1.1-0.1c0.2-0.1,0.5-0.2,0.7-0.4c0.3-0.3,0.6-0.7,0.8-1.2h0.3l-0.8,2.3h-6.9v-0.2h0.3
		c0.2,0,0.4-0.1,0.6-0.2c0.1-0.1,0.2-0.2,0.3-0.3c0.1-0.1,0.1-0.4,0.1-0.9v-5.8c0-0.6-0.1-0.9-0.2-1.1c-0.2-0.2-0.4-0.3-0.8-0.3
		h-0.3v-0.2h6.9l0.1,2h-0.3c-0.1-0.5-0.2-0.8-0.3-1c-0.1-0.2-0.3-0.3-0.5-0.4c-0.2-0.1-0.5-0.1-0.9-0.1H130.3z"/>
	<path id="XMLID_52_" class="st0" d="M78.2,39.2h-2.4l-3-4.2c-0.2,0-0.4,0-0.5,0c-0.1,0-0.1,0-0.2,0c-0.1,0-0.1,0-0.2,0v2.6
		c0,0.6,0.1,0.9,0.2,1.1c0.2,0.2,0.4,0.3,0.8,0.3h0.4v0.2h-3.8V39h0.3c0.4,0,0.7-0.1,0.8-0.4c0.1-0.1,0.1-0.5,0.1-1v-5.8
		c0-0.6-0.1-0.9-0.2-1.1c-0.2-0.2-0.4-0.3-0.8-0.3h-0.3v-0.2h3.3c1,0,1.7,0.1,2.1,0.2c0.5,0.1,0.8,0.4,1.2,0.8s0.5,0.8,0.5,1.3
		c0,0.6-0.2,1-0.5,1.4c-0.4,0.4-0.9,0.7-1.7,0.9l1.9,2.6c0.4,0.6,0.8,1,1.1,1.2s0.7,0.3,1.2,0.4V39.2z M71.8,34.6c0.1,0,0.2,0,0.2,0
		s0.1,0,0.2,0c0.9,0,1.5-0.2,1.9-0.6s0.7-0.8,0.7-1.4c0-0.6-0.2-1-0.5-1.4c-0.4-0.4-0.8-0.5-1.4-0.5c-0.3,0-0.6,0-1,0.1V34.6z"/>
	<path id="XMLID_92_" class="st0" d="M87.3,30.5v-0.2h3.2v0.2h-0.3c-0.4,0-0.6,0.1-0.8,0.4c-0.1,0.1-0.1,0.5-0.1,1v3.6
		c0,0.9-0.1,1.6-0.3,2.1c-0.2,0.5-0.5,0.9-1.1,1.3s-1.2,0.5-2.1,0.5c-1,0-1.7-0.2-2.2-0.5c-0.5-0.3-0.9-0.8-1.1-1.4
		c-0.1-0.4-0.2-1.1-0.2-2.2v-3.5c0-0.6-0.1-0.9-0.2-1.1c-0.2-0.2-0.4-0.3-0.7-0.3h-0.3v-0.2h3.9v0.2h-0.3c-0.4,0-0.6,0.1-0.8,0.4
		c-0.1,0.2-0.2,0.5-0.2,1v3.9c0,0.3,0,0.7,0.1,1.2c0.1,0.5,0.2,0.8,0.3,1.1c0.2,0.3,0.4,0.5,0.7,0.6s0.7,0.2,1.2,0.2
		c0.6,0,1.1-0.1,1.6-0.4c0.5-0.3,0.8-0.6,1-1s0.3-1.1,0.3-2v-3.6c0-0.6-0.1-0.9-0.2-1.1c-0.2-0.2-0.4-0.3-0.8-0.3H87.3z"/>
	<path id="XMLID_94_" class="st0" d="M101.1,36.7l0.2,0l-0.8,2.4h-7V39h0.3c0.4,0,0.7-0.1,0.8-0.4c0.1-0.1,0.1-0.5,0.1-1v-5.8
		c0-0.6-0.1-0.9-0.2-1.1c-0.2-0.2-0.4-0.3-0.8-0.3h-0.3v-0.2h4.1v0.2c-0.5,0-0.8,0-1,0.1c-0.2,0.1-0.3,0.2-0.4,0.4
		c-0.1,0.1-0.1,0.5-0.1,1v5.6c0,0.4,0,0.6,0.1,0.8c0.1,0.1,0.1,0.2,0.2,0.2s0.5,0.1,1,0.1h0.7c0.7,0,1.2,0,1.5-0.2
		c0.3-0.1,0.5-0.3,0.8-0.5S100.9,37.3,101.1,36.7z"/>
	<path id="XMLID_96_" class="st0" d="M107.2,30.7v3.5h2c0.5,0,0.9-0.1,1-0.2c0.2-0.2,0.4-0.6,0.4-1.1h0.2v3.1h-0.2
		c-0.1-0.4-0.1-0.7-0.2-0.8c-0.1-0.2-0.2-0.3-0.4-0.4c-0.2-0.1-0.5-0.1-0.8-0.1h-2v3c0,0.4,0,0.6,0.1,0.7s0.1,0.2,0.2,0.2
		c0.1,0.1,0.3,0.1,0.5,0.1h1.5c0.5,0,0.9,0,1.1-0.1s0.5-0.2,0.7-0.4c0.3-0.3,0.6-0.7,0.8-1.2h0.3l-0.8,2.3h-6.9V39h0.3
		c0.2,0,0.4-0.1,0.6-0.2c0.1-0.1,0.2-0.2,0.3-0.3c0.1-0.1,0.1-0.4,0.1-0.9v-5.8c0-0.6-0.1-0.9-0.2-1.1c-0.2-0.2-0.4-0.3-0.8-0.3
		h-0.3v-0.2h6.9l0.1,2h-0.3c-0.1-0.5-0.2-0.8-0.3-1c-0.1-0.2-0.3-0.3-0.5-0.4c-0.2-0.1-0.5-0.1-0.9-0.1H107.2z"/>
</g>
<g id="XMLID_103_">
	<rect id="XMLID_8_" class="st1" width="184" height="1"/>
</g>
<g id="XMLID_104_">
	<rect id="XMLID_6_" y="52" class="st1" width="184" height="1"/>
</g>
</svg>
