<?xml version="1.0" encoding="utf-8"?>
<!-- Generator: Adobe Illustrator 19.0.0, SVG Export Plug-In . SVG Version: 6.00 Build 0)  -->
<svg version="1.1" id="图层_1" xmlns="http://www.w3.org/2000/svg" xmlns:xlink="http://www.w3.org/1999/xlink" x="0px" y="0px"
	 viewBox="-333 350.8 356 69.2" style="enable-background:new -333 350.8 356 69.2;" xml:space="preserve">
<style type="text/css">
	.st0{fill:#404040;}
	.st1{fill:#808080;}
</style>
<g id="XMLID_163_">
	<path id="XMLID_82_" class="st0" d="M-230.6,352.1v6.8h3.8c1,0,1.6-0.1,2-0.4c0.4-0.4,0.7-1.1,0.7-2.1h0.5v6h-0.5
		c-0.1-0.8-0.2-1.4-0.4-1.6c-0.2-0.3-0.4-0.5-0.7-0.7c-0.3-0.2-0.9-0.3-1.6-0.3h-3.8v5.7c0,0.8,0,1.2,0.1,1.4
		c0.1,0.2,0.2,0.3,0.4,0.4c0.2,0.1,0.5,0.1,1,0.1h2.9c1,0,1.7-0.1,2.1-0.2c0.4-0.1,0.9-0.4,1.3-0.8c0.5-0.5,1.1-1.3,1.6-2.4h0.5
		l-1.5,4.3h-13.3v-0.5h0.6c0.4,0,0.8-0.1,1.2-0.3c0.3-0.1,0.5-0.3,0.6-0.6c0.1-0.3,0.1-0.8,0.1-1.7v-11c0-1.1-0.1-1.8-0.3-2
		c-0.3-0.3-0.8-0.5-1.5-0.5h-0.6v-0.5h13.3l0.2,3.8h-0.5c-0.2-0.9-0.4-1.5-0.6-1.9c-0.2-0.4-0.5-0.6-1-0.8c-0.3-0.1-0.9-0.2-1.8-0.2
		C-225.8,352.1-230.6,352.1-230.6,352.1z"/>
	<path id="XMLID_84_" class="st0" d="M-203.1,350.8v6h-0.5c-0.2-1.1-0.4-2.1-0.8-2.7c-0.4-0.6-1-1.2-1.7-1.6
		c-0.7-0.5-1.4-0.7-2.2-0.7c-0.9,0-1.6,0.3-2.2,0.8c-0.6,0.5-0.9,1.1-0.9,1.8c0,0.5,0.2,1,0.5,1.4c0.5,0.6,1.8,1.5,3.7,2.5
		c1.6,0.9,2.7,1.5,3.3,2s1,1,1.4,1.6c0.3,0.6,0.5,1.3,0.5,2c0,1.3-0.5,2.4-1.5,3.4c-1,0.9-2.3,1.4-3.9,1.4c-0.5,0-1,0-1.4-0.1
		c-0.3,0-0.8-0.2-1.6-0.5c-0.8-0.3-1.3-0.4-1.6-0.4c-0.2,0-0.4,0.1-0.5,0.2c-0.1,0.1-0.2,0.4-0.3,0.8h-0.5v-5.9h0.5
		c0.2,1.2,0.5,2.2,0.9,2.8c0.4,0.6,0.9,1.1,1.7,1.5c0.8,0.4,1.6,0.6,2.5,0.6c1.1,0,1.9-0.3,2.5-0.8c0.6-0.6,0.9-1.2,0.9-2
		c0-0.4-0.1-0.9-0.3-1.3c-0.2-0.4-0.6-0.8-1.1-1.2c-0.3-0.3-1.2-0.8-2.7-1.6s-2.5-1.5-3.1-2c-0.6-0.5-1.1-1-1.4-1.6s-0.5-1.2-0.5-2
		c0-1.2,0.5-2.3,1.4-3.2c0.9-0.9,2.2-1.3,3.6-1.3c0.9,0,1.9,0.2,2.9,0.7c0.5,0.2,0.8,0.3,1,0.3c0.2,0,0.4-0.1,0.5-0.2
		c0.1-0.1,0.3-0.4,0.3-0.8h0.6V350.8z"/>
	<path id="XMLID_86_" class="st0" d="M-180.2,351.2l0.2,4h-0.5c-0.1-0.7-0.2-1.2-0.4-1.5c-0.3-0.5-0.6-0.9-1-1.1
		c-0.4-0.2-1-0.3-1.7-0.3h-2.4v13.2c0,1.1,0.1,1.7,0.3,2c0.3,0.4,0.8,0.5,1.5,0.5h0.6v0.5h-7.3V368h0.6c0.7,0,1.2-0.2,1.5-0.7
		c0.2-0.3,0.3-0.9,0.3-1.9v-13.1h-2.1c-0.8,0-1.4,0.1-1.7,0.2c-0.4,0.2-0.8,0.5-1.1,0.9c-0.3,0.5-0.5,1.1-0.6,1.9h-0.5l0.2-4h14.1
		V351.2z"/>
	<path id="XMLID_88_" class="st0" d="M-166.1,367.9v0.5h-7.4v-0.5h0.6c0.7,0,1.2-0.2,1.5-0.6c0.2-0.3,0.3-0.9,0.3-2v-11.1
		c0-0.9-0.1-1.4-0.2-1.7c-0.1-0.2-0.3-0.4-0.5-0.5c-0.4-0.2-0.8-0.3-1.2-0.3h-0.6v-0.5h7.4v0.5h-0.6c-0.7,0-1.2,0.2-1.5,0.6
		c-0.2,0.3-0.3,0.9-0.3,2v11.1c0,0.9,0.1,1.4,0.2,1.7c0.1,0.2,0.3,0.4,0.5,0.5c0.4,0.2,0.7,0.3,1.2,0.3H-166.1z"/>
	<path id="XMLID_102_" class="st0" d="M-149.8,368.4l-6.7-14.5v11.5c0,1.1,0.1,1.7,0.3,2c0.3,0.4,0.8,0.5,1.5,0.5h0.6v0.5h-6v-0.5
		h0.6c0.7,0,1.2-0.2,1.5-0.7c0.2-0.3,0.3-0.9,0.3-1.9v-11.1c0-0.8-0.1-1.3-0.3-1.7c-0.1-0.2-0.3-0.5-0.7-0.6s-0.8-0.2-1.5-0.2v-0.5
		h4.9l6.2,13.5l6.1-13.5h4.9v0.5h-0.6c-0.7,0-1.3,0.2-1.6,0.7c-0.2,0.3-0.3,0.9-0.3,1.9v11.2c0,1.1,0.1,1.7,0.4,2
		c0.3,0.4,0.8,0.5,1.5,0.5h0.6v0.5h-7.3V368h0.6c0.7,0,1.3-0.2,1.5-0.7c0.2-0.3,0.3-0.9,0.3-1.9v-11.5l-6.6,14.5H-149.8z"/>
	<path id="XMLID_104_" class="st0" d="M-120.2,362.6h-6.6l-1.2,2.7c-0.3,0.7-0.4,1.2-0.4,1.5s0.1,0.5,0.4,0.7
		c0.2,0.2,0.8,0.3,1.6,0.4v0.5h-5.4v-0.5c0.7-0.1,1.2-0.3,1.4-0.5c0.4-0.4,0.9-1.2,1.4-2.5l6-14.1h0.4l6,14.3
		c0.5,1.2,0.9,1.9,1.3,2.2s0.9,0.5,1.6,0.6v0.5h-6.8v-0.5c0.7,0,1.1-0.1,1.4-0.3c0.2-0.2,0.4-0.4,0.4-0.7c0-0.4-0.2-1-0.5-1.8
		L-120.2,362.6z M-120.5,361.7l-2.9-7l-3,7H-120.5z"/>
	<path id="XMLID_107_" class="st0" d="M-95.9,351.2l0.2,4h-0.5c-0.1-0.7-0.2-1.2-0.4-1.5c-0.3-0.5-0.6-0.9-1-1.1
		c-0.4-0.2-1-0.3-1.7-0.3h-2.5v13.2c0,1.1,0.1,1.7,0.3,2c0.3,0.4,0.8,0.5,1.5,0.5h0.6v0.5h-7.3V368h0.6c0.7,0,1.2-0.2,1.5-0.7
		c0.2-0.3,0.3-0.9,0.3-1.9v-13.1h-2.1c-0.8,0-1.4,0.1-1.7,0.2c-0.4,0.2-0.8,0.5-1.1,0.9c-0.3,0.5-0.5,1.1-0.6,1.9h-0.5l0.2-4h14.2
		V351.2z"/>
	<path id="XMLID_109_" class="st0" d="M-84.5,352.1v6.8h3.8c1,0,1.6-0.1,2-0.4c0.4-0.4,0.7-1.1,0.7-2.1h0.5v6H-78
		c-0.1-0.8-0.2-1.4-0.4-1.6c-0.2-0.3-0.4-0.5-0.7-0.7c-0.3-0.2-0.9-0.3-1.6-0.3h-3.8v5.7c0,0.8,0,1.2,0.1,1.4
		c0.1,0.2,0.2,0.3,0.4,0.4s0.5,0.1,1,0.1h2.9c1,0,1.7-0.1,2.1-0.2c0.4-0.1,0.9-0.4,1.3-0.8c0.5-0.5,1.1-1.3,1.6-2.4h0.5l-1.5,4.3
		h-13.3v-0.5h0.6c0.4,0,0.8-0.1,1.2-0.3c0.3-0.1,0.5-0.3,0.6-0.6c0.1-0.3,0.1-0.8,0.1-1.7v-11c0-1.1-0.1-1.8-0.3-2
		c-0.3-0.3-0.8-0.5-1.5-0.5h-0.6v-0.5h13.3l0.2,3.8h-0.5c-0.2-0.9-0.4-1.5-0.6-1.9c-0.2-0.4-0.5-0.6-1-0.8c-0.3-0.1-0.9-0.2-1.8-0.2
		C-79.6,352.1-84.5,352.1-84.5,352.1z"/>
</g>
<g id="XMLID_170_">
	<path id="XMLID_31_" class="st0" d="M-231.7,409.9l-0.5,1.7h1l-0.1,0.4h-1l-1.1,3.7c-0.1,0.4-0.2,0.7-0.2,0.8c0,0.1,0,0.1,0.1,0.2
		l0.1,0.1c0.1,0,0.2-0.1,0.4-0.2c0.1-0.1,0.3-0.3,0.7-0.8l0.2,0.2c-0.4,0.6-0.8,1-1.1,1.2c-0.2,0.2-0.5,0.2-0.7,0.2
		c-0.2,0-0.3-0.1-0.5-0.2c-0.1-0.1-0.2-0.3-0.2-0.4c0-0.2,0.1-0.6,0.2-1l1.1-3.7h-1l0.1-0.2c0.5-0.1,0.9-0.3,1.2-0.6
		c0.3-0.3,0.7-0.7,1-1.3L-231.7,409.9L-231.7,409.9z"/>
	<path id="XMLID_33_" class="st0" d="M-226.4,408.2l-1.8,6.2c0.8-1.2,1.4-1.9,1.8-2.3c0.4-0.4,0.8-0.6,1.2-0.6
		c0.2,0,0.4,0.1,0.5,0.2c0.1,0.1,0.2,0.3,0.2,0.6s-0.1,0.6-0.2,1l-0.8,2.7c-0.1,0.3-0.1,0.5-0.1,0.5c0,0.1,0,0.1,0.1,0.1
		c0.1,0,0.1,0.1,0.1,0.1c0.1,0,0.1,0,0.2-0.1c0.2-0.2,0.5-0.4,0.7-0.8l0.2,0.1c-0.1,0.2-0.3,0.5-0.6,0.7c-0.3,0.3-0.5,0.5-0.7,0.6
		c-0.2,0.1-0.3,0.2-0.5,0.2c-0.2,0-0.3,0-0.4-0.1c-0.1-0.1-0.1-0.2-0.1-0.4c0-0.2,0.1-0.5,0.2-1l0.7-2.5c0.1-0.3,0.1-0.6,0.1-0.7
		s0-0.2-0.1-0.2c-0.1-0.1-0.1-0.1-0.2-0.1c-0.1,0-0.3,0-0.4,0.1c-0.3,0.2-0.6,0.5-1,1c-0.1,0.1-0.4,0.7-1,1.6
		c-0.2,0.3-0.3,0.6-0.4,1l-0.4,1.3h-1l2.1-7.3l0.2-0.8c0-0.1,0-0.2-0.1-0.3c-0.1-0.1-0.2-0.1-0.3-0.1s-0.2,0-0.3,0h-0.1v-0.2
		L-226.4,408.2z"/>
	<path id="XMLID_35_" class="st0" d="M-220.8,414.8c0,0.2,0,0.4,0,0.5c0,0.4,0.1,0.7,0.4,1c0.3,0.3,0.6,0.4,1,0.4
		c0.3,0,0.6-0.1,0.9-0.2c0.3-0.1,0.7-0.4,1.3-0.8l0.1,0.2c-1,1-2,1.5-2.9,1.5c-0.6,0-1.1-0.2-1.4-0.6c-0.3-0.4-0.5-0.8-0.5-1.3
		c0-0.6,0.2-1.3,0.6-1.9c0.4-0.7,0.9-1.2,1.5-1.5c0.6-0.4,1.2-0.5,1.8-0.5c0.4,0,0.8,0.1,1,0.3c0.2,0.2,0.3,0.4,0.3,0.6
		c0,0.4-0.1,0.7-0.4,1c-0.4,0.4-0.9,0.8-1.6,1C-219.3,414.6-220,414.7-220.8,414.8z M-220.8,414.5c0.6-0.1,1.1-0.2,1.5-0.4
		c0.5-0.2,0.9-0.5,1.2-0.8s0.4-0.6,0.4-0.9c0-0.2-0.1-0.3-0.2-0.4c-0.1-0.1-0.3-0.2-0.5-0.2c-0.4,0-0.9,0.2-1.4,0.7
		C-220.2,412.9-220.6,413.6-220.8,414.5z"/>
	<path id="XMLID_38_" class="st0" d="M-204.7,411.5l-1.2,4.3l-0.1,0.6c0,0.1,0,0.1,0,0.1c0,0.1,0,0.1,0.1,0.2l0.1,0.1
		c0.1,0,0.1,0,0.2-0.1c0.2-0.1,0.4-0.4,0.7-0.8l0.2,0.2c-0.3,0.4-0.6,0.8-0.9,1c-0.3,0.2-0.6,0.3-0.9,0.3c-0.2,0-0.3,0-0.4-0.1
		c-0.1-0.1-0.1-0.2-0.1-0.4c0-0.2,0-0.5,0.1-0.8l0.1-0.5c-0.6,0.7-1.1,1.2-1.5,1.5c-0.3,0.2-0.7,0.3-1,0.3c-0.3,0-0.6-0.1-0.8-0.4
		c-0.2-0.3-0.3-0.6-0.3-1.1c0-0.7,0.2-1.4,0.6-2.1c0.4-0.7,0.9-1.3,1.5-1.8c0.5-0.4,0.9-0.5,1.4-0.5c0.3,0,0.5,0.1,0.6,0.2
		c0.2,0.1,0.3,0.4,0.4,0.7l0.2-0.7L-204.7,411.5z M-206.9,411.8c-0.3,0-0.6,0.1-0.9,0.4c-0.4,0.4-0.8,0.9-1.2,1.6
		c-0.3,0.7-0.5,1.3-0.5,1.9c0,0.3,0.1,0.5,0.2,0.7c0.1,0.2,0.3,0.3,0.5,0.3c0.5,0,1-0.3,1.5-1c0.7-0.9,1.1-1.8,1.1-2.8
		c0-0.4-0.1-0.6-0.2-0.8C-206.5,411.9-206.7,411.8-206.9,411.8z"/>
	<path id="XMLID_41_" class="st0" d="M-202.7,411.9l1.8-0.4c0.1,0.3,0.2,0.6,0.3,1c0.1,0.5,0.2,1,0.3,1.7c0,0.3,0.1,1,0.1,2.1
		c0.5-0.6,0.8-0.9,0.9-1.1c0.6-0.8,0.9-1.2,1-1.3c0.1-0.2,0.2-0.4,0.3-0.6c0-0.1,0.1-0.2,0.1-0.4c0-0.1-0.1-0.2-0.3-0.4
		c-0.2-0.1-0.3-0.3-0.3-0.5c0-0.1,0.1-0.3,0.2-0.4c0.1-0.1,0.2-0.2,0.4-0.2c0.2,0,0.3,0.1,0.5,0.2c0.1,0.1,0.2,0.3,0.2,0.5
		c0,0.2,0,0.4-0.1,0.6c-0.1,0.3-0.3,0.7-0.6,1.2c-0.3,0.5-0.8,1.1-1.5,1.9c-0.1,0.1-0.6,0.6-1.4,1.5h-0.2c-0.1-2.7-0.3-4.4-0.6-5
		c-0.1-0.2-0.3-0.3-0.5-0.3c-0.1,0-0.3,0-0.5,0.1L-202.7,411.9z"/>
	<path id="XMLID_43_" class="st0" d="M-194.3,414.8c0,0.2,0,0.4,0,0.5c0,0.4,0.1,0.7,0.4,1c0.3,0.3,0.6,0.4,1,0.4
		c0.3,0,0.6-0.1,0.9-0.2c0.3-0.1,0.7-0.4,1.3-0.8l0.1,0.2c-1,1-2,1.5-2.9,1.5c-0.6,0-1.1-0.2-1.4-0.6c-0.3-0.4-0.5-0.8-0.5-1.3
		c0-0.6,0.2-1.3,0.6-1.9c0.4-0.7,0.9-1.2,1.5-1.5c0.6-0.4,1.2-0.5,1.8-0.5c0.4,0,0.8,0.1,1,0.3c0.2,0.2,0.3,0.4,0.3,0.6
		c0,0.4-0.1,0.7-0.4,1c-0.4,0.4-0.9,0.8-1.6,1C-192.8,414.6-193.5,414.7-194.3,414.8z M-194.3,414.5c0.6-0.1,1.1-0.2,1.5-0.4
		c0.5-0.2,0.9-0.5,1.2-0.8c0.3-0.3,0.4-0.6,0.4-0.9c0-0.2-0.1-0.3-0.2-0.4c-0.1-0.1-0.3-0.2-0.5-0.2c-0.4,0-0.9,0.2-1.4,0.7
		C-193.7,412.9-194.1,413.6-194.3,414.5z"/>
	<path id="XMLID_46_" class="st0" d="M-188.1,411.8l2.2-0.4l-0.9,3.1c0.7-1.3,1.4-2.1,2-2.7c0.3-0.3,0.6-0.4,0.8-0.4
		c0.1,0,0.2,0,0.3,0.1c0.1,0.1,0.1,0.2,0.1,0.4c0,0.3-0.1,0.5-0.2,0.8c-0.1,0.2-0.2,0.3-0.4,0.3c-0.1,0-0.2,0-0.3-0.1
		c-0.1-0.1-0.1-0.2-0.1-0.3c0-0.1,0-0.1-0.1-0.2l-0.1-0.1c-0.1,0-0.1,0-0.2,0.1c-0.1,0.1-0.3,0.2-0.5,0.5c-0.4,0.4-0.7,1-1.1,1.6
		c-0.2,0.3-0.3,0.6-0.5,0.9c-0.2,0.5-0.3,0.8-0.3,0.9l-0.2,0.8h-1l1.2-3.9c0.1-0.5,0.2-0.8,0.2-1c0-0.1,0-0.1-0.1-0.2
		c-0.1-0.1-0.2-0.1-0.3-0.1s-0.3,0-0.5,0.1L-188.1,411.8z"/>
	<path id="XMLID_48_" class="st0" d="M-179.6,411.5l-0.8,2.9c0.8-1.2,1.4-2,1.8-2.3c0.4-0.4,0.8-0.6,1.2-0.6c0.2,0,0.4,0.1,0.5,0.2
		s0.2,0.3,0.2,0.5c0,0.3-0.1,0.6-0.2,1l-0.8,2.7c-0.1,0.3-0.1,0.5-0.1,0.6c0,0.1,0,0.1,0.1,0.1l0.1,0.1c0.1,0,0.1,0,0.2-0.1
		c0.2-0.2,0.5-0.4,0.7-0.8l0.2,0.1c-0.4,0.6-0.8,1-1.1,1.2c-0.2,0.2-0.5,0.2-0.7,0.2c-0.2,0-0.3,0-0.4-0.1c-0.1-0.1-0.1-0.2-0.1-0.4
		s0.1-0.6,0.2-1l0.7-2.6c0.1-0.3,0.1-0.6,0.1-0.7c0-0.1,0-0.2-0.1-0.2c-0.1-0.1-0.1-0.1-0.2-0.1s-0.3,0.1-0.4,0.2
		c-0.3,0.2-0.6,0.5-1,0.9c-0.3,0.4-0.7,1-1.1,1.7c-0.2,0.4-0.4,0.8-0.5,1.2l-0.3,1h-1l1.2-4c0.1-0.5,0.2-0.8,0.2-0.9s0-0.2-0.1-0.2
		c-0.1-0.1-0.2-0.1-0.3-0.1s-0.1,0-0.3,0h-0.2v-0.2L-179.6,411.5z"/>
	<path id="XMLID_50_" class="st0" d="M-168.5,411.6l-1.1,3.8c-0.2,0.6-0.2,0.9-0.2,1.1c0,0.1,0,0.1,0,0.2l0.1,0.1
		c0.1,0,0.2,0,0.2-0.1s0.3-0.3,0.7-0.8l0.2,0.1c-0.3,0.5-0.7,0.9-1,1.2c-0.2,0.2-0.5,0.2-0.7,0.2c-0.2,0-0.3,0-0.4-0.1
		c-0.1-0.1-0.1-0.2-0.1-0.4c0-0.1,0-0.3,0.1-0.6c0.1-0.3,0.3-1,0.6-2c-0.7,1.2-1.3,2-1.8,2.4s-0.9,0.7-1.3,0.7
		c-0.2,0-0.4-0.1-0.5-0.2s-0.2-0.3-0.2-0.5c0-0.3,0.1-0.8,0.3-1.5l0.6-2c0.1-0.5,0.2-0.8,0.2-0.9c0-0.1,0-0.1-0.1-0.1l-0.1-0.1
		c-0.1,0-0.2,0-0.3,0.1s-0.3,0.3-0.6,0.7l-0.2-0.1c0.3-0.5,0.7-0.9,1-1.1c0.3-0.2,0.5-0.3,0.7-0.3c0.2,0,0.3,0,0.4,0.1
		s0.1,0.2,0.1,0.4c0,0.2-0.1,0.6-0.3,1.2l-0.6,2c-0.2,0.6-0.2,0.9-0.2,1.1c0,0.1,0,0.1,0.1,0.2c0.1,0.1,0.1,0.1,0.2,0.1
		c0.1,0,0.3-0.1,0.5-0.2c0.2-0.1,0.5-0.4,0.9-0.9s0.7-0.9,0.9-1.4c0.2-0.4,0.5-1.1,0.8-2l0.1-0.5h1V411.6z"/>
	<path id="XMLID_52_" class="st0" d="M-165.3,414.8c0,0.2,0,0.4,0,0.5c0,0.4,0.1,0.7,0.4,1c0.3,0.3,0.6,0.4,1,0.4
		c0.3,0,0.6-0.1,0.9-0.2c0.3-0.1,0.7-0.4,1.3-0.8l0.1,0.2c-1,1-2,1.5-2.9,1.5c-0.6,0-1.1-0.2-1.4-0.6c-0.3-0.4-0.5-0.8-0.5-1.3
		c0-0.6,0.2-1.3,0.6-1.9c0.4-0.7,0.9-1.2,1.5-1.5c0.6-0.4,1.2-0.5,1.8-0.5c0.4,0,0.8,0.1,1,0.3c0.2,0.2,0.3,0.4,0.3,0.6
		c0,0.4-0.1,0.7-0.4,1c-0.4,0.4-0.9,0.8-1.6,1C-163.8,414.6-164.5,414.7-165.3,414.8z M-165.3,414.5c0.6-0.1,1.1-0.2,1.5-0.4
		c0.5-0.2,0.9-0.5,1.2-0.8c0.3-0.3,0.4-0.6,0.4-0.9c0-0.2-0.1-0.3-0.2-0.4c-0.1-0.1-0.3-0.2-0.5-0.2c-0.4,0-0.9,0.2-1.4,0.7
		C-164.7,412.9-165,413.6-165.3,414.5z"/>
	<path id="XMLID_55_" class="st0" d="M-151.9,409.9l-0.5,1.7h1l-0.1,0.4h-1l-1.1,3.7c-0.1,0.4-0.2,0.7-0.2,0.8c0,0.1,0,0.1,0.1,0.2
		l0.1,0.1c0.1,0,0.2-0.1,0.4-0.2c0.1-0.1,0.3-0.3,0.7-0.8l0.2,0.2c-0.4,0.6-0.8,1-1.1,1.2c-0.2,0.2-0.5,0.2-0.7,0.2
		c-0.2,0-0.3-0.1-0.5-0.2c-0.1-0.1-0.2-0.3-0.2-0.4c0-0.2,0.1-0.6,0.2-1l1.1-3.7h-1l0.1-0.2c0.5-0.1,0.9-0.3,1.2-0.6
		c0.3-0.3,0.7-0.7,1-1.3L-151.9,409.9L-151.9,409.9z"/>
	<path id="XMLID_57_" class="st0" d="M-147.3,411.5l-1.3,4.5c-0.1,0.3-0.1,0.5-0.1,0.5c0,0.1,0,0.1,0.1,0.2l0.1,0.1
		c0.1,0,0.1,0,0.2-0.1c0.2-0.2,0.5-0.5,0.7-0.8l0.2,0.1c-0.3,0.4-0.6,0.8-1,1.1c-0.3,0.2-0.6,0.3-0.8,0.3c-0.2,0-0.3-0.1-0.4-0.2
		c-0.1-0.1-0.2-0.2-0.2-0.4s0.1-0.4,0.2-0.8l0.8-2.8c0.1-0.5,0.2-0.8,0.2-0.9c0-0.1,0-0.2-0.1-0.2c-0.1-0.1-0.2-0.1-0.3-0.1
		s-0.3,0-0.6,0.1v-0.3L-147.3,411.5z M-147.4,408.9c0.2,0,0.3,0.1,0.5,0.2c0.1,0.1,0.2,0.3,0.2,0.5c0,0.2-0.1,0.3-0.2,0.4
		c-0.1,0.1-0.3,0.2-0.4,0.2c-0.2,0-0.3-0.1-0.4-0.2c-0.1-0.1-0.2-0.3-0.2-0.4c0-0.2,0.1-0.3,0.2-0.5
		C-147.8,409-147.6,408.9-147.4,408.9z"/>
	<path id="XMLID_60_" class="st0" d="M-142.6,411.5l-0.8,2.9c0.4-0.7,0.7-1.2,0.9-1.5c0.4-0.5,0.8-0.9,1.2-1.1
		c0.2-0.1,0.5-0.2,0.7-0.2c0.2,0,0.4,0.1,0.5,0.2s0.2,0.3,0.2,0.5s0,0.5-0.1,0.8l-0.5,1.6c0.7-1.3,1.3-2.2,2-2.7
		c0.3-0.3,0.7-0.4,1-0.4c0.2,0,0.4,0.1,0.5,0.2s0.2,0.3,0.2,0.6c0,0.2,0,0.5-0.1,0.8l-0.7,2.5c-0.2,0.5-0.2,0.8-0.2,0.9
		c0,0.1,0,0.1,0.1,0.2h0.1c0,0,0.1,0,0.2-0.1c0.2-0.2,0.5-0.4,0.7-0.7l0.2,0.1c-0.1,0.2-0.3,0.4-0.6,0.7c-0.3,0.3-0.5,0.5-0.7,0.6
		c-0.2,0.1-0.4,0.2-0.5,0.2s-0.3-0.1-0.4-0.2c-0.1-0.1-0.2-0.4-0.2-0.6s0.1-0.6,0.3-1.2l0.6-2c0.1-0.5,0.2-0.7,0.2-0.8s0-0.2,0-0.2
		c0-0.1,0-0.2-0.1-0.2c-0.1-0.1-0.1-0.1-0.2-0.1c-0.2,0-0.4,0.1-0.6,0.3c-0.6,0.5-1.1,1.3-1.6,2.3c-0.3,0.6-0.6,1.5-0.9,2.5h-1
		l1.1-3.8c0.1-0.4,0.2-0.7,0.2-0.8c0-0.1,0-0.2-0.1-0.3c0-0.1-0.1-0.1-0.2-0.1c-0.1,0-0.3,0.1-0.4,0.2c-0.3,0.2-0.6,0.5-1,1.1
		c-0.4,0.5-0.7,1.1-0.9,1.6c-0.1,0.2-0.4,1-0.8,2.2h-0.9l1.2-4.1l0.2-0.5c0-0.1,0-0.1,0-0.2c0-0.1,0-0.2-0.1-0.3s-0.2-0.1-0.3-0.1
		s-0.2,0-0.5,0.1l-0.1-0.2L-142.6,411.5z"/>
	<path id="XMLID_62_" class="st0" d="M-133.2,414.8c0,0.2,0,0.4,0,0.5c0,0.4,0.1,0.7,0.4,1s0.6,0.4,1,0.4c0.3,0,0.6-0.1,0.9-0.2
		c0.3-0.1,0.7-0.4,1.3-0.8l0.1,0.2c-1,1-2,1.5-2.9,1.5c-0.6,0-1.1-0.2-1.4-0.6s-0.5-0.8-0.5-1.3c0-0.6,0.2-1.3,0.6-1.9
		c0.4-0.7,0.9-1.2,1.5-1.5c0.6-0.4,1.2-0.5,1.8-0.5c0.4,0,0.8,0.1,1,0.3c0.2,0.2,0.3,0.4,0.3,0.6c0,0.4-0.1,0.7-0.4,1
		c-0.4,0.4-0.9,0.8-1.6,1C-131.7,414.6-132.3,414.7-133.2,414.8z M-133.1,414.5c0.6-0.1,1.1-0.2,1.5-0.4c0.5-0.2,0.9-0.5,1.2-0.8
		c0.3-0.3,0.4-0.6,0.4-0.9c0-0.2-0.1-0.3-0.2-0.4c-0.1-0.1-0.3-0.2-0.5-0.2c-0.4,0-0.9,0.2-1.4,0.7
		C-132.6,412.9-132.9,413.6-133.1,414.5z"/>
	<path id="XMLID_65_" class="st0" d="M-116.3,412.7h2.6v0.2c-0.4,0.1-0.7,0.2-0.9,0.3c-0.2,0.2-0.5,0.5-0.8,0.9
		c-0.4,0.6-0.8,1.1-1,1.5c0.5,0.9,1,1.3,1.6,1.3c0.4,0,0.7-0.2,1-0.5h0.3c-0.3,0.3-0.5,0.6-0.8,0.8c-0.3,0.2-0.6,0.2-1,0.2
		s-0.8-0.1-1.1-0.2c-0.3-0.2-0.6-0.4-0.9-0.8c-0.5,0.4-0.9,0.6-1.3,0.8c-0.4,0.2-0.9,0.2-1.4,0.2c-0.8,0-1.4-0.2-1.8-0.6
		c-0.4-0.4-0.6-0.9-0.6-1.6c0-0.8,0.3-1.4,1-2c0.4-0.4,1.3-0.8,2.6-1.2c0-0.2,0-0.3,0-0.5s0-0.3,0-0.4c0-0.9,0.2-1.5,0.7-2
		s1-0.7,1.6-0.7c0.4,0,0.8,0.1,1,0.4c0.3,0.2,0.4,0.5,0.4,0.9c0,0.5-0.2,0.9-0.5,1.3c-0.4,0.4-1,0.8-2,1.1c0.3,1.3,0.7,2.3,1.1,3.2
		c0.7-0.8,1-1.4,1-1.9c0-0.1,0-0.2-0.1-0.3c-0.1-0.1-0.2-0.1-0.4-0.1v-0.3H-116.3z M-118.9,412.4c-0.8,0.3-1.4,0.7-1.8,1.1
		c-0.4,0.4-0.5,0.9-0.5,1.4s0.2,1,0.5,1.3c0.3,0.3,0.8,0.5,1.3,0.5c0.3,0,0.6,0,0.8-0.1c0.2-0.1,0.6-0.3,1-0.6
		c-0.3-0.4-0.5-1-0.8-1.7C-118.6,413.7-118.8,413.1-118.9,412.4z M-117.9,411.6c0.6-0.3,1.1-0.5,1.3-0.8c0.3-0.3,0.5-0.7,0.5-1.1
		c0-0.3-0.1-0.5-0.2-0.6c-0.1-0.2-0.3-0.2-0.6-0.2s-0.6,0.1-0.8,0.4s-0.3,0.7-0.3,1.3c0,0.1,0,0.3,0,0.5
		C-118,411.2-117.9,411.4-117.9,411.6z"/>
	<path id="XMLID_69_" class="st0" d="M-104.3,411.5l-0.4,1.5c0.5-0.5,0.9-0.9,1.2-1.1c0.4-0.2,0.7-0.3,1.1-0.3c0.4,0,0.7,0.1,1,0.4
		c0.3,0.3,0.4,0.7,0.4,1.2c0,0.9-0.4,1.9-1.1,2.8c-0.8,1-1.6,1.4-2.6,1.4c-0.2,0-0.4,0-0.6-0.1c-0.2,0-0.3-0.1-0.5-0.2l-0.5,1.6
		c-0.1,0.3-0.1,0.5-0.1,0.6c0,0.1,0,0.2,0.1,0.2c0,0.1,0.1,0.1,0.2,0.2c0.1,0,0.3,0.1,0.7,0.1l-0.1,0.2h-3l0.1-0.2
		c0.4,0,0.7-0.1,0.8-0.2c0.1-0.1,0.3-0.4,0.4-1l1.6-5.6c0.1-0.4,0.1-0.6,0.1-0.7s0-0.2-0.1-0.3c-0.1-0.1-0.2-0.1-0.3-0.1
		s-0.3,0-0.5,0v-0.1L-104.3,411.5z M-105.8,416.5c0.3,0.3,0.6,0.5,1.1,0.5c0.2,0,0.4-0.1,0.7-0.2c0.2-0.1,0.5-0.3,0.7-0.5
		s0.4-0.5,0.6-0.8c0.2-0.3,0.3-0.7,0.5-1.1c0.1-0.4,0.2-0.9,0.2-1.3c0-0.3-0.1-0.6-0.2-0.8s-0.3-0.3-0.5-0.3c-0.5,0-0.9,0.3-1.4,0.8
		c-0.4,0.5-0.8,1.1-1,1.8L-105.8,416.5z"/>
	<path id="XMLID_72_" class="st0" d="M-98.7,411.8l2.2-0.4l-0.9,3.1c0.7-1.3,1.4-2.1,2-2.7c0.3-0.3,0.6-0.4,0.8-0.4
		c0.1,0,0.2,0,0.3,0.1c0.1,0.1,0.1,0.2,0.1,0.4c0,0.3-0.1,0.5-0.2,0.8c-0.1,0.2-0.2,0.3-0.4,0.3c-0.1,0-0.2,0-0.3-0.1
		c-0.1-0.1-0.1-0.2-0.1-0.3c0-0.1,0-0.1-0.1-0.2l-0.1-0.1c-0.1,0-0.1,0-0.2,0.1c-0.1,0.1-0.3,0.2-0.5,0.5c-0.4,0.4-0.7,1-1.1,1.6
		c-0.2,0.3-0.3,0.6-0.5,0.9c-0.2,0.5-0.3,0.8-0.3,0.9l-0.2,0.8h-1l1.2-3.9c0.1-0.5,0.2-0.8,0.2-1c0-0.1,0-0.1-0.1-0.2
		c-0.1-0.1-0.2-0.1-0.3-0.1s-0.3,0-0.5,0.1L-98.7,411.8z"/>
	<path id="XMLID_74_" class="st0" d="M-90,411.5l-1.3,4.5c-0.1,0.3-0.1,0.5-0.1,0.5c0,0.1,0,0.1,0.1,0.2l0.1,0.1
		c0.1,0,0.1,0,0.2-0.1c0.2-0.2,0.5-0.5,0.7-0.8l0.2,0.1c-0.3,0.4-0.6,0.8-1,1.1c-0.3,0.2-0.6,0.3-0.8,0.3s-0.3-0.1-0.4-0.2
		c-0.1-0.1-0.2-0.2-0.2-0.4s0.1-0.4,0.2-0.8l0.8-2.8c0.1-0.5,0.2-0.8,0.2-0.9c0-0.1,0-0.2-0.1-0.2c-0.1-0.1-0.2-0.1-0.3-0.1
		s-0.3,0-0.6,0.1v-0.3L-90,411.5z M-90.1,408.9c0.2,0,0.3,0.1,0.5,0.2c0.1,0.1,0.2,0.3,0.2,0.5c0,0.2-0.1,0.3-0.2,0.4
		c-0.1,0.1-0.3,0.2-0.4,0.2c-0.2,0-0.3-0.1-0.4-0.2c-0.1-0.1-0.2-0.3-0.2-0.4c0-0.2,0.1-0.3,0.2-0.5
		C-90.4,409-90.3,408.9-90.1,408.9z"/>
	<path id="XMLID_77_" class="st0" d="M-83.1,415.8c-0.4,0.5-0.9,0.9-1.3,1.2c-0.4,0.2-0.9,0.4-1.4,0.4c-0.6,0-1.1-0.2-1.4-0.5
		c-0.3-0.3-0.5-0.8-0.5-1.4c0-0.6,0.2-1.3,0.5-1.9c0.4-0.6,0.8-1.1,1.5-1.5c0.6-0.4,1.2-0.6,1.8-0.6c0.5,0,0.8,0.1,1,0.3
		s0.3,0.4,0.3,0.7c0,0.3-0.1,0.5-0.2,0.7c-0.1,0.1-0.3,0.2-0.4,0.2s-0.2,0-0.3-0.1c-0.1-0.1-0.1-0.2-0.1-0.3c0-0.1,0-0.2,0-0.2
		c0-0.1,0.1-0.1,0.2-0.2c0.1-0.1,0.2-0.2,0.2-0.2v-0.1c0-0.1,0-0.2-0.1-0.2c-0.1-0.1-0.3-0.1-0.5-0.1c-0.4,0-0.8,0.1-1.2,0.4
		c-0.4,0.3-0.8,0.7-1,1.2c-0.3,0.7-0.5,1.3-0.5,2c0,0.4,0.1,0.8,0.4,1c0.2,0.3,0.6,0.4,1,0.4c0.3,0,0.6-0.1,1-0.2
		c0.3-0.2,0.7-0.5,1.1-0.9L-83.1,415.8z"/>
	<path id="XMLID_79_" class="st0" d="M-79.5,414.8c0,0.2,0,0.4,0,0.5c0,0.4,0.1,0.7,0.4,1s0.6,0.4,1,0.4c0.3,0,0.6-0.1,0.9-0.2
		c0.3-0.1,0.7-0.4,1.3-0.8l0.1,0.2c-1,1-2,1.5-2.9,1.5c-0.6,0-1.1-0.2-1.4-0.6s-0.5-0.8-0.5-1.3c0-0.6,0.2-1.3,0.6-1.9
		c0.4-0.7,0.9-1.2,1.5-1.5c0.6-0.4,1.2-0.5,1.8-0.5c0.4,0,0.8,0.1,1,0.3c0.2,0.2,0.3,0.4,0.3,0.6c0,0.4-0.1,0.7-0.4,1
		c-0.4,0.4-0.9,0.8-1.6,1C-77.9,414.6-78.6,414.7-79.5,414.8z M-79.4,414.5c0.6-0.1,1.1-0.2,1.5-0.4c0.5-0.2,0.9-0.5,1.2-0.8
		c0.3-0.3,0.4-0.6,0.4-0.9c0-0.2-0.1-0.3-0.2-0.4c-0.1-0.1-0.3-0.2-0.5-0.2c-0.4,0-0.9,0.2-1.4,0.7
		C-78.8,412.9-79.2,413.6-79.4,414.5z"/>
</g>
<g id="XMLID_167_">
	<rect id="XMLID_29_" x="-333" y="385.2" class="st1" width="356" height="1"/>
</g>
</svg>
