<?xml version="1.0" encoding="utf-8"?>
<!-- Generator: Adobe Illustrator 19.0.0, SVG Export Plug-In . SVG Version: 6.00 Build 0)  -->
<svg version="1.1" id="图层_1" xmlns="http://www.w3.org/2000/svg" xmlns:xlink="http://www.w3.org/1999/xlink" x="0px" y="0px"
	 viewBox="-419 358 185 53" style="enable-background:new -419 358 185 53;" xml:space="preserve">
<style type="text/css">
	.st0{fill:#404040;}
	.st1{fill:#808080;}
</style>
<g id="XMLID_399_">
	<path id="XMLID_3_" class="st0" d="M-342.8,378.4h0.2l-0.8,2.4h-7v-0.2h0.4c0.4,0,0.7-0.1,0.8-0.4c0.1-0.1,0.1-0.5,0.1-1v-5.8
		c0-0.6-0.1-0.9-0.2-1.1c-0.2-0.2-0.4-0.3-0.8-0.3h-0.3v-0.2h4.1v0.2c-0.5,0-0.8,0-1,0.1c-0.2,0.1-0.3,0.2-0.4,0.4
		c-0.1,0.1-0.1,0.5-0.1,1v5.6c0,0.4,0,0.6,0.1,0.8c0.1,0.1,0.1,0.2,0.2,0.2c0.1,0,0.5,0.1,1,0.1h0.7c0.7,0,1.2-0.1,1.5-0.2
		c0.3-0.1,0.5-0.3,0.8-0.5C-343.2,379.3-343.1,379-342.8,378.4z"/>
	<path id="XMLID_5_" class="st0" d="M-334.7,371.7c1.2,0,2.2,0.4,3,1.3c0.8,0.9,1.3,2,1.3,3.3c0,1.4-0.4,2.5-1.3,3.4
		c-0.9,0.9-1.9,1.4-3.1,1.4c-1.2,0-2.3-0.4-3.1-1.3c-0.8-0.9-1.3-2-1.3-3.4s0.5-2.6,1.5-3.5C-336.8,372.1-335.8,371.7-334.7,371.7z
		 M-334.8,372.2c-0.8,0-1.4,0.3-1.9,0.9c-0.6,0.7-0.9,1.8-0.9,3.3s0.3,2.6,0.9,3.4c0.5,0.6,1.1,0.9,1.9,0.9c0.8,0,1.5-0.3,2.1-1
		c0.5-0.7,0.8-1.7,0.8-3.1c0-1.5-0.3-2.7-0.9-3.4C-333.3,372.5-333.9,372.2-334.8,372.2z"/>
	<path id="XMLID_8_" class="st0" d="M-318.8,371.7l0.2,2.8h-0.2c-0.2-0.7-0.5-1.2-0.9-1.6c-0.5-0.5-1.2-0.8-2.1-0.8
		c-1.1,0-2,0.5-2.6,1.4c-0.5,0.8-0.7,1.7-0.7,2.7c0,0.9,0.2,1.6,0.5,2.3c0.3,0.7,0.8,1.2,1.3,1.6c0.5,0.3,1.1,0.5,1.7,0.5
		c0.3,0,0.7,0,1-0.1c0.3-0.1,0.6-0.2,0.9-0.4v-2.6c0-0.5,0-0.7-0.1-0.9c-0.1-0.1-0.2-0.2-0.3-0.3c-0.1-0.1-0.4-0.1-0.8-0.1V376h3.5
		v0.3h-0.2c-0.3,0-0.6,0.1-0.7,0.3c-0.1,0.2-0.1,0.5-0.1,1v2.7c-0.5,0.3-1,0.5-1.5,0.6s-1,0.2-1.6,0.2c-1.7,0-3.1-0.6-4-1.7
		c-0.7-0.8-1-1.8-1-2.9c0-0.8,0.2-1.5,0.6-2.3c0.5-0.9,1.1-1.5,1.9-2c0.7-0.4,1.4-0.6,2.3-0.6c0.3,0,0.6,0,0.9,0.1
		c0.3,0.1,0.6,0.2,1.1,0.4c0.2,0.1,0.4,0.1,0.5,0.1s0.2,0,0.2-0.1s0.1-0.2,0.1-0.5h0.1V371.7z"/>
	<path id="XMLID_10_" class="st0" d="M-309.6,371.7c1.2,0,2.2,0.4,3,1.3c0.8,0.9,1.3,2,1.3,3.3c0,1.4-0.4,2.5-1.3,3.4
		c-0.9,0.9-1.9,1.4-3.1,1.4c-1.2,0-2.3-0.4-3.1-1.3c-0.8-0.9-1.3-2-1.3-3.4s0.5-2.6,1.5-3.5C-311.8,372.1-310.8,371.7-309.6,371.7z
		 M-309.8,372.2c-0.8,0-1.4,0.3-1.9,0.9c-0.6,0.7-0.9,1.8-0.9,3.3s0.3,2.6,0.9,3.4c0.5,0.6,1.1,0.9,1.9,0.9c0.8,0,1.5-0.3,2.1-1
		c0.5-0.7,0.8-1.7,0.8-3.1c0-1.5-0.3-2.7-0.9-3.4C-308.2,372.5-308.9,372.2-309.8,372.2z"/>
	<path id="XMLID_13_" class="st0" d="M-359.1,397.2V397h0.3c0.4,0,0.6-0.1,0.8-0.4c0.1-0.1,0.1-0.5,0.1-1v-5.8
		c0-0.6-0.1-0.9-0.2-1.1c-0.2-0.2-0.4-0.3-0.8-0.3h-0.3v-0.2h3.7c1.3,0,2.4,0.2,3.1,0.5c0.7,0.3,1.3,0.8,1.7,1.5
		c0.4,0.7,0.6,1.5,0.6,2.5c0,1.2-0.4,2.3-1.1,3.1c-0.9,0.9-2.2,1.4-3.9,1.4C-355.1,397.2-359.1,397.2-359.1,397.2z M-356.6,396.5
		c0.6,0.1,1,0.2,1.4,0.2c1,0,1.9-0.4,2.5-1.1c0.6-0.7,1-1.7,1-2.9c0-1.2-0.3-2.2-1-2.9c-0.7-0.7-1.5-1.1-2.6-1.1
		c-0.4,0-0.9,0.1-1.4,0.2v7.6H-356.6z"/>
	<path id="XMLID_16_" class="st0" d="M-344,388.7v3.6h2c0.5,0,0.9-0.1,1-0.2c0.2-0.2,0.4-0.6,0.4-1.1h0.2v3.1h-0.2
		c-0.1-0.4-0.1-0.7-0.2-0.8c-0.1-0.2-0.2-0.3-0.4-0.4c-0.2-0.1-0.5-0.1-0.8-0.1h-2v3c0,0.4,0,0.6,0.1,0.7s0.1,0.2,0.2,0.2
		c0.1,0,0.3,0.1,0.5,0.1h1.5c0.5,0,0.9,0,1.1-0.1c0.2-0.1,0.5-0.2,0.7-0.4c0.3-0.3,0.6-0.7,0.8-1.2h0.3l-0.8,2.3h-6.9V397h0.3
		c0.2,0,0.4-0.1,0.6-0.2c0.1-0.1,0.2-0.2,0.3-0.3c0.1-0.1,0.1-0.4,0.1-0.9v-5.8c0-0.6-0.1-0.9-0.2-1.1c-0.2-0.2-0.4-0.3-0.8-0.3
		h-0.3v-0.2h6.9l0.1,2h-0.3c-0.1-0.5-0.2-0.8-0.3-1c-0.1-0.2-0.3-0.3-0.5-0.4c-0.2-0.1-0.5-0.1-0.9-0.1
		C-341.5,388.7-344,388.7-344,388.7z"/>
	<path id="XMLID_18_" class="st0" d="M-329.6,388v3.1h-0.2c-0.1-0.6-0.2-1.1-0.4-1.4c-0.2-0.4-0.5-0.6-0.9-0.8
		c-0.4-0.2-0.8-0.3-1.2-0.3c-0.5,0-0.8,0.1-1.1,0.4c-0.3,0.3-0.5,0.6-0.5,1c0,0.3,0.1,0.5,0.3,0.7c0.3,0.3,0.9,0.8,2,1.3
		c0.8,0.5,1.4,0.8,1.7,1c0.3,0.2,0.5,0.5,0.7,0.9c0.2,0.3,0.2,0.7,0.2,1c0,0.7-0.3,1.3-0.8,1.8s-1.2,0.7-2,0.7c-0.3,0-0.5,0-0.7-0.1
		c-0.1,0-0.4-0.1-0.9-0.2c-0.4-0.1-0.7-0.2-0.8-0.2c-0.1,0-0.2,0-0.3,0.1s-0.1,0.2-0.1,0.4h-0.2v-3.1h0.2c0.1,0.6,0.3,1.1,0.5,1.4
		c0.2,0.3,0.5,0.6,0.9,0.8c0.4,0.2,0.8,0.3,1.3,0.3c0.6,0,1-0.1,1.3-0.4c0.3-0.3,0.5-0.6,0.5-1c0-0.2-0.1-0.4-0.2-0.7
		c-0.1-0.2-0.3-0.4-0.6-0.6c-0.2-0.1-0.6-0.4-1.4-0.8c-0.8-0.4-1.3-0.8-1.6-1c-0.3-0.3-0.6-0.5-0.7-0.8c-0.2-0.3-0.3-0.6-0.3-1
		c0-0.6,0.2-1.2,0.7-1.7s1.1-0.7,1.9-0.7c0.5,0,1,0.1,1.5,0.4c0.2,0.1,0.4,0.2,0.5,0.2c0.1,0,0.2,0,0.3-0.1s0.1-0.2,0.2-0.4h0.2V388
		z"/>
	<path id="XMLID_20_" class="st0" d="M-321.4,397v0.2h-3.8V397h0.3c0.4,0,0.6-0.1,0.8-0.3c0.1-0.1,0.2-0.5,0.2-1v-5.8
		c0-0.5,0-0.8-0.1-0.9c0-0.1-0.1-0.2-0.3-0.3c-0.2-0.1-0.4-0.2-0.6-0.2h-0.3v-0.2h3.8v0.2h-0.3c-0.4,0-0.6,0.1-0.8,0.3
		c-0.1,0.1-0.2,0.5-0.2,1v5.8c0,0.5,0,0.8,0.1,0.9c0,0.1,0.1,0.2,0.3,0.3c0.2,0.1,0.4,0.2,0.6,0.2C-321.7,397-321.4,397-321.4,397z"
		/>
	<path id="XMLID_22_" class="st0" d="M-310,388l0.2,2.8h-0.2c-0.2-0.7-0.5-1.2-0.9-1.6c-0.5-0.5-1.2-0.8-2.1-0.8
		c-1.1,0-2,0.5-2.6,1.4c-0.5,0.8-0.7,1.7-0.7,2.7c0,0.9,0.2,1.6,0.5,2.3c0.3,0.7,0.8,1.2,1.3,1.6s1.1,0.5,1.7,0.5c0.3,0,0.7,0,1-0.1
		c0.3-0.1,0.6-0.2,0.9-0.4v-2.6c0-0.5,0-0.7-0.1-0.9c-0.1-0.1-0.2-0.2-0.3-0.3s-0.4-0.1-0.8-0.1v-0.3h3.5v0.3h-0.2
		c-0.3,0-0.6,0.1-0.7,0.3c-0.1,0.2-0.1,0.5-0.1,1v2.7c-0.5,0.3-1,0.5-1.5,0.6s-1,0.2-1.6,0.2c-1.7,0-3.1-0.6-4-1.7
		c-0.7-0.8-1-1.8-1-2.9c0-0.8,0.2-1.5,0.6-2.3c0.5-0.9,1.1-1.5,1.9-2c0.7-0.4,1.4-0.6,2.3-0.6c0.3,0,0.6,0,0.9,0.1
		c0.3,0.1,0.6,0.2,1.1,0.4c0.2,0.1,0.4,0.1,0.5,0.1s0.2,0,0.2-0.1c0-0.1,0.1-0.2,0.1-0.5h0.1V388z"/>
	<path id="XMLID_24_" class="st0" d="M-306,388.2h2.4l5.5,6.7v-5.2c0-0.6-0.1-0.9-0.2-1c-0.2-0.2-0.4-0.3-0.8-0.3h-0.3v-0.2h3.1v0.2
		h-0.3c-0.4,0-0.6,0.1-0.8,0.3c-0.1,0.1-0.1,0.5-0.1,1v7.6h-0.2l-5.9-7.2v5.5c0,0.6,0.1,0.9,0.2,1c0.2,0.2,0.4,0.3,0.8,0.3h0.3v0.2
		h-3.1V397h0.3c0.4,0,0.7-0.1,0.8-0.3c0.1-0.1,0.1-0.5,0.1-1v-6.2c-0.3-0.3-0.5-0.5-0.6-0.6c-0.1-0.1-0.3-0.2-0.6-0.3
		c-0.1,0-0.3-0.1-0.6-0.1C-306,388.5-306,388.2-306,388.2z"/>
</g>
<g id="XMLID_69_">
	<polyline id="XMLID_4_" class="st1" points="-234,359 -419,359 -419,358 -234,358 	"/>
	<polyline id="XMLID_1_" class="st1" points="-234,411 -419,411 -419,410 -234,410 	"/>
</g>
</svg>
