<?xml version="1.0" encoding="utf-8"?>
<!-- Generator: Adobe Illustrator 19.0.0, SVG Export Plug-In . SVG Version: 6.00 Build 0)  -->
<svg version="1.1" id="图层_1" xmlns="http://www.w3.org/2000/svg" xmlns:xlink="http://www.w3.org/1999/xlink" x="0px" y="0px"
	 viewBox="-419 358 185 53" style="enable-background:new -419 358 185 53;" xml:space="preserve">
<style type="text/css">
	.st0{fill:#404040;}
	.st1{fill:#808080;}
</style>
<g id="XMLID_5_">
	<path id="XMLID_7_" class="st0" d="M-340,377.9h-3.5l-0.6,1.4c-0.1,0.3-0.2,0.6-0.2,0.8c0,0.1,0.1,0.3,0.2,0.4s0.4,0.2,0.8,0.2v0.2
		h-2.8v-0.2c0.4-0.1,0.6-0.2,0.7-0.3c0.2-0.2,0.5-0.6,0.7-1.3l3.2-7.4h0.2l3.1,7.5c0.3,0.6,0.5,1,0.7,1.2c0.2,0.2,0.5,0.3,0.9,0.3
		v0.2h-3.5v-0.2c0.4,0,0.6-0.1,0.7-0.2c0.1-0.1,0.2-0.2,0.2-0.4c0-0.2-0.1-0.5-0.3-0.9L-340,377.9z M-340.2,377.4l-1.5-3.6l-1.6,3.6
		H-340.2z"/>
	<path id="XMLID_10_" class="st0" d="M-327.2,372.2V372h3.2v0.2h-0.3c-0.4,0-0.6,0.1-0.8,0.4c-0.1,0.1-0.1,0.5-0.1,1v3.6
		c0,0.9-0.1,1.6-0.3,2.1s-0.5,0.9-1.1,1.3s-1.2,0.5-2.1,0.5c-1,0-1.7-0.2-2.2-0.5c-0.5-0.3-0.9-0.8-1.1-1.4
		c-0.1-0.4-0.2-1.1-0.2-2.2v-3.5c0-0.6-0.1-0.9-0.2-1.1c-0.2-0.2-0.4-0.3-0.7-0.3h-0.3v-0.2h3.9v0.2h-0.3c-0.4,0-0.6,0.1-0.8,0.4
		c-0.1,0.2-0.2,0.5-0.2,1v3.9c0,0.3,0,0.7,0.1,1.2c0.1,0.5,0.2,0.8,0.3,1.1c0.2,0.3,0.4,0.5,0.7,0.6c0.3,0.2,0.7,0.2,1.2,0.2
		c0.6,0,1.1-0.1,1.6-0.4c0.5-0.3,0.8-0.6,1-1c0.2-0.4,0.3-1.1,0.3-2v-3.6c0-0.6-0.1-0.9-0.2-1.1c-0.2-0.2-0.4-0.3-0.8-0.3h-0.6
		V372.2z"/>
	<path id="XMLID_12_" class="st0" d="M-315.7,375.9l1.9,2.9c0.5,0.8,0.9,1.3,1.2,1.5c0.3,0.2,0.6,0.3,1,0.3v0.2h-3.9v-0.2
		c0.3,0,0.4,0,0.6-0.1c0.1,0,0.2-0.1,0.2-0.2c0.1-0.1,0.1-0.2,0.1-0.2c0-0.1,0-0.2-0.1-0.3c0-0.1-0.2-0.3-0.4-0.6l-1.5-2.3l-1.9,2.4
		c-0.2,0.3-0.3,0.4-0.4,0.5c0,0.1-0.1,0.2-0.1,0.3s0.1,0.3,0.2,0.4s0.3,0.1,0.7,0.2v0.2h-3.2v-0.2c0.2,0,0.4-0.1,0.6-0.1
		c0.3-0.1,0.5-0.3,0.8-0.5c0.3-0.2,0.5-0.5,0.8-0.9l2.1-2.7l-1.8-2.6c-0.5-0.7-0.9-1.2-1.2-1.4c-0.3-0.2-0.7-0.3-1.2-0.3V372h4.2
		v0.2c-0.4,0-0.6,0.1-0.7,0.2c-0.1,0.1-0.2,0.2-0.2,0.3c0,0.2,0.1,0.4,0.3,0.7l1.4,2.1l1.6-2c0.2-0.2,0.3-0.4,0.3-0.5
		s0.1-0.2,0.1-0.3c0-0.1,0-0.2-0.1-0.2c-0.1-0.1-0.2-0.2-0.3-0.2s-0.3-0.1-0.6-0.1V372h3.2v0.2c-0.3,0-0.5,0.1-0.6,0.1
		c-0.2,0.1-0.5,0.2-0.7,0.4c-0.2,0.2-0.5,0.5-0.8,1L-315.7,375.9z"/>
	<path id="XMLID_14_" class="st0" d="M-358.4,388l0.2,2.8h-0.2c-0.2-0.7-0.5-1.2-0.9-1.6c-0.5-0.5-1.2-0.8-2.1-0.8
		c-1.1,0-2,0.5-2.6,1.4c-0.5,0.8-0.7,1.7-0.7,2.7c0,0.9,0.2,1.6,0.5,2.3c0.3,0.7,0.8,1.2,1.3,1.6c0.5,0.3,1.1,0.5,1.7,0.5
		c0.3,0,0.7,0,1-0.1c0.3-0.1,0.6-0.2,0.9-0.4v-2.6c0-0.5,0-0.7-0.1-0.9c-0.1-0.2-0.2-0.2-0.3-0.3c-0.1-0.1-0.4-0.1-0.8-0.1v-0.3h3.5
		v0.3h-0.2c-0.3,0-0.6,0.1-0.7,0.3c-0.1,0.2-0.1,0.5-0.1,1v2.7c-0.5,0.3-1,0.5-1.5,0.6s-1,0.2-1.6,0.2c-1.7,0-3.1-0.6-4-1.7
		c-0.7-0.8-1-1.8-1-2.9c0-0.8,0.2-1.5,0.6-2.3c0.5-0.9,1.1-1.5,1.9-2c0.7-0.4,1.4-0.6,2.3-0.6c0.3,0,0.6,0,0.9,0.1
		c0.3,0.1,0.6,0.2,1.1,0.4c0.2,0.1,0.4,0.1,0.5,0.1c0.1,0,0.2,0,0.2-0.1c0.1-0.1,0.1-0.2,0.1-0.5h0.1V388z"/>
	<path id="XMLID_16_" class="st0" d="M-345,397.2h-2.4l-3-4.2c-0.2,0-0.4,0-0.5,0s-0.1,0-0.2,0s-0.1,0-0.2,0v2.6
		c0,0.6,0.1,0.9,0.2,1.1c0.2,0.2,0.4,0.3,0.8,0.3h0.4v0.2h-4.1V397h0.3c0.4,0,0.7-0.1,0.8-0.4c0.1-0.1,0.1-0.5,0.1-1v-5.8
		c0-0.6-0.1-0.9-0.2-1.1c-0.2-0.2-0.4-0.3-0.8-0.3h-0.2v-0.2h3.3c1,0,1.7,0.1,2.1,0.2c0.5,0.1,0.8,0.4,1.2,0.8
		c0.4,0.4,0.4,0.8,0.4,1.3c0,0.6-0.2,1-0.5,1.4c-0.4,0.4-0.9,0.7-1.7,0.9l1.9,2.6c0.4,0.6,0.8,1,1.1,1.2c0.3,0.2,0.7,0.3,1.2,0.4
		V397.2z M-351.4,392.6c0.1,0,0.2,0,0.2,0s0.1,0,0.2,0c0.9,0,1.5-0.2,1.9-0.6s0.7-0.8,0.7-1.4s-0.2-1-0.5-1.4
		c-0.4-0.4-0.8-0.5-1.4-0.5c-0.3,0-0.6,0-1,0.1L-351.4,392.6L-351.4,392.6z"/>
	<path id="XMLID_19_" class="st0" d="M-336.2,394.2h-3.5l-0.6,1.4c-0.1,0.3-0.2,0.6-0.2,0.8c0,0.1,0.1,0.3,0.2,0.4
		c0.1,0.1,0.4,0.2,0.8,0.2v0.2h-2.8V397c0.4-0.1,0.6-0.2,0.7-0.3c0.2-0.2,0.5-0.6,0.7-1.3l3.2-7.4h0.2l3.1,7.5
		c0.3,0.6,0.5,1,0.7,1.2c0.2,0.2,0.5,0.3,0.9,0.3v0.2h-3.5V397c0.4,0,0.6-0.1,0.7-0.2c0.1-0.1,0.2-0.2,0.2-0.4
		c0-0.2-0.1-0.5-0.3-0.9L-336.2,394.2z M-336.4,393.7l-1.6-3.6l-1.6,3.6C-339.6,393.7-336.4,393.7-336.4,393.7z"/>
	<path id="XMLID_22_" class="st0" d="M-327.2,393v2.6c0,0.6,0.1,0.9,0.2,1.1c0.2,0.2,0.4,0.3,0.8,0.3h0.3v0.2h-3.8V397h0.3
		c0.4,0,0.7-0.1,0.8-0.4c0.1-0.1,0.1-0.5,0.1-1v-5.8c0-0.6-0.1-0.9-0.2-1.1c-0.2-0.2-0.4-0.3-0.8-0.3h-0.3v-0.2h3.3
		c0.8,0,1.4,0.1,1.9,0.2c0.5,0.2,0.9,0.4,1.2,0.8c0.3,0.4,0.5,0.9,0.5,1.4c0,0.7-0.2,1.3-0.7,1.8s-1.2,0.7-2,0.7c-0.2,0-0.5,0-0.7,0
		S-326.9,393.1-327.2,393z M-327.2,392.6c0.2,0,0.4,0.1,0.6,0.1c0.2,0,0.3,0,0.5,0c0.5,0,0.9-0.2,1.2-0.5c0.3-0.4,0.5-0.8,0.5-1.4
		c0-0.4-0.1-0.8-0.2-1.1c-0.2-0.3-0.4-0.6-0.7-0.7c-0.3-0.2-0.6-0.2-1-0.2c-0.2,0-0.5,0-0.9,0.1V392.6z"/>
	<path id="XMLID_25_" class="st0" d="M-316.9,392.4h4.2v-2.6c0-0.5,0-0.8-0.1-0.9c0-0.1-0.1-0.2-0.3-0.3c-0.2-0.1-0.4-0.2-0.6-0.2
		h-0.3v-0.2h3.8v0.2h-0.3c-0.2,0-0.4,0.1-0.6,0.2c-0.1,0.1-0.2,0.2-0.3,0.3s-0.1,0.4-0.1,0.9v5.8c0,0.5,0,0.8,0.1,0.9
		c0,0.1,0.1,0.2,0.3,0.3c0.2,0.1,0.4,0.2,0.6,0.2h0.3v0.2h-3.8V397h0.3c0.4,0,0.6-0.1,0.8-0.3c0.1-0.1,0.2-0.5,0.2-1V393h-4.2v2.7
		c0,0.5,0,0.8,0.1,0.9c0,0.1,0.1,0.2,0.3,0.3s0.4,0.2,0.6,0.2h0.3v0.2h-3.8V397h0.3c0.4,0,0.6-0.1,0.8-0.3c0.1-0.1,0.2-0.5,0.2-1
		v-5.8c0-0.5,0-0.8-0.1-0.9c0-0.1-0.1-0.2-0.3-0.3c-0.2-0.1-0.4-0.2-0.6-0.2h-0.3v-0.2h3.8v0.2h-0.3c-0.2,0-0.4,0.1-0.6,0.2
		c-0.1,0.1-0.2,0.2-0.3,0.3s-0.1,0.4-0.1,0.9C-316.9,389.9-316.9,392.4-316.9,392.4z"/>
	<path id="XMLID_51_" class="st0" d="M-303,397v0.2h-3.8V397h0.3c0.4,0,0.6-0.1,0.8-0.3c0.1-0.1,0.2-0.5,0.2-1v-5.8
		c0-0.5,0-0.8-0.1-0.9c0-0.1-0.1-0.2-0.3-0.3c-0.2-0.1-0.4-0.2-0.6-0.2h-0.3v-0.2h3.8v0.2h-0.3c-0.4,0-0.6,0.1-0.8,0.3
		c-0.1,0.1-0.2,0.5-0.2,1v5.8c0,0.5,0,0.8,0.1,0.9c0,0.1,0.1,0.2,0.3,0.3c0.2,0.1,0.4,0.2,0.6,0.2C-303.3,397-303,397-303,397z"/>
	<path id="XMLID_53_" class="st0" d="M-291.8,388l0.2,3.1h-0.2c-0.3-0.9-0.7-1.6-1.2-2s-1.1-0.6-1.8-0.6c-0.6,0-1.1,0.2-1.6,0.5
		s-0.9,0.8-1.1,1.4c-0.3,0.7-0.4,1.5-0.4,2.5c0,0.8,0.1,1.5,0.4,2.1s0.7,1.1,1.2,1.4c0.5,0.3,1.1,0.5,1.8,0.5c0.6,0,1.1-0.1,1.5-0.4
		c0.4-0.2,0.9-0.7,1.5-1.5l0.2,0.1c-0.5,0.8-1,1.4-1.6,1.8s-1.3,0.6-2.1,0.6c-1.5,0-2.6-0.6-3.5-1.7c-0.6-0.8-0.9-1.8-0.9-2.9
		c0-0.9,0.2-1.7,0.6-2.5c0.4-0.8,1-1.3,1.7-1.7s1.5-0.6,2.3-0.6c0.6,0,1.3,0.2,1.9,0.5c0.2,0.1,0.3,0.1,0.4,0.1s0.2,0,0.3-0.1
		c0.1-0.1,0.2-0.3,0.2-0.5L-291.8,388L-291.8,388z"/>
</g>
<g id="XMLID_102_">
	<polyline id="XMLID_2_" class="st1" points="-234,359 -419,359 -419,358 -234,358 	"/>
	<polyline id="XMLID_1_" class="st1" points="-234,411 -419,411 -419,410 -234,410 	"/>
</g>
</svg>
