<?xml version="1.0" encoding="utf-8"?>
<!-- Generator: Adobe Illustrator 19.0.0, SVG Export Plug-In . SVG Version: 6.00 Build 0)  -->
<svg version="1.1" id="图层_1" xmlns="http://www.w3.org/2000/svg" xmlns:xlink="http://www.w3.org/1999/xlink" x="0px" y="0px"
	 viewBox="0 0 295.8 44.4" style="enable-background:new 0 0 295.8 44.4;" xml:space="preserve">
<style type="text/css">
	.st0{fill:#404040;}
</style>
<g id="XMLID_465_">
	<path id="XMLID_61_" class="st0" d="M18.2,0.4v0.5c-0.6,0.1-1.1,0.3-1.4,0.6c-0.4,0.4-0.8,1-1.2,1.9L9.6,18H9.2L2.7,3.2
		C2.4,2.4,2.2,1.9,2,1.8C1.8,1.5,1.6,1.3,1.3,1.1S0.5,0.9,0,0.9V0.4h7v0.5C6.2,0.9,5.7,1.1,5.5,1.3S5.1,1.7,5.1,2
		c0,0.4,0.2,1.1,0.6,2l4.4,10.1l4.1-10c0.4-1,0.6-1.7,0.6-2c0-0.2-0.1-0.5-0.4-0.7S13.7,1,13.1,0.9c0,0-0.1,0-0.2,0V0.4H18.2z"/>
	<path id="XMLID_63_" class="st0" d="M31.8,17.1v0.5h-7.4v-0.5H25c0.7,0,1.2-0.2,1.5-0.6c0.2-0.3,0.3-0.9,0.3-2V3.4
		c0-0.9-0.1-1.4-0.2-1.7c-0.1-0.2-0.3-0.4-0.5-0.5C25.8,1,25.4,0.9,25,0.9h-0.6V0.4h7.4v0.5h-0.6c-0.7,0-1.2,0.2-1.5,0.6
		c-0.2,0.3-0.3,0.9-0.3,2v11.1c0,0.9,0.1,1.4,0.2,1.7c0.1,0.2,0.3,0.4,0.5,0.5c0.4,0.2,0.7,0.3,1.2,0.3H31.8z"/>
	<path id="XMLID_65_" class="st0" d="M49.8,17.6v-0.5h0.6c0.7,0,1.2-0.2,1.5-0.7c0.2-0.3,0.3-0.9,0.3-1.9V3.4c0-1.1-0.1-1.7-0.4-2
		C51.5,1,51,0.9,50.4,0.9h-0.6V0.4h7c2.6,0,4.5,0.3,5.9,0.9s2.4,1.6,3.2,2.9s1.2,2.9,1.2,4.7c0,2.4-0.7,4.4-2.2,6
		c-1.6,1.8-4.1,2.7-7.5,2.7H49.8z M54.7,16.4c1.1,0.2,2,0.4,2.7,0.4c2,0,3.6-0.7,4.9-2.1s1.9-3.2,1.9-5.6c0-2.4-0.6-4.3-1.9-5.6
		s-3-2.1-5-2.1c-0.8,0-1.6,0.1-2.6,0.4V16.4z"/>
	<path id="XMLID_68_" class="st0" d="M78.7,1.3v6.8h3.8c1,0,1.6-0.1,2-0.4c0.4-0.4,0.7-1.1,0.7-2.1h0.5v6h-0.5
		c-0.1-0.8-0.2-1.4-0.4-1.6c-0.2-0.3-0.4-0.5-0.7-0.7s-0.9-0.3-1.6-0.3h-3.8v5.7c0,0.8,0,1.2,0.1,1.4s0.2,0.3,0.4,0.4s0.5,0.1,1,0.1
		h2.9c1,0,1.7-0.1,2.1-0.2s0.9-0.4,1.3-0.8c0.5-0.5,1.1-1.3,1.6-2.4h0.5l-1.5,4.3H73.8v-0.5h0.6c0.4,0,0.8-0.1,1.2-0.3
		c0.3-0.1,0.5-0.3,0.6-0.6s0.1-0.8,0.1-1.7V3.4c0-1.1-0.1-1.8-0.3-2c-0.3-0.3-0.8-0.5-1.5-0.5h-0.6V0.4h13.3l0.2,3.8h-0.5
		c-0.2-0.9-0.4-1.5-0.6-1.9s-0.5-0.6-1-0.8c-0.3-0.1-0.9-0.2-1.8-0.2H78.7z"/>
	<path id="XMLID_70_" class="st0" d="M106.3,0v6h-0.5c-0.2-1.1-0.4-2.1-0.8-2.7s-1-1.2-1.7-1.6S101.8,1,101.1,1
		c-0.9,0-1.6,0.3-2.2,0.8S98,3,98,3.7c0,0.5,0.2,1,0.5,1.4c0.5,0.6,1.8,1.5,3.7,2.5c1.6,0.9,2.7,1.5,3.3,2s1,1,1.4,1.6
		s0.5,1.3,0.5,2c0,1.3-0.5,2.4-1.5,3.4S103.6,18,102,18c-0.5,0-1,0-1.4-0.1c-0.3,0-0.8-0.2-1.6-0.5S97.6,17,97.4,17
		c-0.2,0-0.4,0.1-0.5,0.2s-0.2,0.4-0.3,0.8h-0.5v-5.9h0.5c0.2,1.2,0.5,2.2,0.9,2.8s0.9,1.1,1.7,1.5s1.6,0.6,2.5,0.6
		c1.1,0,1.9-0.3,2.5-0.8s0.9-1.2,0.9-2c0-0.4-0.1-0.9-0.3-1.3s-0.6-0.8-1.1-1.2c-0.3-0.3-1.2-0.8-2.7-1.6s-2.5-1.5-3.1-2
		s-1.1-1-1.4-1.6S96,5.2,96,4.5c0-1.2,0.5-2.3,1.4-3.2S99.6,0,101,0c0.9,0,1.9,0.2,2.9,0.7c0.5,0.2,0.8,0.3,1,0.3
		c0.2,0,0.4-0.1,0.5-0.2s0.3-0.4,0.3-0.8H106.3z"/>
	<path id="XMLID_72_" class="st0" d="M122,17.1v0.5h-7.4v-0.5h0.6c0.7,0,1.2-0.2,1.5-0.6c0.2-0.3,0.3-0.9,0.3-2V3.4
		c0-0.9-0.1-1.4-0.2-1.7c-0.1-0.2-0.3-0.4-0.5-0.5c-0.4-0.2-0.8-0.3-1.2-0.3h-0.6V0.4h7.4v0.5h-0.6c-0.7,0-1.2,0.2-1.5,0.6
		c-0.2,0.3-0.3,0.9-0.3,2v11.1c0,0.9,0.1,1.4,0.2,1.7c0.1,0.2,0.3,0.4,0.5,0.5c0.4,0.2,0.7,0.3,1.2,0.3H122z"/>
	<path id="XMLID_74_" class="st0" d="M143.8,0l0.4,5.4h-0.4c-0.4-1.4-1-2.4-1.7-3.1c-1-1-2.3-1.5-3.9-1.5c-2.2,0-3.9,0.9-5,2.6
		c-1,1.5-1.4,3.2-1.4,5.2c0,1.6,0.3,3.1,1,4.5s1.5,2.3,2.5,3s2.1,0.9,3.2,0.9c0.6,0,1.2-0.1,1.8-0.2s1.2-0.4,1.7-0.7v-5
		c0-0.9-0.1-1.4-0.2-1.7s-0.3-0.5-0.6-0.6s-0.8-0.2-1.5-0.2V8.2h6.7v0.5H146c-0.7,0-1.1,0.2-1.4,0.7c-0.2,0.3-0.3,0.9-0.3,1.9v5.3
		c-1,0.5-1.9,0.9-2.9,1.2s-2,0.4-3.2,0.4c-3.3,0-5.9-1.1-7.6-3.2c-1.3-1.6-1.9-3.4-1.9-5.5c0-1.5,0.4-3,1.1-4.4
		c0.9-1.7,2-2.9,3.6-3.8c1.3-0.7,2.8-1.1,4.5-1.1c0.6,0,1.2,0.1,1.7,0.2s1.2,0.3,2.2,0.7c0.5,0.2,0.8,0.3,1,0.3s0.3-0.1,0.4-0.2
		s0.2-0.4,0.2-0.9H143.8z"/>
	<path id="XMLID_76_" class="st0" d="M151.5,0.4h4.7l10.5,12.9V3.4c0-1.1-0.1-1.7-0.4-2c-0.3-0.4-0.8-0.5-1.5-0.5h-0.6V0.4h6v0.5
		h-0.6c-0.7,0-1.2,0.2-1.5,0.7c-0.2,0.3-0.3,0.9-0.3,1.9v14.5h-0.5L156,4v10.6c0,1.1,0.1,1.7,0.3,2c0.3,0.4,0.8,0.5,1.5,0.5h0.6v0.5
		h-6v-0.5h0.6c0.7,0,1.3-0.2,1.6-0.7c0.2-0.3,0.3-0.9,0.3-1.9v-12c-0.5-0.6-0.9-1-1.1-1.2s-0.6-0.4-1.1-0.5
		c-0.2-0.1-0.6-0.1-1.1-0.1V0.4z"/>
	<path id="XMLID_78_" class="st0" d="M199,17.8c0.9,1.5,1.8,2.6,2.8,3.3c1,0.7,2.1,1.1,3.4,1.2v0.4c-1.2,0-2.4-0.3-3.7-0.7
		c-1.3-0.4-2.6-1-3.8-1.8c-1.2-0.8-2.2-1.6-3.1-2.4c-1.2-0.5-2.2-1-2.9-1.6c-1-0.8-1.8-1.8-2.4-3c-0.6-1.2-0.9-2.6-0.9-4.2
		c0-2.6,0.8-4.7,2.5-6.4S194.6,0,197,0c2.3,0,4.2,0.9,5.8,2.6c1.6,1.7,2.5,3.9,2.5,6.5c0,2.1-0.6,4-1.8,5.5
		C202.4,16.2,200.9,17.2,199,17.8z M196.9,1c-1.5,0-2.8,0.6-3.7,1.7c-1.2,1.4-1.8,3.5-1.8,6.3c0,2.8,0.6,4.9,1.8,6.4
		c0.9,1.2,2.2,1.7,3.7,1.7c1.6,0,2.9-0.6,3.8-1.7c1.1-1.4,1.7-3.4,1.7-6.1c0-2.1-0.3-3.8-0.9-5.2c-0.5-1.1-1.1-1.9-1.9-2.4
		C198.8,1.2,197.9,1,196.9,1z"/>
	<path id="XMLID_81_" class="st0" d="M223.9,0.9V0.4h6.1v0.5h-0.6c-0.7,0-1.2,0.3-1.6,0.9c-0.2,0.3-0.3,0.9-0.3,1.8v7
		c0,1.7-0.2,3.1-0.5,4c-0.3,1-1,1.8-2,2.5c-1,0.7-2.4,1-4.1,1c-1.9,0-3.3-0.3-4.3-1s-1.7-1.5-2.1-2.6c-0.3-0.8-0.4-2.2-0.4-4.2V3.4
		c0-1.1-0.1-1.8-0.4-2.1c-0.3-0.3-0.8-0.5-1.4-0.5h-0.6V0.4h7.4v0.5h-0.7c-0.7,0-1.2,0.2-1.5,0.7c-0.2,0.3-0.3,0.9-0.3,1.9v7.5
		c0,0.7,0.1,1.4,0.2,2.3c0.1,0.9,0.3,1.5,0.7,2s0.8,0.9,1.4,1.2c0.6,0.3,1.3,0.5,2.2,0.5c1.1,0,2.1-0.2,3-0.7s1.5-1.1,1.8-1.9
		c0.3-0.8,0.5-2.1,0.5-3.9v-7c0-1.1-0.1-1.7-0.4-2c-0.3-0.4-0.8-0.6-1.5-0.6H223.9z"/>
	<path id="XMLID_83_" class="st0" d="M245,0c2.2,0,4.2,0.8,5.8,2.5s2.5,3.8,2.5,6.4c0,2.6-0.8,4.8-2.5,6.5s-3.6,2.6-6,2.6
		c-2.4,0-4.4-0.8-6-2.5s-2.4-3.9-2.4-6.5c0-2.7,0.9-5,2.8-6.7C240.8,0.7,242.7,0,245,0z M244.8,0.9c-1.5,0-2.8,0.6-3.7,1.7
		c-1.2,1.4-1.7,3.5-1.7,6.2c0,2.8,0.6,5,1.8,6.5c0.9,1.2,2.1,1.7,3.7,1.7c1.6,0,3-0.6,4-1.9s1.6-3.2,1.6-6c0-2.9-0.6-5.1-1.7-6.6
		C247.7,1.5,246.4,0.9,244.8,0.9z"/>
	<path id="XMLID_86_" class="st0" d="M274.5,0.4l0.2,4h-0.5c-0.1-0.7-0.2-1.2-0.4-1.5c-0.3-0.5-0.6-0.9-1-1.1s-1-0.3-1.7-0.3h-2.4
		v13.2c0,1.1,0.1,1.7,0.3,2c0.3,0.4,0.8,0.5,1.5,0.5h0.6v0.5h-7.3v-0.5h0.6c0.7,0,1.2-0.2,1.5-0.7c0.2-0.3,0.3-0.9,0.3-1.9V1.5h-2.1
		c-0.8,0-1.4,0.1-1.7,0.2c-0.4,0.2-0.8,0.5-1.1,0.9c-0.3,0.5-0.5,1.1-0.6,1.9h-0.5l0.2-4H274.5z"/>
	<path id="XMLID_88_" class="st0" d="M286,1.3v6.8h3.8c1,0,1.6-0.1,2-0.4c0.4-0.4,0.7-1.1,0.7-2.1h0.5v6h-0.5
		c-0.1-0.8-0.2-1.4-0.4-1.6c-0.2-0.3-0.4-0.5-0.7-0.7s-0.9-0.3-1.6-0.3H286v5.7c0,0.8,0,1.2,0.1,1.4s0.2,0.3,0.4,0.4s0.5,0.1,1,0.1
		h2.9c1,0,1.7-0.1,2.1-0.2s0.9-0.4,1.3-0.8c0.5-0.5,1.1-1.3,1.6-2.4h0.5l-1.5,4.3h-13.3v-0.5h0.6c0.4,0,0.8-0.1,1.2-0.3
		c0.3-0.1,0.5-0.3,0.6-0.6c0.1-0.3,0.1-0.8,0.1-1.7V3.4c0-1.1-0.1-1.8-0.3-2c-0.3-0.3-0.8-0.5-1.5-0.5h-0.6V0.4h13.3l0.2,3.8H294
		c-0.2-0.9-0.4-1.5-0.6-1.9c-0.2-0.3-0.5-0.6-1-0.8c-0.3-0.1-0.9-0.2-1.8-0.2H286z"/>
</g>
<g id="XMLID_4_">
	<path id="XMLID_2_" class="st0" d="M65.4,40.3c-0.4,0.5-0.9,0.9-1.3,1.2c-0.4,0.2-0.9,0.4-1.4,0.4c-0.6,0-1.1-0.2-1.4-0.5
		c-0.3-0.3-0.5-0.8-0.5-1.4c0-0.6,0.2-1.3,0.5-1.9c0.4-0.6,0.8-1.1,1.5-1.5c0.6-0.4,1.2-0.6,1.8-0.6c0.5,0,0.8,0.1,1,0.3
		s0.3,0.4,0.3,0.7c0,0.3-0.1,0.5-0.2,0.7c-0.1,0.1-0.3,0.2-0.4,0.2c-0.1,0-0.2,0-0.3-0.1c-0.1-0.1-0.1-0.2-0.1-0.3
		c0-0.1,0-0.2,0-0.2c0-0.1,0.1-0.1,0.2-0.2c0.1-0.1,0.2-0.2,0.2-0.2s0-0.1,0-0.1c0-0.1,0-0.2-0.1-0.2c-0.1-0.1-0.3-0.1-0.5-0.1
		c-0.4,0-0.8,0.1-1.2,0.4c-0.4,0.3-0.8,0.7-1,1.2c-0.3,0.7-0.5,1.3-0.5,2c0,0.4,0.1,0.8,0.4,1s0.6,0.4,1,0.4c0.3,0,0.6-0.1,1-0.2
		c0.3-0.2,0.7-0.5,1.1-0.9L65.4,40.3z"/>
	<path id="XMLID_5_" class="st0" d="M68.1,36.2l2.2-0.4L69.4,39c0.7-1.3,1.4-2.1,2-2.7c0.3-0.3,0.6-0.4,0.8-0.4c0.1,0,0.2,0,0.3,0.1
		c0.1,0.1,0.1,0.2,0.1,0.4c0,0.3-0.1,0.5-0.2,0.8c-0.1,0.2-0.2,0.3-0.4,0.3c-0.1,0-0.2,0-0.3-0.1c-0.1-0.1-0.1-0.2-0.1-0.3
		c0-0.1,0-0.1-0.1-0.2c0,0-0.1-0.1-0.1-0.1c-0.1,0-0.1,0-0.2,0.1c-0.1,0.1-0.3,0.2-0.5,0.5c-0.4,0.4-0.7,1-1.1,1.6
		c-0.2,0.3-0.3,0.6-0.5,0.9c-0.2,0.5-0.3,0.8-0.3,0.9l-0.2,0.8h-1l1.2-3.9c0.1-0.5,0.2-0.8,0.2-1c0-0.1,0-0.1-0.1-0.2
		c-0.1-0.1-0.2-0.1-0.3-0.1c-0.1,0-0.3,0-0.5,0.1L68.1,36.2z"/>
	<path id="XMLID_7_" class="st0" d="M74.8,39.2c0,0.2,0,0.4,0,0.5c0,0.4,0.1,0.7,0.4,1c0.3,0.3,0.6,0.4,1,0.4c0.3,0,0.6-0.1,0.9-0.2
		c0.3-0.1,0.7-0.4,1.3-0.8l0.1,0.2c-1,1-2,1.5-2.9,1.5c-0.6,0-1.1-0.2-1.4-0.6s-0.5-0.8-0.5-1.3c0-0.6,0.2-1.3,0.6-1.9
		s0.9-1.2,1.5-1.5c0.6-0.4,1.2-0.5,1.8-0.5c0.4,0,0.8,0.1,1,0.3s0.3,0.4,0.3,0.6c0,0.4-0.1,0.7-0.4,1c-0.4,0.4-0.9,0.8-1.6,1
		C76.4,39,75.7,39.1,74.8,39.2z M74.9,38.9c0.6-0.1,1.1-0.2,1.5-0.4c0.5-0.2,0.9-0.5,1.2-0.8c0.3-0.3,0.4-0.6,0.4-0.9
		c0-0.2-0.1-0.3-0.2-0.4c-0.1-0.1-0.3-0.2-0.5-0.2c-0.4,0-0.9,0.2-1.4,0.7C75.5,37.4,75.1,38,74.9,38.9z"/>
	<path id="XMLID_10_" class="st0" d="M86.4,35.9l-1.2,4.3l-0.1,0.6c0,0.1,0,0.1,0,0.1c0,0.1,0,0.1,0.1,0.2c0,0,0.1,0.1,0.1,0.1
		c0.1,0,0.1,0,0.2-0.1c0.2-0.1,0.4-0.4,0.7-0.8l0.2,0.2c-0.3,0.4-0.6,0.8-0.9,1s-0.6,0.3-0.9,0.3c-0.2,0-0.3,0-0.4-0.1
		c-0.1-0.1-0.1-0.2-0.1-0.4c0-0.2,0-0.5,0.1-0.8l0.1-0.5c-0.6,0.7-1.1,1.2-1.5,1.5c-0.3,0.2-0.7,0.3-1,0.3c-0.3,0-0.6-0.1-0.8-0.4
		c-0.2-0.3-0.3-0.6-0.3-1.1c0-0.7,0.2-1.4,0.6-2.1c0.4-0.7,0.9-1.3,1.5-1.8c0.5-0.4,0.9-0.5,1.4-0.5c0.3,0,0.5,0.1,0.6,0.2
		c0.2,0.1,0.3,0.4,0.4,0.7l0.2-0.7L86.4,35.9z M84.2,36.2c-0.3,0-0.6,0.1-0.9,0.4c-0.4,0.4-0.8,0.9-1.2,1.6
		c-0.3,0.7-0.5,1.3-0.5,1.9c0,0.3,0.1,0.5,0.2,0.7s0.3,0.3,0.5,0.3c0.5,0,1-0.3,1.5-1c0.7-0.9,1.1-1.8,1.1-2.8
		c0-0.4-0.1-0.6-0.2-0.8C84.6,36.3,84.4,36.2,84.2,36.2z"/>
	<path id="XMLID_13_" class="st0" d="M91.5,34.3L91,36h1l-0.1,0.4h-1l-1.1,3.7c-0.1,0.4-0.2,0.7-0.2,0.8c0,0.1,0,0.1,0.1,0.2
		c0,0,0.1,0.1,0.1,0.1c0.1,0,0.2-0.1,0.4-0.2c0.1-0.1,0.3-0.3,0.7-0.8l0.2,0.2c-0.4,0.6-0.8,1-1.1,1.2c-0.2,0.2-0.5,0.2-0.7,0.2
		c-0.2,0-0.3-0.1-0.5-0.2s-0.2-0.3-0.2-0.4c0-0.2,0.1-0.6,0.2-1l1.1-3.7h-1l0.1-0.2c0.5-0.1,0.9-0.3,1.2-0.6s0.7-0.7,1-1.3H91.5z"/>
	<path id="XMLID_15_" class="st0" d="M99.7,35.9c0.1,0.2,0.2,0.5,0.3,0.7s0.1,0.6,0.2,1.3l0.3,3.1c0.3-0.3,0.6-0.8,1.1-1.4
		c0.2-0.3,0.5-0.8,0.9-1.3c0.2-0.3,0.3-0.6,0.4-0.7c0-0.1,0-0.1,0-0.2c0,0,0-0.1,0-0.1s-0.1-0.1-0.2-0.1c-0.1,0-0.2-0.1-0.3-0.2
		c-0.1-0.1-0.1-0.2-0.1-0.4c0-0.2,0.1-0.3,0.2-0.4s0.2-0.2,0.4-0.2c0.2,0,0.3,0.1,0.5,0.2c0.1,0.2,0.2,0.4,0.2,0.6
		c0,0.3-0.1,0.7-0.3,1.1c-0.2,0.4-0.7,1.1-1.3,2s-1.4,1.9-2.4,2.9c-0.6,0.7-1.1,1.2-1.4,1.4c-0.3,0.2-0.6,0.3-0.8,0.3
		c-0.1,0-0.2,0-0.3-0.1c-0.1-0.1-0.1-0.2-0.1-0.3c0-0.2,0.1-0.3,0.2-0.5c0.1-0.1,0.3-0.2,0.4-0.2c0.1,0,0.2,0,0.2,0.1
		c0,0,0.1,0.1,0.1,0.2c0,0.1,0.1,0.2,0.1,0.2c0,0,0,0,0.1,0c0,0,0.1,0,0.1-0.1c0.2-0.1,0.5-0.4,0.8-0.7c0.4-0.4,0.7-0.8,0.9-1
		l-0.4-4c-0.1-0.7-0.1-1.1-0.3-1.2s-0.3-0.2-0.6-0.2c-0.1,0-0.2,0-0.5,0l-0.1-0.2L99.7,35.9z"/>
	<path id="XMLID_17_" class="st0" d="M110.7,37.9c0,0.6-0.2,1.3-0.5,1.9c-0.3,0.6-0.8,1.1-1.4,1.5s-1.2,0.5-1.8,0.5
		c-0.6,0-1.1-0.2-1.4-0.6c-0.4-0.4-0.5-0.8-0.5-1.4c0-0.6,0.2-1.2,0.5-1.9c0.4-0.6,0.8-1.1,1.4-1.5c0.6-0.4,1.2-0.5,1.7-0.5
		s1,0.2,1.4,0.6C110.5,36.8,110.7,37.3,110.7,37.9z M109.6,37.4c0-0.4-0.1-0.7-0.3-0.9c-0.2-0.2-0.4-0.3-0.7-0.3
		c-0.6,0-1.2,0.4-1.7,1.3c-0.5,0.9-0.8,1.8-0.8,2.7c0,0.4,0.1,0.7,0.3,0.9c0.2,0.2,0.5,0.3,0.8,0.3c0.6,0,1.2-0.4,1.7-1.3
		C109.4,39.3,109.6,38.4,109.6,37.4z"/>
	<path id="XMLID_20_" class="st0" d="M118.6,36l-1.1,3.8c-0.2,0.6-0.2,0.9-0.2,1.1c0,0.1,0,0.1,0,0.2c0,0,0.1,0.1,0.1,0.1
		c0.1,0,0.2,0,0.2-0.1c0.1-0.1,0.3-0.3,0.7-0.8l0.2,0.1c-0.3,0.5-0.7,0.9-1,1.2c-0.2,0.2-0.5,0.2-0.7,0.2c-0.2,0-0.3,0-0.4-0.1
		s-0.1-0.2-0.1-0.4c0-0.1,0-0.3,0.1-0.6c0.1-0.3,0.3-1,0.6-2c-0.7,1.2-1.3,2-1.8,2.4c-0.5,0.4-0.9,0.7-1.3,0.7
		c-0.2,0-0.4-0.1-0.5-0.2s-0.2-0.3-0.2-0.5c0-0.3,0.1-0.8,0.3-1.5l0.6-2c0.1-0.5,0.2-0.8,0.2-0.9c0-0.1,0-0.1-0.1-0.1
		c0,0-0.1-0.1-0.1-0.1c-0.1,0-0.2,0-0.3,0.1s-0.3,0.3-0.6,0.7l-0.2-0.1c0.3-0.5,0.7-0.9,1-1.1c0.3-0.2,0.5-0.3,0.7-0.3
		c0.2,0,0.3,0,0.4,0.1c0.1,0.1,0.1,0.2,0.1,0.4c0,0.2-0.1,0.6-0.3,1.2l-0.6,2.1c-0.2,0.6-0.2,0.9-0.2,1.1c0,0.1,0,0.1,0.1,0.2
		c0.1,0,0.1,0.1,0.2,0.1c0.1,0,0.3-0.1,0.5-0.2c0.2-0.1,0.5-0.5,0.9-0.9c0.4-0.5,0.7-0.9,0.9-1.4c0.2-0.4,0.5-1.1,0.8-2l0.1-0.5
		H118.6z"/>
	<path id="XMLID_22_" class="st0" d="M121,36.2l2.2-0.4l-0.9,3.1c0.7-1.3,1.4-2.1,2-2.7c0.3-0.3,0.6-0.4,0.8-0.4
		c0.1,0,0.2,0,0.3,0.1c0.1,0.1,0.1,0.2,0.1,0.4c0,0.3-0.1,0.5-0.2,0.8c-0.1,0.2-0.2,0.3-0.4,0.3c-0.1,0-0.2,0-0.3-0.1
		c-0.1-0.1-0.1-0.2-0.1-0.3c0-0.1,0-0.1-0.1-0.2c0,0-0.1-0.1-0.1-0.1c-0.1,0-0.1,0-0.2,0.1c-0.1,0.1-0.3,0.2-0.5,0.5
		c-0.4,0.4-0.7,1-1.1,1.6c-0.2,0.3-0.3,0.6-0.5,0.9c-0.2,0.5-0.3,0.8-0.3,0.9l-0.2,0.8h-1l1.2-3.9c0.1-0.5,0.2-0.8,0.2-1
		c0-0.1,0-0.1-0.1-0.2c-0.1-0.1-0.2-0.1-0.3-0.1c-0.1,0-0.3,0-0.5,0.1L121,36.2z"/>
	<path id="XMLID_24_" class="st0" d="M136.2,40.3c-0.4,0.5-0.9,0.9-1.3,1.2c-0.4,0.2-0.9,0.4-1.4,0.4c-0.6,0-1.1-0.2-1.4-0.5
		c-0.3-0.3-0.5-0.8-0.5-1.4c0-0.6,0.2-1.3,0.5-1.9c0.4-0.6,0.8-1.1,1.5-1.5c0.6-0.4,1.2-0.6,1.8-0.6c0.5,0,0.8,0.1,1,0.3
		s0.3,0.4,0.3,0.7c0,0.3-0.1,0.5-0.2,0.7c-0.1,0.1-0.3,0.2-0.4,0.2c-0.1,0-0.2,0-0.3-0.1c-0.1-0.1-0.1-0.2-0.1-0.3
		c0-0.1,0-0.2,0-0.2c0-0.1,0.1-0.1,0.2-0.2c0.1-0.1,0.2-0.2,0.2-0.2s0-0.1,0-0.1c0-0.1,0-0.2-0.1-0.2c-0.1-0.1-0.3-0.1-0.5-0.1
		c-0.4,0-0.8,0.1-1.2,0.4c-0.4,0.3-0.8,0.7-1,1.2c-0.3,0.7-0.5,1.3-0.5,2c0,0.4,0.1,0.8,0.4,1s0.6,0.4,1,0.4c0.3,0,0.6-0.1,1-0.2
		c0.3-0.2,0.7-0.5,1.1-0.9L136.2,40.3z"/>
	<path id="XMLID_26_" class="st0" d="M144.4,36l-1.1,3.8c-0.2,0.6-0.2,0.9-0.2,1.1c0,0.1,0,0.1,0,0.2c0,0,0.1,0.1,0.1,0.1
		c0.1,0,0.2,0,0.2-0.1c0.1-0.1,0.3-0.3,0.7-0.8l0.2,0.1c-0.3,0.5-0.7,0.9-1,1.2c-0.2,0.2-0.5,0.2-0.7,0.2c-0.2,0-0.3,0-0.4-0.1
		s-0.1-0.2-0.1-0.4c0-0.1,0-0.3,0.1-0.6c0.1-0.3,0.3-1,0.6-2c-0.7,1.2-1.3,2-1.8,2.4c-0.5,0.4-0.9,0.7-1.3,0.7
		c-0.2,0-0.4-0.1-0.5-0.2s-0.2-0.3-0.2-0.5c0-0.3,0.1-0.8,0.3-1.5l0.6-2c0.1-0.5,0.2-0.8,0.2-0.9c0-0.1,0-0.1-0.1-0.1
		c0,0-0.1-0.1-0.1-0.1c-0.1,0-0.2,0-0.3,0.1s-0.3,0.3-0.6,0.7l-0.2-0.1c0.3-0.5,0.7-0.9,1-1.1c0.3-0.2,0.5-0.3,0.7-0.3
		c0.2,0,0.3,0,0.4,0.1c0.1,0.1,0.1,0.2,0.1,0.4c0,0.2-0.1,0.6-0.3,1.2l-0.6,2.1c-0.2,0.6-0.2,0.9-0.2,1.1c0,0.1,0,0.1,0.1,0.2
		c0.1,0,0.1,0.1,0.2,0.1c0.1,0,0.3-0.1,0.5-0.2c0.2-0.1,0.5-0.5,0.9-0.9c0.4-0.5,0.7-0.9,0.9-1.4c0.2-0.4,0.5-1.1,0.8-2l0.1-0.5
		H144.4z"/>
	<path id="XMLID_28_" class="st0" d="M150.8,35.9l-0.4,1.9h-0.2c0-0.6-0.1-1-0.4-1.2c-0.2-0.3-0.5-0.4-0.8-0.4
		c-0.3,0-0.5,0.1-0.6,0.2c-0.2,0.1-0.2,0.3-0.2,0.5c0,0.1,0,0.3,0.1,0.4c0.1,0.1,0.2,0.3,0.4,0.5c0.6,0.6,0.9,1.1,1.1,1.4
		s0.2,0.6,0.2,0.9c0,0.4-0.2,0.8-0.5,1.2c-0.4,0.3-0.8,0.5-1.4,0.5c-0.3,0-0.7-0.1-1.1-0.2c-0.1-0.1-0.2-0.1-0.3-0.1
		c-0.2,0-0.3,0.1-0.4,0.3h-0.2l0.4-2.1h0.2c0,0.6,0.2,1.1,0.4,1.4c0.2,0.3,0.6,0.4,1,0.4c0.3,0,0.6-0.1,0.8-0.3
		c0.2-0.2,0.3-0.4,0.3-0.7c0-0.2,0-0.3-0.1-0.5c-0.1-0.3-0.4-0.6-0.7-1.1c-0.4-0.4-0.6-0.8-0.7-1c-0.1-0.2-0.2-0.4-0.2-0.7
		c0-0.4,0.1-0.8,0.4-1c0.3-0.3,0.7-0.4,1.2-0.4c0.1,0,0.3,0,0.4,0c0.1,0,0.2,0.1,0.4,0.1c0.2,0.1,0.4,0.1,0.4,0.1
		c0.2,0,0.3-0.1,0.5-0.3H150.8z"/>
	<path id="XMLID_30_" class="st0" d="M155.8,34.3l-0.5,1.7h1l-0.1,0.4h-1l-1.1,3.7c-0.1,0.4-0.2,0.7-0.2,0.8c0,0.1,0,0.1,0.1,0.2
		c0,0,0.1,0.1,0.1,0.1c0.1,0,0.2-0.1,0.4-0.2c0.1-0.1,0.3-0.3,0.7-0.8l0.2,0.2c-0.4,0.6-0.8,1-1.1,1.2c-0.2,0.2-0.5,0.2-0.7,0.2
		c-0.2,0-0.3-0.1-0.5-0.2s-0.2-0.3-0.2-0.4c0-0.2,0.1-0.6,0.2-1l1.1-3.7h-1l0.1-0.2c0.5-0.1,0.9-0.3,1.2-0.6s0.7-0.7,1-1.3H155.8z"
		/>
	<path id="XMLID_32_" class="st0" d="M163.3,37.9c0,0.6-0.2,1.3-0.5,1.9c-0.3,0.6-0.8,1.1-1.4,1.5c-0.6,0.4-1.2,0.5-1.8,0.5
		c-0.6,0-1.1-0.2-1.4-0.6c-0.4-0.4-0.5-0.8-0.5-1.4c0-0.6,0.2-1.2,0.5-1.9c0.4-0.6,0.8-1.1,1.4-1.5c0.6-0.4,1.2-0.5,1.7-0.5
		s1,0.2,1.4,0.6C163.2,36.8,163.3,37.3,163.3,37.9z M162.3,37.4c0-0.4-0.1-0.7-0.3-0.9c-0.2-0.2-0.4-0.3-0.7-0.3
		c-0.6,0-1.2,0.4-1.7,1.3c-0.5,0.9-0.8,1.8-0.8,2.7c0,0.4,0.1,0.7,0.3,0.9c0.2,0.2,0.5,0.3,0.8,0.3c0.6,0,1.2-0.4,1.7-1.3
		C162,39.3,162.3,38.4,162.3,37.4z"/>
	<path id="XMLID_35_" class="st0" d="M168,35.9l-0.8,2.9c0.4-0.7,0.7-1.2,0.9-1.5c0.4-0.5,0.8-0.9,1.2-1.1c0.2-0.1,0.5-0.2,0.7-0.2
		c0.2,0,0.4,0.1,0.5,0.2c0.1,0.1,0.2,0.3,0.2,0.5c0,0.2,0,0.5-0.1,0.8l-0.5,1.6c0.7-1.3,1.3-2.2,2-2.7c0.3-0.3,0.7-0.4,1-0.4
		c0.2,0,0.4,0.1,0.5,0.2c0.1,0.1,0.2,0.3,0.2,0.6c0,0.2,0,0.5-0.1,0.8l-0.7,2.5c-0.2,0.5-0.2,0.8-0.2,0.9c0,0.1,0,0.1,0.1,0.2
		c0,0,0.1,0,0.1,0c0,0,0.1,0,0.2-0.1c0.2-0.2,0.5-0.4,0.7-0.7l0.2,0.1c-0.1,0.2-0.3,0.4-0.6,0.7c-0.3,0.3-0.5,0.5-0.7,0.6
		c-0.2,0.1-0.4,0.2-0.5,0.2c-0.1,0-0.3-0.1-0.4-0.2c-0.1-0.1-0.1-0.2-0.1-0.4c0-0.2,0.1-0.6,0.3-1.2l0.6-2c0.1-0.5,0.2-0.7,0.2-0.8
		c0-0.1,0-0.2,0-0.2c0-0.1,0-0.2-0.1-0.2c-0.1-0.1-0.1-0.1-0.2-0.1c-0.2,0-0.4,0.1-0.6,0.3c-0.6,0.5-1.1,1.3-1.6,2.3
		c-0.3,0.6-0.6,1.5-0.9,2.5h-1l1.1-3.8c0.1-0.4,0.2-0.7,0.2-0.8c0-0.1,0-0.2-0.1-0.3c0-0.1-0.1-0.1-0.2-0.1c-0.1,0-0.3,0.1-0.4,0.2
		c-0.3,0.2-0.6,0.5-1,1.1c-0.4,0.5-0.7,1.1-0.9,1.6c-0.1,0.2-0.4,1-0.8,2.2h-0.9l1.2-4.1l0.2-0.5c0-0.1,0-0.1,0-0.2
		c0-0.1,0-0.2-0.1-0.3c-0.1-0.1-0.2-0.1-0.3-0.1c-0.1,0-0.2,0-0.5,0.1l-0.1-0.2L168,35.9z"/>
	<path id="XMLID_37_" class="st0" d="M178.8,35.9l-1.3,4.4c-0.1,0.3-0.1,0.5-0.1,0.5c0,0.1,0,0.1,0.1,0.2c0,0,0.1,0.1,0.1,0.1
		c0.1,0,0.1,0,0.2-0.1c0.2-0.2,0.5-0.5,0.7-0.8l0.2,0.1c-0.3,0.4-0.6,0.8-1,1.1c-0.3,0.2-0.6,0.3-0.8,0.3c-0.2,0-0.3-0.1-0.4-0.2
		c-0.1-0.1-0.2-0.2-0.2-0.4s0.1-0.4,0.2-0.8l0.8-2.8c0.1-0.5,0.2-0.8,0.2-0.9c0-0.1,0-0.2-0.1-0.2c-0.1-0.1-0.2-0.1-0.3-0.1
		c-0.1,0-0.3,0-0.6,0.1v-0.2L178.8,35.9z M178.7,33.4c0.2,0,0.3,0.1,0.5,0.2c0.1,0.1,0.2,0.3,0.2,0.5c0,0.2-0.1,0.3-0.2,0.4
		c-0.1,0.1-0.3,0.2-0.4,0.2c-0.2,0-0.3-0.1-0.4-0.2c-0.1-0.1-0.2-0.3-0.2-0.4c0-0.2,0.1-0.3,0.2-0.5
		C178.4,33.4,178.5,33.4,178.7,33.4z"/>
	<path id="XMLID_40_" class="st0" d="M181.8,36h4v0.2l-4.4,4.6h1.9c0.4,0,0.7,0,0.8-0.1c0.1,0,0.2-0.1,0.3-0.2s0.2-0.3,0.3-0.6h0.2
		l-0.6,1.7h-4.1v-0.2l4.4-4.6h-1.8c-0.4,0-0.6,0-0.7,0c-0.1,0-0.2,0.1-0.4,0.2c-0.1,0.1-0.2,0.3-0.4,0.5h-0.2L181.8,36z"/>
	<path id="XMLID_42_" class="st0" d="M188.6,39.2c0,0.2,0,0.4,0,0.5c0,0.4,0.1,0.7,0.4,1c0.3,0.3,0.6,0.4,1,0.4
		c0.3,0,0.6-0.1,0.9-0.2s0.7-0.4,1.3-0.8l0.1,0.2c-1,1-2,1.5-2.9,1.5c-0.6,0-1.1-0.2-1.4-0.6c-0.3-0.4-0.5-0.8-0.5-1.3
		c0-0.6,0.2-1.3,0.6-1.9c0.4-0.7,0.9-1.2,1.5-1.5c0.6-0.4,1.2-0.5,1.8-0.5c0.4,0,0.8,0.1,1,0.3s0.3,0.4,0.3,0.6c0,0.4-0.1,0.7-0.4,1
		c-0.4,0.4-0.9,0.8-1.6,1C190.2,39,189.5,39.1,188.6,39.2z M188.7,38.9c0.6-0.1,1.1-0.2,1.5-0.4c0.5-0.2,0.9-0.5,1.2-0.8
		c0.3-0.3,0.4-0.6,0.4-0.9c0-0.2-0.1-0.3-0.2-0.4c-0.1-0.1-0.3-0.2-0.5-0.2c-0.4,0-0.9,0.2-1.4,0.7S188.9,38,188.7,38.9z"/>
	<path id="XMLID_45_" class="st0" d="M201.2,32.6l-2.2,7.5c-0.1,0.4-0.2,0.7-0.2,0.8c0,0,0,0.1,0.1,0.1c0,0,0.1,0.1,0.1,0.1
		c0.1,0,0.1,0,0.2-0.1c0.1-0.1,0.4-0.4,0.7-0.8l0.2,0.1c-0.3,0.4-0.6,0.8-0.9,1c-0.3,0.3-0.6,0.4-0.9,0.4c-0.1,0-0.3-0.1-0.4-0.2
		c-0.1-0.1-0.1-0.2-0.1-0.4c0-0.2,0.1-0.6,0.2-1l0.2-0.8c-0.6,0.9-1.2,1.6-1.7,2c-0.3,0.2-0.7,0.4-1,0.4c-0.3,0-0.6-0.1-0.8-0.4
		c-0.2-0.3-0.4-0.7-0.4-1.2c0-0.6,0.2-1.3,0.6-2c0.4-0.7,0.9-1.3,1.6-1.7c0.5-0.4,1-0.5,1.4-0.5c0.2,0,0.4,0,0.6,0.1
		c0.2,0.1,0.3,0.2,0.5,0.5l0.6-2.2c0-0.2,0.1-0.3,0.1-0.4c0.1-0.2,0.1-0.3,0.1-0.4c0-0.1,0-0.2-0.1-0.2c-0.1-0.1-0.2-0.1-0.3-0.1
		c-0.1,0-0.3,0-0.5,0V33L201.2,32.6z M198.8,37.1c0-0.3-0.1-0.5-0.2-0.7c-0.2-0.2-0.4-0.2-0.6-0.2c-0.5,0-1.1,0.4-1.7,1.3
		c-0.6,0.9-0.9,1.7-0.9,2.5c0,0.3,0.1,0.6,0.2,0.7c0.1,0.2,0.3,0.3,0.5,0.3c0.4,0,1-0.5,1.7-1.4C198.5,38.7,198.8,37.8,198.8,37.1z"
		/>
	<path id="XMLID_48_" class="st0" d="M212.5,37.9c0,0.6-0.2,1.3-0.5,1.9c-0.3,0.6-0.8,1.1-1.4,1.5c-0.6,0.4-1.2,0.5-1.8,0.5
		c-0.6,0-1.1-0.2-1.4-0.6c-0.4-0.4-0.5-0.8-0.5-1.4c0-0.6,0.2-1.2,0.5-1.9c0.4-0.6,0.8-1.1,1.4-1.5c0.6-0.4,1.2-0.5,1.7-0.5
		s1,0.2,1.4,0.6C212.3,36.8,212.5,37.3,212.5,37.9z M211.5,37.4c0-0.4-0.1-0.7-0.3-0.9c-0.2-0.2-0.4-0.3-0.7-0.3
		c-0.6,0-1.2,0.4-1.7,1.3s-0.8,1.8-0.8,2.7c0,0.4,0.1,0.7,0.3,0.9c0.2,0.2,0.5,0.3,0.8,0.3c0.6,0,1.2-0.4,1.7-1.3
		C211.2,39.3,211.5,38.4,211.5,37.4z"/>
	<path id="XMLID_51_" class="st0" d="M215,36.2l2.2-0.4l-0.9,3.1c0.7-1.3,1.4-2.1,2-2.7c0.3-0.3,0.6-0.4,0.8-0.4
		c0.1,0,0.2,0,0.3,0.1c0.1,0.1,0.1,0.2,0.1,0.4c0,0.3-0.1,0.5-0.2,0.8c-0.1,0.2-0.2,0.3-0.4,0.3c-0.1,0-0.2,0-0.3-0.1
		c-0.1-0.1-0.1-0.2-0.1-0.3c0-0.1,0-0.1-0.1-0.2c0,0-0.1-0.1-0.1-0.1c-0.1,0-0.1,0-0.2,0.1c-0.1,0.1-0.3,0.2-0.5,0.5
		c-0.4,0.4-0.7,1-1.1,1.6c-0.2,0.3-0.3,0.6-0.5,0.9c-0.2,0.5-0.3,0.8-0.3,0.9l-0.2,0.8h-1l1.2-3.9c0.1-0.5,0.2-0.8,0.2-1
		c0-0.1,0-0.1-0.1-0.2c-0.1-0.1-0.2-0.1-0.3-0.1c-0.1,0-0.3,0-0.5,0.1L215,36.2z"/>
	<path id="XMLID_53_" class="st0" d="M227.2,32.6l-2.2,7.5c-0.1,0.4-0.2,0.7-0.2,0.8c0,0,0,0.1,0.1,0.1c0,0,0.1,0.1,0.1,0.1
		c0.1,0,0.1,0,0.2-0.1c0.1-0.1,0.4-0.4,0.7-0.8l0.2,0.1c-0.3,0.4-0.6,0.8-0.9,1c-0.3,0.3-0.6,0.4-0.9,0.4c-0.1,0-0.3-0.1-0.4-0.2
		c-0.1-0.1-0.1-0.2-0.1-0.4c0-0.2,0.1-0.6,0.2-1l0.2-0.8c-0.6,0.9-1.2,1.6-1.7,2c-0.3,0.2-0.7,0.4-1,0.4c-0.3,0-0.6-0.1-0.8-0.4
		c-0.2-0.3-0.4-0.7-0.4-1.2c0-0.6,0.2-1.3,0.6-2c0.4-0.7,0.9-1.3,1.6-1.7c0.5-0.4,1-0.5,1.4-0.5c0.2,0,0.4,0,0.6,0.1
		c0.2,0.1,0.3,0.2,0.5,0.5l0.6-2.2c0-0.2,0.1-0.3,0.1-0.4c0.1-0.2,0.1-0.3,0.1-0.4c0-0.1,0-0.2-0.1-0.2c-0.1-0.1-0.2-0.1-0.3-0.1
		c-0.1,0-0.3,0-0.5,0V33L227.2,32.6z M224.9,37.1c0-0.3-0.1-0.5-0.2-0.7c-0.2-0.2-0.4-0.2-0.6-0.2c-0.5,0-1.1,0.4-1.7,1.3
		c-0.6,0.9-0.9,1.7-0.9,2.5c0,0.3,0.1,0.6,0.2,0.7c0.1,0.2,0.3,0.3,0.5,0.3c0.4,0,1-0.5,1.7-1.4C224.5,38.7,224.9,37.8,224.9,37.1z"
		/>
	<path id="XMLID_56_" class="st0" d="M229.5,39.2c0,0.2,0,0.4,0,0.5c0,0.4,0.1,0.7,0.4,1c0.3,0.3,0.6,0.4,1,0.4
		c0.3,0,0.6-0.1,0.9-0.2s0.7-0.4,1.3-0.8l0.1,0.2c-1,1-2,1.5-2.9,1.5c-0.6,0-1.1-0.2-1.4-0.6c-0.3-0.4-0.5-0.8-0.5-1.3
		c0-0.6,0.2-1.3,0.6-1.9c0.4-0.7,0.9-1.2,1.5-1.5c0.6-0.4,1.2-0.5,1.8-0.5c0.4,0,0.8,0.1,1,0.3s0.3,0.4,0.3,0.6c0,0.4-0.1,0.7-0.4,1
		c-0.4,0.4-0.9,0.8-1.6,1C231.1,39,230.4,39.1,229.5,39.2z M229.6,38.9c0.6-0.1,1.1-0.2,1.5-0.4c0.5-0.2,0.9-0.5,1.2-0.8
		c0.3-0.3,0.4-0.6,0.4-0.9c0-0.2-0.1-0.3-0.2-0.4c-0.1-0.1-0.3-0.2-0.5-0.2c-0.4,0-0.9,0.2-1.4,0.7S229.8,38,229.6,38.9z"/>
	<path id="XMLID_59_" class="st0" d="M235.7,36.2l2.2-0.4L237,39c0.7-1.3,1.4-2.1,2-2.7c0.3-0.3,0.6-0.4,0.8-0.4
		c0.1,0,0.2,0,0.3,0.1c0.1,0.1,0.1,0.2,0.1,0.4c0,0.3-0.1,0.5-0.2,0.8c-0.1,0.2-0.2,0.3-0.4,0.3c-0.1,0-0.2,0-0.3-0.1
		c-0.1-0.1-0.1-0.2-0.1-0.3c0-0.1,0-0.1-0.1-0.2c0,0-0.1-0.1-0.1-0.1c-0.1,0-0.1,0-0.2,0.1c-0.1,0.1-0.3,0.2-0.5,0.5
		c-0.4,0.4-0.7,1-1.1,1.6c-0.2,0.3-0.3,0.6-0.5,0.9c-0.2,0.5-0.3,0.8-0.3,0.9l-0.2,0.8h-1l1.2-3.9c0.1-0.5,0.2-0.8,0.2-1
		c0-0.1,0-0.1-0.1-0.2c-0.1-0.1-0.2-0.1-0.3-0.1c-0.1,0-0.3,0-0.5,0.1L235.7,36.2z"/>
</g>
</svg>
