<?xml version="1.0" encoding="utf-8"?>
<!-- Generator: Adobe Illustrator 19.0.0, SVG Export Plug-In . SVG Version: 6.00 Build 0)  -->
<svg version="1.1" id="图层_1" xmlns="http://www.w3.org/2000/svg" xmlns:xlink="http://www.w3.org/1999/xlink" x="0px" y="0px"
	 viewBox="0 0 269.9 73" style="enable-background:new 0 0 269.9 73;" xml:space="preserve">
<style type="text/css">
	.st0{opacity:0.28;}
	.st1{fill:#FFFFFF;}
</style>
<path id="XMLID_17_" class="st0" d="M256.9,73H10C4.5,73,0,68.5,0,63V14.5c0-5.5,4.5-10,10-10h246.9c5.5,0,10,4.5,10,10V63
	C266.9,68.5,262.4,73,256.9,73z"/>
<path id="XMLID_15_" class="st1" d="M259.9,68.5H13c-5.5,0-10-4.5-10-10V10C3,4.5,7.5,0,13,0h246.9c5.5,0,10,4.5,10,10v48.5
	C269.9,64,265.4,68.5,259.9,68.5z"/>
<g id="XMLID_36_">
	<path id="XMLID_16_" d="M64.9,37c0,0.5,0.1,0.8,0.3,1.2c0.2,0.3,0.4,0.6,0.6,0.8c0.3,0.2,0.6,0.3,0.9,0.4s0.7,0.1,1.1,0.1
		c0.5,0,0.9-0.1,1.2-0.2c0.3-0.1,0.6-0.3,0.8-0.5c0.2-0.2,0.4-0.4,0.5-0.7s0.2-0.5,0.2-0.8c0-0.4-0.1-0.7-0.3-1
		c-0.2-0.2-0.4-0.5-0.7-0.6c-0.3-0.2-0.6-0.3-1-0.4s-0.8-0.2-1.2-0.3s-0.8-0.2-1.2-0.3c-0.4-0.1-0.7-0.3-1-0.5s-0.5-0.5-0.7-0.8
		c-0.2-0.3-0.3-0.7-0.3-1.3c0-0.4,0.1-0.7,0.2-1s0.4-0.6,0.7-0.9c0.3-0.3,0.7-0.5,1.1-0.6c0.4-0.2,0.9-0.2,1.5-0.2
		c0.6,0,1.1,0.1,1.5,0.2c0.4,0.2,0.8,0.4,1.1,0.7s0.5,0.6,0.6,1s0.2,0.8,0.2,1.2h-0.9c0-0.4-0.1-0.7-0.2-1s-0.3-0.5-0.6-0.7
		s-0.5-0.3-0.8-0.4c-0.3-0.1-0.6-0.1-0.9-0.1c-0.5,0-0.9,0.1-1.3,0.2s-0.6,0.3-0.8,0.5c-0.2,0.2-0.3,0.5-0.4,0.7
		c-0.1,0.3-0.1,0.5,0,0.8c0.1,0.3,0.2,0.6,0.4,0.8c0.2,0.2,0.5,0.4,0.8,0.5c0.3,0.1,0.6,0.2,1,0.3c0.4,0.1,0.7,0.2,1.1,0.3
		s0.8,0.2,1.1,0.3c0.4,0.1,0.7,0.3,1,0.5c0.3,0.2,0.5,0.5,0.7,0.8c0.2,0.3,0.3,0.7,0.3,1.2c0,1-0.3,1.7-1,2.2
		c-0.7,0.5-1.6,0.8-2.8,0.8c-0.5,0-1-0.1-1.5-0.2c-0.5-0.1-0.9-0.3-1.2-0.6s-0.6-0.6-0.8-1S64,37.6,64,37H64.9z"/>
	<path id="XMLID_19_" d="M74.7,40.1V29.8h6.9v0.8h-5.9v3.7H81v0.8h-5.3v4.1h6v0.8H74.7z"/>
	<path id="XMLID_21_" d="M85,40.1V29.8h6.9v0.8h-5.9v3.7h5.3v0.8h-5.3v4.1h6v0.8H85z"/>
	<path id="XMLID_23_" d="M100.6,40.1V29.8h6.9v0.8h-5.9v3.7h5.3v0.8h-5.3v4.1h6v0.8H100.6z"/>
	<path id="XMLID_25_" d="M114,35.5l-3,4.6h-1.1l3.6-5.3l-3.4-5h1.1l2.8,4.3l2.8-4.3h1.1l-3.4,5l3.5,5.3H117L114,35.5z"/>
	<path id="XMLID_27_" d="M121,40.1V29.8h3.8c0.7,0,1.2,0.1,1.7,0.2s0.8,0.4,1,0.6c0.3,0.3,0.4,0.6,0.5,0.9s0.2,0.7,0.2,1.1
		c0,0.6-0.1,1-0.4,1.4s-0.5,0.7-0.9,0.9c-0.4,0.2-0.8,0.4-1.3,0.5c-0.5,0.1-0.9,0.1-1.4,0.1h-2.2v4.6H121z M124.2,34.7
		c0.5,0,0.9,0,1.2-0.1c0.4-0.1,0.7-0.2,0.9-0.3c0.3-0.2,0.4-0.4,0.6-0.6c0.1-0.3,0.2-0.6,0.2-1.1c0-0.7-0.2-1.1-0.6-1.5
		s-1.1-0.5-2-0.5h-2.5v4.1H124.2z"/>
	<path id="XMLID_30_" d="M131.2,40.1V29.8h1v9.5h5.5v0.8H131.2z"/>
	<path id="XMLID_32_" d="M139.7,40.1l4.1-10.3h1.1l4,10.3h-1l-1.2-3.2h-4.7l-1.2,3.2H139.7z M142.2,36h4l-2-5.4L142.2,36z"/>
	<path id="XMLID_35_" d="M152.6,31.1L152.6,31.1l0,9h-1V29.8h1.1l6,9h0v-9h1v10.3h-1.1L152.6,31.1z"/>
	<path id="XMLID_38_" d="M162.5,40.1l4.1-10.3h1.1l4,10.3h-1l-1.2-3.2h-4.7l-1.2,3.2H162.5z M165.1,36h4l-2-5.4L165.1,36z"/>
	<path id="XMLID_41_" d="M173.5,29.8h7.5v0.8h-3.3v9.5h-1v-9.5h-3.3V29.8z"/>
	<path id="XMLID_43_" d="M184.2,40.1V29.8h1v10.3H184.2z"/>
	<path id="XMLID_45_" d="M188.9,35c0-0.8,0.1-1.5,0.3-2.1s0.5-1.2,0.9-1.7c0.4-0.5,0.9-0.9,1.5-1.2c0.6-0.3,1.3-0.4,2.1-0.4
		c0.8,0,1.5,0.1,2.1,0.4c0.6,0.3,1.1,0.7,1.5,1.2s0.7,1.1,0.9,1.7s0.3,1.4,0.3,2.1c0,0.7-0.1,1.4-0.3,2.1c-0.2,0.7-0.5,1.2-0.9,1.7
		c-0.4,0.5-0.9,0.9-1.5,1.2c-0.6,0.3-1.3,0.4-2.1,0.4c-0.8,0-1.5-0.1-2.1-0.4c-0.6-0.3-1.1-0.7-1.5-1.2c-0.4-0.5-0.7-1.1-0.9-1.7
		C189,36.4,188.9,35.7,188.9,35z M193.7,39.6c0.7,0,1.2-0.1,1.7-0.4c0.5-0.3,0.9-0.6,1.2-1c0.3-0.4,0.5-0.9,0.7-1.5
		c0.1-0.6,0.2-1.1,0.2-1.7c0-0.7-0.1-1.4-0.3-1.9c-0.2-0.6-0.4-1.1-0.8-1.5c-0.3-0.4-0.7-0.7-1.2-0.9c-0.5-0.2-1-0.3-1.6-0.3
		c-0.7,0-1.2,0.1-1.7,0.4s-0.9,0.6-1.2,1c-0.3,0.4-0.5,0.9-0.7,1.5c-0.1,0.6-0.2,1.1-0.2,1.7c0,0.6,0.1,1.2,0.2,1.8
		c0.1,0.6,0.4,1,0.7,1.5c0.3,0.4,0.7,0.8,1.2,1C192.5,39.4,193,39.6,193.7,39.6z"/>
	<path id="XMLID_48_" d="M202.9,31.1L202.9,31.1l0,9h-1V29.8h1.1l6,9h0v-9h1v10.3h-1.1L202.9,31.1z"/>
</g>
</svg>
